<?xml version="1.0" encoding="UTF-8" standalone="yes"?><svg xmlns="http://www.w3.org/2000/svg" xmlns:xlink="http://www.w3.org/1999/xlink" height="587pt" style="width:552px;height:587px;" version="1.1" viewBox="0 0 552 587" width="552pt"><defs><filter height="300%" id="f1" width="300%" x="-1" y="-1"><feGaussianBlur result="blurOut" stdDeviation="2.0"/><feColorMatrix in="blurOut" result="blurOut2" type="matrix" values="0 0 0 0 0 0 0 0 0 0 0 0 0 0 0 0 0 0 .4 0"/><feOffset dx="4.0" dy="4.0" in="blurOut2" result="blurOut3"/><feBlend in="SourceGraphic" in2="blurOut3" mode="normal"/></filter></defs><g><rect fill="#FFFFFF" filter="url(#f1)" height="556" style="stroke: #000000; stroke-width: 2.0;" width="523" x="22" y="24"/><path d="M79,25 L79,33.2969 L69,43.2969 L22,43.2969 " fill="#FFFFFF" style="stroke: #000000; stroke-width: 2.0;"/><text fill="#000000" font-family="sans-serif" font-size="14" font-weight="bold" lengthAdjust="spacingAndGlyphs" textLength="47" x="25" y="36.9951">des.cl</text><rect fill="#FFFFFF" filter="url(#f1)" height="116" style="stroke: #000000; stroke-width: 2.0;" width="286" x="235" y="356"/><path d="M311,357 L311,365.2969 L301,375.2969 L235,375.2969 " fill="#FFFFFF" style="stroke: #000000; stroke-width: 2.0;"/><text fill="#000000" font-family="sans-serif" font-size="14" font-weight="bold" lengthAdjust="spacingAndGlyphs" textLength="66" x="238" y="368.9951">des.cl.gl</text><rect fill="#FEFECE" filter="url(#f1)" height="48" style="stroke: #A80036; stroke-width: 1.5;" width="149" x="257.75" y="184"/><ellipse cx="272.75" cy="200" fill="#ADD1B2" rx="11" ry="11" style="stroke: #A80036; stroke-width: 1.0;"/><path d="M275.0938,195.6719 L275.2656,195.75 C275.4844,195.4375 275.6875,195.3438 275.9844,195.3438 C276.2813,195.3438 276.5625,195.4844 276.7188,195.75 C276.8125,195.9063 276.8281,196.0313 276.8281,196.4688 L276.8281,197.8906 C276.8281,198.3125 276.7969,198.5 276.6875,198.6563 C276.5156,198.875 276.25,199.0156 275.9844,199.0156 C275.7656,199.0156 275.5313,198.9063 275.3906,198.7656 C275.25,198.6406 275.2188,198.5156 275.1563,198.1094 C275.0625,197.7031 274.8906,197.4844 274.4063,197.2031 C273.9375,196.9531 273.3281,196.7969 272.75,196.7969 C271.0156,196.7969 269.7656,198.1094 269.7656,199.8906 L269.7656,200.9844 C269.7656,202.6875 271.0625,203.7813 273.1094,203.7813 C273.875,203.7813 274.5625,203.6563 274.9844,203.3906 C275.1719,203.2969 275.1719,203.2969 275.625,202.8125 C275.8125,202.625 276.0156,202.5469 276.2344,202.5469 C276.7031,202.5469 277.0938,202.9375 277.0938,203.3906 C277.0938,203.7813 276.7656,204.2344 276.1875,204.6406 C275.4375,205.1875 274.2813,205.4844 273.0625,205.4844 C270.1719,205.4844 268.0625,203.5938 268.0625,201.0156 L268.0625,199.8906 C268.0625,197.1719 270.0625,195.0938 272.6875,195.0938 C273.5625,195.0938 274.1563,195.2344 275.0938,195.6719 Z "/><text fill="#000000" font-family="sans-serif" font-size="12" lengthAdjust="spacingAndGlyphs" textLength="117" x="286.75" y="204.1543">CLCommandQueue</text><line style="stroke: #A80036; stroke-width: 1.5;" x1="258.75" x2="405.75" y1="216" y2="216"/><line style="stroke: #A80036; stroke-width: 1.5;" x1="258.75" x2="405.75" y1="224" y2="224"/><rect fill="#FEFECE" filter="url(#f1)" height="48" style="stroke: #A80036; stroke-width: 1.5;" width="94" x="270" y="292"/><ellipse cx="285" cy="308" fill="#ADD1B2" rx="11" ry="11" style="stroke: #A80036; stroke-width: 1.0;"/><path d="M287.3438,303.6719 L287.5156,303.75 C287.7344,303.4375 287.9375,303.3438 288.2344,303.3438 C288.5313,303.3438 288.8125,303.4844 288.9688,303.75 C289.0625,303.9063 289.0781,304.0313 289.0781,304.4688 L289.0781,305.8906 C289.0781,306.3125 289.0469,306.5 288.9375,306.6563 C288.7656,306.875 288.5,307.0156 288.2344,307.0156 C288.0156,307.0156 287.7813,306.9063 287.6406,306.7656 C287.5,306.6406 287.4688,306.5156 287.4063,306.1094 C287.3125,305.7031 287.1406,305.4844 286.6563,305.2031 C286.1875,304.9531 285.5781,304.7969 285,304.7969 C283.2656,304.7969 282.0156,306.1094 282.0156,307.8906 L282.0156,308.9844 C282.0156,310.6875 283.3125,311.7813 285.3594,311.7813 C286.125,311.7813 286.8125,311.6563 287.2344,311.3906 C287.4219,311.2969 287.4219,311.2969 287.875,310.8125 C288.0625,310.625 288.2656,310.5469 288.4844,310.5469 C288.9531,310.5469 289.3438,310.9375 289.3438,311.3906 C289.3438,311.7813 289.0156,312.2344 288.4375,312.6406 C287.6875,313.1875 286.5313,313.4844 285.3125,313.4844 C282.4219,313.4844 280.3125,311.5938 280.3125,309.0156 L280.3125,307.8906 C280.3125,305.1719 282.3125,303.0938 284.9375,303.0938 C285.8125,303.0938 286.4063,303.2344 287.3438,303.6719 Z "/><text fill="#000000" font-family="sans-serif" font-size="12" lengthAdjust="spacingAndGlyphs" textLength="62" x="299" y="312.1543">CLContext</text><line style="stroke: #A80036; stroke-width: 1.5;" x1="271" x2="363" y1="324" y2="324"/><line style="stroke: #A80036; stroke-width: 1.5;" x1="271" x2="363" y1="332" y2="332"/><rect fill="#FEFECE" filter="url(#f1)" height="48" style="stroke: #A80036; stroke-width: 1.5;" width="87" x="441.75" y="184"/><ellipse cx="456.75" cy="200" fill="#ADD1B2" rx="11" ry="11" style="stroke: #A80036; stroke-width: 1.0;"/><path d="M459.0938,195.6719 L459.2656,195.75 C459.4844,195.4375 459.6875,195.3438 459.9844,195.3438 C460.2813,195.3438 460.5625,195.4844 460.7188,195.75 C460.8125,195.9063 460.8281,196.0313 460.8281,196.4688 L460.8281,197.8906 C460.8281,198.3125 460.7969,198.5 460.6875,198.6563 C460.5156,198.875 460.25,199.0156 459.9844,199.0156 C459.7656,199.0156 459.5313,198.9063 459.3906,198.7656 C459.25,198.6406 459.2188,198.5156 459.1563,198.1094 C459.0625,197.7031 458.8906,197.4844 458.4063,197.2031 C457.9375,196.9531 457.3281,196.7969 456.75,196.7969 C455.0156,196.7969 453.7656,198.1094 453.7656,199.8906 L453.7656,200.9844 C453.7656,202.6875 455.0625,203.7813 457.1094,203.7813 C457.875,203.7813 458.5625,203.6563 458.9844,203.3906 C459.1719,203.2969 459.1719,203.2969 459.625,202.8125 C459.8125,202.625 460.0156,202.5469 460.2344,202.5469 C460.7031,202.5469 461.0938,202.9375 461.0938,203.3906 C461.0938,203.7813 460.7656,204.2344 460.1875,204.6406 C459.4375,205.1875 458.2813,205.4844 457.0625,205.4844 C454.1719,205.4844 452.0625,203.5938 452.0625,201.0156 L452.0625,199.8906 C452.0625,197.1719 454.0625,195.0938 456.6875,195.0938 C457.5625,195.0938 458.1563,195.2344 459.0938,195.6719 Z "/><text fill="#000000" font-family="sans-serif" font-size="12" lengthAdjust="spacingAndGlyphs" textLength="55" x="470.75" y="204.1543">CLDevice</text><line style="stroke: #A80036; stroke-width: 1.5;" x1="442.75" x2="527.75" y1="216" y2="216"/><line style="stroke: #A80036; stroke-width: 1.5;" x1="442.75" x2="527.75" y1="224" y2="224"/><rect fill="#FEFECE" filter="url(#f1)" height="48" style="stroke: #A80036; stroke-width: 1.5;" width="98" x="420" y="292"/><ellipse cx="435" cy="308" fill="#ADD1B2" rx="11" ry="11" style="stroke: #A80036; stroke-width: 1.0;"/><path d="M437.3438,303.6719 L437.5156,303.75 C437.7344,303.4375 437.9375,303.3438 438.2344,303.3438 C438.5313,303.3438 438.8125,303.4844 438.9688,303.75 C439.0625,303.9063 439.0781,304.0313 439.0781,304.4688 L439.0781,305.8906 C439.0781,306.3125 439.0469,306.5 438.9375,306.6563 C438.7656,306.875 438.5,307.0156 438.2344,307.0156 C438.0156,307.0156 437.7813,306.9063 437.6406,306.7656 C437.5,306.6406 437.4688,306.5156 437.4063,306.1094 C437.3125,305.7031 437.1406,305.4844 436.6563,305.2031 C436.1875,304.9531 435.5781,304.7969 435,304.7969 C433.2656,304.7969 432.0156,306.1094 432.0156,307.8906 L432.0156,308.9844 C432.0156,310.6875 433.3125,311.7813 435.3594,311.7813 C436.125,311.7813 436.8125,311.6563 437.2344,311.3906 C437.4219,311.2969 437.4219,311.2969 437.875,310.8125 C438.0625,310.625 438.2656,310.5469 438.4844,310.5469 C438.9531,310.5469 439.3438,310.9375 439.3438,311.3906 C439.3438,311.7813 439.0156,312.2344 438.4375,312.6406 C437.6875,313.1875 436.5313,313.4844 435.3125,313.4844 C432.4219,313.4844 430.3125,311.5938 430.3125,309.0156 L430.3125,307.8906 C430.3125,305.1719 432.3125,303.0938 434.9375,303.0938 C435.8125,303.0938 436.4063,303.2344 437.3438,303.6719 Z "/><text fill="#000000" font-family="sans-serif" font-size="12" lengthAdjust="spacingAndGlyphs" textLength="66" x="449" y="312.1543">CLPlatform</text><line style="stroke: #A80036; stroke-width: 1.5;" x1="421" x2="517" y1="324" y2="324"/><line style="stroke: #A80036; stroke-width: 1.5;" x1="421" x2="517" y1="332" y2="332"/><rect fill="#FEFECE" filter="url(#f1)" height="48" style="stroke: #A80036; stroke-width: 1.5;" width="81" x="52.75" y="76"/><ellipse cx="67.75" cy="92" fill="#ADD1B2" rx="11" ry="11" style="stroke: #A80036; stroke-width: 1.0;"/><path d="M70.0938,87.6719 L70.2656,87.75 C70.4844,87.4375 70.6875,87.3438 70.9844,87.3438 C71.2813,87.3438 71.5625,87.4844 71.7188,87.75 C71.8125,87.9063 71.8281,88.0313 71.8281,88.4688 L71.8281,89.8906 C71.8281,90.3125 71.7969,90.5 71.6875,90.6563 C71.5156,90.875 71.25,91.0156 70.9844,91.0156 C70.7656,91.0156 70.5313,90.9063 70.3906,90.7656 C70.25,90.6406 70.2188,90.5156 70.1563,90.1094 C70.0625,89.7031 69.8906,89.4844 69.4063,89.2031 C68.9375,88.9531 68.3281,88.7969 67.75,88.7969 C66.0156,88.7969 64.7656,90.1094 64.7656,91.8906 L64.7656,92.9844 C64.7656,94.6875 66.0625,95.7813 68.1094,95.7813 C68.875,95.7813 69.5625,95.6563 69.9844,95.3906 C70.1719,95.2969 70.1719,95.2969 70.625,94.8125 C70.8125,94.625 71.0156,94.5469 71.2344,94.5469 C71.7031,94.5469 72.0938,94.9375 72.0938,95.3906 C72.0938,95.7813 71.7656,96.2344 71.1875,96.6406 C70.4375,97.1875 69.2813,97.4844 68.0625,97.4844 C65.1719,97.4844 63.0625,95.5938 63.0625,93.0156 L63.0625,91.8906 C63.0625,89.1719 65.0625,87.0938 67.6875,87.0938 C68.5625,87.0938 69.1563,87.2344 70.0938,87.6719 Z "/><text fill="#000000" font-family="sans-serif" font-size="12" lengthAdjust="spacingAndGlyphs" textLength="49" x="81.75" y="96.1543">CLEvent</text><line style="stroke: #A80036; stroke-width: 1.5;" x1="53.75" x2="132.75" y1="108" y2="108"/><line style="stroke: #A80036; stroke-width: 1.5;" x1="53.75" x2="132.75" y1="116" y2="116"/><rect fill="#FEFECE" filter="url(#f1)" height="48" style="stroke: #A80036; stroke-width: 1.5;" width="110" x="38" y="184"/><ellipse cx="53" cy="200" fill="#ADD1B2" rx="11" ry="11" style="stroke: #A80036; stroke-width: 1.0;"/><path d="M55.3438,195.6719 L55.5156,195.75 C55.7344,195.4375 55.9375,195.3438 56.2344,195.3438 C56.5313,195.3438 56.8125,195.4844 56.9688,195.75 C57.0625,195.9063 57.0781,196.0313 57.0781,196.4688 L57.0781,197.8906 C57.0781,198.3125 57.0469,198.5 56.9375,198.6563 C56.7656,198.875 56.5,199.0156 56.2344,199.0156 C56.0156,199.0156 55.7813,198.9063 55.6406,198.7656 C55.5,198.6406 55.4688,198.5156 55.4063,198.1094 C55.3125,197.7031 55.1406,197.4844 54.6563,197.2031 C54.1875,196.9531 53.5781,196.7969 53,196.7969 C51.2656,196.7969 50.0156,198.1094 50.0156,199.8906 L50.0156,200.9844 C50.0156,202.6875 51.3125,203.7813 53.3594,203.7813 C54.125,203.7813 54.8125,203.6563 55.2344,203.3906 C55.4219,203.2969 55.4219,203.2969 55.875,202.8125 C56.0625,202.625 56.2656,202.5469 56.4844,202.5469 C56.9531,202.5469 57.3438,202.9375 57.3438,203.3906 C57.3438,203.7813 57.0156,204.2344 56.4375,204.6406 C55.6875,205.1875 54.5313,205.4844 53.3125,205.4844 C50.4219,205.4844 48.3125,203.5938 48.3125,201.0156 L48.3125,199.8906 C48.3125,197.1719 50.3125,195.0938 52.9375,195.0938 C53.8125,195.0938 54.4063,195.2344 55.3438,195.6719 Z "/><text fill="#000000" font-family="sans-serif" font-size="12" lengthAdjust="spacingAndGlyphs" textLength="78" x="67" y="204.1543">CLUserEvent</text><line style="stroke: #A80036; stroke-width: 1.5;" x1="39" x2="147" y1="216" y2="216"/><line style="stroke: #A80036; stroke-width: 1.5;" x1="39" x2="147" y1="224" y2="224"/><rect fill="#FEFECE" filter="url(#f1)" height="48" style="stroke: #A80036; stroke-width: 1.5;" width="85" x="131.75" y="408"/><ellipse cx="146.75" cy="424" fill="#ADD1B2" rx="11" ry="11" style="stroke: #A80036; stroke-width: 1.0;"/><path d="M149.0938,419.6719 L149.2656,419.75 C149.4844,419.4375 149.6875,419.3438 149.9844,419.3438 C150.2813,419.3438 150.5625,419.4844 150.7188,419.75 C150.8125,419.9063 150.8281,420.0313 150.8281,420.4688 L150.8281,421.8906 C150.8281,422.3125 150.7969,422.5 150.6875,422.6563 C150.5156,422.875 150.25,423.0156 149.9844,423.0156 C149.7656,423.0156 149.5313,422.9063 149.3906,422.7656 C149.25,422.6406 149.2188,422.5156 149.1563,422.1094 C149.0625,421.7031 148.8906,421.4844 148.4063,421.2031 C147.9375,420.9531 147.3281,420.7969 146.75,420.7969 C145.0156,420.7969 143.7656,422.1094 143.7656,423.8906 L143.7656,424.9844 C143.7656,426.6875 145.0625,427.7813 147.1094,427.7813 C147.875,427.7813 148.5625,427.6563 148.9844,427.3906 C149.1719,427.2969 149.1719,427.2969 149.625,426.8125 C149.8125,426.625 150.0156,426.5469 150.2344,426.5469 C150.7031,426.5469 151.0938,426.9375 151.0938,427.3906 C151.0938,427.7813 150.7656,428.2344 150.1875,428.6406 C149.4375,429.1875 148.2813,429.4844 147.0625,429.4844 C144.1719,429.4844 142.0625,427.5938 142.0625,425.0156 L142.0625,423.8906 C142.0625,421.1719 144.0625,419.0938 146.6875,419.0938 C147.5625,419.0938 148.1563,419.2344 149.0938,419.6719 Z "/><text fill="#000000" font-family="sans-serif" font-size="12" lengthAdjust="spacingAndGlyphs" textLength="53" x="160.75" y="428.1543">CLKernel</text><line style="stroke: #A80036; stroke-width: 1.5;" x1="132.75" x2="215.75" y1="440" y2="440"/><line style="stroke: #A80036; stroke-width: 1.5;" x1="132.75" x2="215.75" y1="448" y2="448"/><rect fill="#FEFECE" filter="url(#f1)" height="48" style="stroke: #A80036; stroke-width: 1.5;" width="145" x="101.75" y="516"/><ellipse cx="116.75" cy="532" fill="#B4A7E5" rx="11" ry="11" style="stroke: #A80036; stroke-width: 1.0;"/><path d="M117.7031,528.7813 L117.7031,535.2969 L119.4219,535.2969 C119.875,535.2969 120.0156,535.3281 120.1875,535.4531 C120.4219,535.625 120.5313,535.875 120.5313,536.1563 C120.5313,536.7188 120.1719,537 119.4219,537 L114.2813,537 C113.875,537 113.6719,536.9531 113.5156,536.8281 C113.2969,536.6719 113.1563,536.4063 113.1563,536.1563 C113.1563,535.8594 113.3125,535.5781 113.5625,535.4219 C113.7188,535.3125 113.8438,535.2969 114.2813,535.2969 L116,535.2969 L116,528.7813 L114.2813,528.7813 C113.8594,528.7813 113.6719,528.75 113.5156,528.6406 C113.2969,528.4688 113.1563,528.2188 113.1563,527.9375 C113.1563,527.6563 113.3125,527.3594 113.5625,527.2031 C113.7188,527.1094 113.8438,527.0938 114.2813,527.0938 L119.4219,527.0938 C119.875,527.0938 120.0156,527.125 120.1875,527.2344 C120.4219,527.4063 120.5313,527.6719 120.5313,527.9375 C120.5313,528.2344 120.3906,528.5156 120.125,528.6719 C120,528.75 119.8125,528.7813 119.4219,528.7813 Z "/><text fill="#000000" font-family="sans-serif" font-size="12" font-style="italic" lengthAdjust="spacingAndGlyphs" textLength="113" x="130.75" y="536.1543">CLMemoryHandler</text><line style="stroke: #A80036; stroke-width: 1.5;" x1="102.75" x2="245.75" y1="548" y2="548"/><line style="stroke: #A80036; stroke-width: 1.5;" x1="102.75" x2="245.75" y1="556" y2="556"/><rect fill="#FEFECE" filter="url(#f1)" height="48" style="stroke: #A80036; stroke-width: 1.5;" width="94" x="403" y="516"/><ellipse cx="418" cy="532" fill="#ADD1B2" rx="11" ry="11" style="stroke: #A80036; stroke-width: 1.0;"/><path d="M420.3438,527.6719 L420.5156,527.75 C420.7344,527.4375 420.9375,527.3438 421.2344,527.3438 C421.5313,527.3438 421.8125,527.4844 421.9688,527.75 C422.0625,527.9063 422.0781,528.0313 422.0781,528.4688 L422.0781,529.8906 C422.0781,530.3125 422.0469,530.5 421.9375,530.6563 C421.7656,530.875 421.5,531.0156 421.2344,531.0156 C421.0156,531.0156 420.7813,530.9063 420.6406,530.7656 C420.5,530.6406 420.4688,530.5156 420.4063,530.1094 C420.3125,529.7031 420.1406,529.4844 419.6563,529.2031 C419.1875,528.9531 418.5781,528.7969 418,528.7969 C416.2656,528.7969 415.0156,530.1094 415.0156,531.8906 L415.0156,532.9844 C415.0156,534.6875 416.3125,535.7813 418.3594,535.7813 C419.125,535.7813 419.8125,535.6563 420.2344,535.3906 C420.4219,535.2969 420.4219,535.2969 420.875,534.8125 C421.0625,534.625 421.2656,534.5469 421.4844,534.5469 C421.9531,534.5469 422.3438,534.9375 422.3438,535.3906 C422.3438,535.7813 422.0156,536.2344 421.4375,536.6406 C420.6875,537.1875 419.5313,537.4844 418.3125,537.4844 C415.4219,537.4844 413.3125,535.5938 413.3125,533.0156 L413.3125,531.8906 C413.3125,529.1719 415.3125,527.0938 417.9375,527.0938 C418.8125,527.0938 419.4063,527.2344 420.3438,527.6719 Z "/><text fill="#000000" font-family="sans-serif" font-size="12" lengthAdjust="spacingAndGlyphs" textLength="62" x="432" y="536.1543">CLMemory</text><line style="stroke: #A80036; stroke-width: 1.5;" x1="404" x2="496" y1="548" y2="548"/><line style="stroke: #A80036; stroke-width: 1.5;" x1="404" x2="496" y1="556" y2="556"/><rect fill="#FEFECE" filter="url(#f1)" height="48" style="stroke: #A80036; stroke-width: 1.5;" width="99" x="171.75" y="76"/><ellipse cx="186.75" cy="92" fill="#ADD1B2" rx="11" ry="11" style="stroke: #A80036; stroke-width: 1.0;"/><path d="M189.0938,87.6719 L189.2656,87.75 C189.4844,87.4375 189.6875,87.3438 189.9844,87.3438 C190.2813,87.3438 190.5625,87.4844 190.7188,87.75 C190.8125,87.9063 190.8281,88.0313 190.8281,88.4688 L190.8281,89.8906 C190.8281,90.3125 190.7969,90.5 190.6875,90.6563 C190.5156,90.875 190.25,91.0156 189.9844,91.0156 C189.7656,91.0156 189.5313,90.9063 189.3906,90.7656 C189.25,90.6406 189.2188,90.5156 189.1563,90.1094 C189.0625,89.7031 188.8906,89.4844 188.4063,89.2031 C187.9375,88.9531 187.3281,88.7969 186.75,88.7969 C185.0156,88.7969 183.7656,90.1094 183.7656,91.8906 L183.7656,92.9844 C183.7656,94.6875 185.0625,95.7813 187.1094,95.7813 C187.875,95.7813 188.5625,95.6563 188.9844,95.3906 C189.1719,95.2969 189.1719,95.2969 189.625,94.8125 C189.8125,94.625 190.0156,94.5469 190.2344,94.5469 C190.7031,94.5469 191.0938,94.9375 191.0938,95.3906 C191.0938,95.7813 190.7656,96.2344 190.1875,96.6406 C189.4375,97.1875 188.2813,97.4844 187.0625,97.4844 C184.1719,97.4844 182.0625,95.5938 182.0625,93.0156 L182.0625,91.8906 C182.0625,89.1719 184.0625,87.0938 186.6875,87.0938 C187.5625,87.0938 188.1563,87.2344 189.0938,87.6719 Z "/><text fill="#000000" font-family="sans-serif" font-size="12" lengthAdjust="spacingAndGlyphs" textLength="67" x="200.75" y="96.1543">CLProgram</text><line style="stroke: #A80036; stroke-width: 1.5;" x1="172.75" x2="269.75" y1="108" y2="108"/><line style="stroke: #A80036; stroke-width: 1.5;" x1="172.75" x2="269.75" y1="116" y2="116"/><rect fill="#FEFECE" filter="url(#f1)" height="48" style="stroke: #A80036; stroke-width: 1.5;" width="117" x="358.75" y="76"/><ellipse cx="373.75" cy="92" fill="#B4A7E5" rx="11" ry="11" style="stroke: #A80036; stroke-width: 1.0;"/><path d="M374.7031,88.7813 L374.7031,95.2969 L376.4219,95.2969 C376.875,95.2969 377.0156,95.3281 377.1875,95.4531 C377.4219,95.625 377.5313,95.875 377.5313,96.1563 C377.5313,96.7188 377.1719,97 376.4219,97 L371.2813,97 C370.875,97 370.6719,96.9531 370.5156,96.8281 C370.2969,96.6719 370.1563,96.4063 370.1563,96.1563 C370.1563,95.8594 370.3125,95.5781 370.5625,95.4219 C370.7188,95.3125 370.8438,95.2969 371.2813,95.2969 L373,95.2969 L373,88.7813 L371.2813,88.7813 C370.8594,88.7813 370.6719,88.75 370.5156,88.6406 C370.2969,88.4688 370.1563,88.2188 370.1563,87.9375 C370.1563,87.6563 370.3125,87.3594 370.5625,87.2031 C370.7188,87.1094 370.8438,87.0938 371.2813,87.0938 L376.4219,87.0938 C376.875,87.0938 377.0156,87.125 377.1875,87.2344 C377.4219,87.4063 377.5313,87.6719 377.5313,87.9375 C377.5313,88.2344 377.3906,88.5156 377.125,88.6719 C377,88.75 376.8125,88.7813 376.4219,88.7813 Z "/><text fill="#000000" font-family="sans-serif" font-size="12" font-style="italic" lengthAdjust="spacingAndGlyphs" textLength="85" x="387.75" y="96.1543">CLBuildOption</text><line style="stroke: #A80036; stroke-width: 1.5;" x1="359.75" x2="474.75" y1="108" y2="108"/><line style="stroke: #A80036; stroke-width: 1.5;" x1="359.75" x2="474.75" y1="116" y2="116"/><rect fill="#FEFECE" filter="url(#f1)" height="48" style="stroke: #A80036; stroke-width: 1.5;" width="109" x="251.75" y="408"/><ellipse cx="266.75" cy="424" fill="#ADD1B2" rx="11" ry="11" style="stroke: #A80036; stroke-width: 1.0;"/><path d="M269.0938,419.6719 L269.2656,419.75 C269.4844,419.4375 269.6875,419.3438 269.9844,419.3438 C270.2813,419.3438 270.5625,419.4844 270.7188,419.75 C270.8125,419.9063 270.8281,420.0313 270.8281,420.4688 L270.8281,421.8906 C270.8281,422.3125 270.7969,422.5 270.6875,422.6563 C270.5156,422.875 270.25,423.0156 269.9844,423.0156 C269.7656,423.0156 269.5313,422.9063 269.3906,422.7656 C269.25,422.6406 269.2188,422.5156 269.1563,422.1094 C269.0625,421.7031 268.8906,421.4844 268.4063,421.2031 C267.9375,420.9531 267.3281,420.7969 266.75,420.7969 C265.0156,420.7969 263.7656,422.1094 263.7656,423.8906 L263.7656,424.9844 C263.7656,426.6875 265.0625,427.7813 267.1094,427.7813 C267.875,427.7813 268.5625,427.6563 268.9844,427.3906 C269.1719,427.2969 269.1719,427.2969 269.625,426.8125 C269.8125,426.625 270.0156,426.5469 270.2344,426.5469 C270.7031,426.5469 271.0938,426.9375 271.0938,427.3906 C271.0938,427.7813 270.7656,428.2344 270.1875,428.6406 C269.4375,429.1875 268.2813,429.4844 267.0625,429.4844 C264.1719,429.4844 262.0625,427.5938 262.0625,425.0156 L262.0625,423.8906 C262.0625,421.1719 264.0625,419.0938 266.6875,419.0938 C267.5625,419.0938 268.1563,419.2344 269.0938,419.6719 Z "/><text fill="#000000" font-family="sans-serif" font-size="12" lengthAdjust="spacingAndGlyphs" textLength="77" x="280.75" y="428.1543">CLGLContext</text><line style="stroke: #A80036; stroke-width: 1.5;" x1="252.75" x2="359.75" y1="440" y2="440"/><line style="stroke: #A80036; stroke-width: 1.5;" x1="252.75" x2="359.75" y1="448" y2="448"/><rect fill="#FEFECE" filter="url(#f1)" height="48" style="stroke: #A80036; stroke-width: 1.5;" width="109" x="395.75" y="408"/><ellipse cx="410.75" cy="424" fill="#ADD1B2" rx="11" ry="11" style="stroke: #A80036; stroke-width: 1.0;"/><path d="M413.0938,419.6719 L413.2656,419.75 C413.4844,419.4375 413.6875,419.3438 413.9844,419.3438 C414.2813,419.3438 414.5625,419.4844 414.7188,419.75 C414.8125,419.9063 414.8281,420.0313 414.8281,420.4688 L414.8281,421.8906 C414.8281,422.3125 414.7969,422.5 414.6875,422.6563 C414.5156,422.875 414.25,423.0156 413.9844,423.0156 C413.7656,423.0156 413.5313,422.9063 413.3906,422.7656 C413.25,422.6406 413.2188,422.5156 413.1563,422.1094 C413.0625,421.7031 412.8906,421.4844 412.4063,421.2031 C411.9375,420.9531 411.3281,420.7969 410.75,420.7969 C409.0156,420.7969 407.7656,422.1094 407.7656,423.8906 L407.7656,424.9844 C407.7656,426.6875 409.0625,427.7813 411.1094,427.7813 C411.875,427.7813 412.5625,427.6563 412.9844,427.3906 C413.1719,427.2969 413.1719,427.2969 413.625,426.8125 C413.8125,426.625 414.0156,426.5469 414.2344,426.5469 C414.7031,426.5469 415.0938,426.9375 415.0938,427.3906 C415.0938,427.7813 414.7656,428.2344 414.1875,428.6406 C413.4375,429.1875 412.2813,429.4844 411.0625,429.4844 C408.1719,429.4844 406.0625,427.5938 406.0625,425.0156 L406.0625,423.8906 C406.0625,421.1719 408.0625,419.0938 410.6875,419.0938 C411.5625,419.0938 412.1563,419.2344 413.0938,419.6719 Z "/><text fill="#000000" font-family="sans-serif" font-size="12" lengthAdjust="spacingAndGlyphs" textLength="77" x="424.75" y="428.1543">CLGLMemory</text><line style="stroke: #A80036; stroke-width: 1.5;" x1="396.75" x2="503.75" y1="440" y2="440"/><line style="stroke: #A80036; stroke-width: 1.5;" x1="396.75" x2="503.75" y1="448" y2="448"/><path d="M326.858,245.338 C324.687,260.681 322.222,278.098 320.3,291.678 " fill="none" style="stroke: #A80036; stroke-width: 1.0;"/><polygon fill="#A80036" points="328.745,232,323.9438,237.3804,327.0636,243.8816,331.8649,238.5013,328.745,232" style="stroke: #A80036; stroke-width: 1.0;"/><path d="M419.648,208 C427.003,208 434.358,208 441.713,208 " fill="none" style="stroke: #A80036; stroke-width: 1.0;"/><polygon fill="#A80036" points="406.408,208,412.408,212,418.408,208,412.408,204,406.408,208" style="stroke: #A80036; stroke-width: 1.0;"/><path d="M377.252,316 C391.46,316 405.668,316 419.876,316 " fill="none" style="stroke: #A80036; stroke-width: 1.0;"/><polygon fill="#A80036" points="364.203,316,370.203,320,376.203,316,370.203,312,364.203,316" style="stroke: #A80036; stroke-width: 1.0;"/><path d="M364.675,284.919 C391.308,268.115 423.974,247.504 448.547,232 " fill="none" style="stroke: #A80036; stroke-width: 1.0;"/><polygon fill="#A80036" points="353.672,291.862,360.8808,292.0438,363.8212,285.4594,356.6124,285.2776,353.672,291.862" style="stroke: #A80036; stroke-width: 1.0;"/><path d="M93,144.024 C93,157.579 93,172.038 93,183.678 " fill="none" style="stroke: #A80036; stroke-width: 1.0;"/><polygon fill="none" points="86.0001,144,93,124,100.0001,144,86.0001,144" style="stroke: #A80036; stroke-width: 1.0;"/><path d="M174,461.131 C174,478.154 174,499.6037 174,515.6784 " fill="none" style="stroke: #A80036; stroke-width: 1.0; stroke-dasharray: 7.0,7.0;"/><polygon fill="#A80036" points="174,456,170,465,174,461,178,465,174,456" style="stroke: #A80036; stroke-width: 1.0;"/><path d="M275.551,100 C303.228,100 330.905,100 358.582,100 " fill="none" style="stroke: #A80036; stroke-width: 1.0; stroke-dasharray: 7.0,7.0;"/><polygon fill="#A80036" points="270.383,100,279.383,104,275.383,100,279.383,96,270.383,100" style="stroke: #A80036; stroke-width: 1.0;"/><path d="M215.853,137.136 C206.143,205.315 185.371,351.162 177.301,407.821 " fill="none" style="stroke: #A80036; stroke-width: 1.0;"/><polygon fill="#A80036" points="217.695,124.205,212.8884,129.5806,216.0018,136.0849,220.8084,130.7094,217.695,124.205" style="stroke: #A80036; stroke-width: 1.0;"/><path d="M220.551,137.673 C221.554,164.918 225.819,202.338 240,232 C251.191,255.408 271.313,276.743 288.181,291.92 " fill="none" style="stroke: #A80036; stroke-width: 1.0;"/><polygon fill="#A80036" points="220.288,124.449,216.4075,130.5269,220.5253,136.4467,224.4059,130.3687,220.288,124.449" style="stroke: #A80036; stroke-width: 1.0;"/><path d="M282.645,125.751 C331.419,145.335 398.299,172.188 441.583,189.567 " fill="none" style="stroke: #A80036; stroke-width: 1.0;"/><polygon fill="#A80036" points="270.347,120.813,274.4244,126.7607,281.4828,125.2845,277.4054,119.3368,270.347,120.813" style="stroke: #A80036; stroke-width: 1.0;"/><path d="M259.622,540 C307.316,540 355.009,540 402.703,540 " fill="none" style="stroke: #A80036; stroke-width: 1.0;"/><polygon fill="#A80036" points="246.504,540,252.504,544,258.504,540,252.504,536,246.504,540" style="stroke: #A80036; stroke-width: 1.0;"/><path d="M450,456 C450,467.588 450,482.029 450,495.601 " fill="none" style="stroke: #A80036; stroke-width: 1.0;"/><polygon fill="none" points="457,495.678,450,515.6784,443,495.678,457,495.678" style="stroke: #A80036; stroke-width: 1.0;"/><path d="M312.846,360.05 C311.276,376.326 309.549,394.219 308.223,407.965 " fill="none" style="stroke: #A80036; stroke-width: 1.0;"/><polygon fill="none" points="305.885,359.305,314.774,340.07,319.821,360.649,305.885,359.305" style="stroke: #A80036; stroke-width: 1.0;"/></g></svg>