<?xml version="1.0" encoding="UTF-8" standalone="yes"?><svg xmlns="http://www.w3.org/2000/svg" xmlns:xlink="http://www.w3.org/1999/xlink" height="693pt" style="width:1098px;height:693px;" version="1.1" viewBox="0 0 1098 693" width="1098pt"><defs><filter height="300%" id="f1" width="300%" x="-1" y="-1"><feGaussianBlur result="blurOut" stdDeviation="2.0"/><feColorMatrix in="blurOut" result="blurOut2" type="matrix" values="0 0 0 0 0 0 0 0 0 0 0 0 0 0 0 0 0 0 .4 0"/><feOffset dx="4.0" dy="4.0" in="blurOut2" result="blurOut3"/><feBlend in="SourceGraphic" in2="blurOut3" mode="normal"/></filter></defs><g><rect fill="#FFFFFF" filter="url(#f1)" height="662" style="stroke: #000000; stroke-width: 2.0;" width="1069" x="22" y="24"/><path d="M79,25 L79,33.2969 L69,43.2969 L22,43.2969 " fill="#FFFFFF" style="stroke: #000000; stroke-width: 2.0;"/><text fill="#000000" font-family="sans-serif" font-size="14" font-weight="bold" lengthAdjust="spacingAndGlyphs" textLength="47" x="25" y="36.9951">des.cl</text><rect fill="#FFFFFF" filter="url(#f1)" height="116" style="stroke: #000000; stroke-width: 2.0;" width="286" x="623" y="390"/><path d="M699,391 L699,399.2969 L689,409.2969 L623,409.2969 " fill="#FFFFFF" style="stroke: #000000; stroke-width: 2.0;"/><text fill="#000000" font-family="sans-serif" font-size="14" font-weight="bold" lengthAdjust="spacingAndGlyphs" textLength="66" x="626" y="402.9951">des.cl.gl</text><rect fill="#FEFECE" filter="url(#f1)" height="112.0234" style="stroke: #A80036; stroke-width: 1.5;" width="149" x="925.75" y="76"/><ellipse cx="940.75" cy="92" fill="#ADD1B2" rx="11" ry="11" style="stroke: #A80036; stroke-width: 1.0;"/><path d="M943.0938,87.6719 L943.2656,87.75 C943.4844,87.4375 943.6875,87.3438 943.9844,87.3438 C944.2813,87.3438 944.5625,87.4844 944.7188,87.75 C944.8125,87.9063 944.8281,88.0313 944.8281,88.4688 L944.8281,89.8906 C944.8281,90.3125 944.7969,90.5 944.6875,90.6563 C944.5156,90.875 944.25,91.0156 943.9844,91.0156 C943.7656,91.0156 943.5313,90.9063 943.3906,90.7656 C943.25,90.6406 943.2188,90.5156 943.1563,90.1094 C943.0625,89.7031 942.8906,89.4844 942.4063,89.2031 C941.9375,88.9531 941.3281,88.7969 940.75,88.7969 C939.0156,88.7969 937.7656,90.1094 937.7656,91.8906 L937.7656,92.9844 C937.7656,94.6875 939.0625,95.7813 941.1094,95.7813 C941.875,95.7813 942.5625,95.6563 942.9844,95.3906 C943.1719,95.2969 943.1719,95.2969 943.625,94.8125 C943.8125,94.625 944.0156,94.5469 944.2344,94.5469 C944.7031,94.5469 945.0938,94.9375 945.0938,95.3906 C945.0938,95.7813 944.7656,96.2344 944.1875,96.6406 C943.4375,97.1875 942.2813,97.4844 941.0625,97.4844 C938.1719,97.4844 936.0625,95.5938 936.0625,93.0156 L936.0625,91.8906 C936.0625,89.1719 938.0625,87.0938 940.6875,87.0938 C941.5625,87.0938 942.1563,87.2344 943.0938,87.6719 Z "/><text fill="#000000" font-family="sans-serif" font-size="12" lengthAdjust="spacingAndGlyphs" textLength="117" x="954.75" y="96.1543">CLCommandQueue</text><line style="stroke: #A80036; stroke-width: 1.5;" x1="926.75" x2="1073.75" y1="108" y2="108"/><ellipse cx="936.75" cy="119.9023" fill="none" rx="3" ry="3" style="stroke: #038048; stroke-width: 1.0;"/><text fill="#000000" font-family="sans-serif" font-size="11" lengthAdjust="spacingAndGlyphs" textLength="110" x="945.75" y="122.2104">context : CLContext</text><ellipse cx="936.75" cy="132.707" fill="none" rx="3" ry="3" style="stroke: #038048; stroke-width: 1.0;"/><text fill="#000000" font-family="sans-serif" font-size="11" lengthAdjust="spacingAndGlyphs" textLength="99" x="945.75" y="135.0151">device : CLDevice</text><line style="stroke: #A80036; stroke-width: 1.0;" x1="926.75" x2="1073.75" y1="141.6094" y2="141.6094"/><ellipse cx="936.75" cy="153.5117" fill="#84BE84" rx="3" ry="3" style="stroke: #038048; stroke-width: 1.0;"/><text fill="#000000" font-family="sans-serif" font-size="11" lengthAdjust="spacingAndGlyphs" textLength="71" x="945.75" y="155.8198">flush() : void</text><ellipse cx="936.75" cy="166.3164" fill="#84BE84" rx="3" ry="3" style="stroke: #038048; stroke-width: 1.0;"/><text fill="#000000" font-family="sans-serif" font-size="11" lengthAdjust="spacingAndGlyphs" textLength="74" x="945.75" y="168.6245">finish() : void</text><ellipse cx="936.75" cy="179.1211" fill="#84BE84" rx="3" ry="3" style="stroke: #038048; stroke-width: 1.0;"/><text fill="#000000" font-family="sans-serif" font-size="11" lengthAdjust="spacingAndGlyphs" textLength="82" x="945.75" y="181.4292">barrier() : void</text><rect fill="#FEFECE" filter="url(#f1)" height="99.2188" style="stroke: #A80036; stroke-width: 1.5;" width="510" x="520" y="248.5"/><ellipse cx="739.75" cy="264.5" fill="#ADD1B2" rx="11" ry="11" style="stroke: #A80036; stroke-width: 1.0;"/><path d="M742.0938,260.1719 L742.2656,260.25 C742.4844,259.9375 742.6875,259.8438 742.9844,259.8438 C743.2813,259.8438 743.5625,259.9844 743.7188,260.25 C743.8125,260.4063 743.8281,260.5313 743.8281,260.9688 L743.8281,262.3906 C743.8281,262.8125 743.7969,263 743.6875,263.1563 C743.5156,263.375 743.25,263.5156 742.9844,263.5156 C742.7656,263.5156 742.5313,263.4063 742.3906,263.2656 C742.25,263.1406 742.2188,263.0156 742.1563,262.6094 C742.0625,262.2031 741.8906,261.9844 741.4063,261.7031 C740.9375,261.4531 740.3281,261.2969 739.75,261.2969 C738.0156,261.2969 736.7656,262.6094 736.7656,264.3906 L736.7656,265.4844 C736.7656,267.1875 738.0625,268.2813 740.1094,268.2813 C740.875,268.2813 741.5625,268.1563 741.9844,267.8906 C742.1719,267.7969 742.1719,267.7969 742.625,267.3125 C742.8125,267.125 743.0156,267.0469 743.2344,267.0469 C743.7031,267.0469 744.0938,267.4375 744.0938,267.8906 C744.0938,268.2813 743.7656,268.7344 743.1875,269.1406 C742.4375,269.6875 741.2813,269.9844 740.0625,269.9844 C737.1719,269.9844 735.0625,268.0938 735.0625,265.5156 L735.0625,264.3906 C735.0625,261.6719 737.0625,259.5938 739.6875,259.5938 C740.5625,259.5938 741.1563,259.7344 742.0938,260.1719 Z "/><text fill="#000000" font-family="sans-serif" font-size="12" lengthAdjust="spacingAndGlyphs" textLength="62" x="760.25" y="268.6543">CLContext</text><line style="stroke: #A80036; stroke-width: 1.5;" x1="521" x2="1029" y1="280.5" y2="280.5"/><ellipse cx="531" cy="292.4023" fill="none" rx="3" ry="3" style="stroke: #038048; stroke-width: 1.0;"/><text fill="#000000" font-family="sans-serif" font-size="11" lengthAdjust="spacingAndGlyphs" textLength="122" x="540" y="294.7104">platform : CLPlatform</text><ellipse cx="531" cy="305.207" fill="none" rx="3" ry="3" style="stroke: #038048; stroke-width: 1.0;"/><text fill="#000000" font-family="sans-serif" font-size="11" lengthAdjust="spacingAndGlyphs" textLength="114" x="540" y="307.5151">devices : CLDevice[]</text><line style="stroke: #A80036; stroke-width: 1.0;" x1="521" x2="1029" y1="314.1094" y2="314.1094"/><ellipse cx="531" cy="326.0117" fill="#84BE84" rx="3" ry="3" style="stroke: #038048; stroke-width: 1.0;"/><text fill="#000000" font-family="sans-serif" font-size="11" lengthAdjust="spacingAndGlyphs" textLength="360" x="540" y="328.3198">buildProgram( string source, CLBuildOption[] opt ) : CLProgram</text><ellipse cx="531" cy="338.8164" fill="#84BE84" rx="3" ry="3" style="stroke: #038048; stroke-width: 1.0;"/><text fill="#000000" font-family="sans-serif" font-size="11" lengthAdjust="spacingAndGlyphs" textLength="484" x="540" y="341.1245">createQueue( CLCommandQueue.Properties[] prop, size_t dev ) : CLCommandQueue</text><rect fill="#FEFECE" filter="url(#f1)" height="60.8047" style="stroke: #A80036; stroke-width: 1.5;" width="241" x="363.75" y="435.5"/><ellipse cx="452.5" cy="451.5" fill="#ADD1B2" rx="11" ry="11" style="stroke: #A80036; stroke-width: 1.0;"/><path d="M454.8438,447.1719 L455.0156,447.25 C455.2344,446.9375 455.4375,446.8438 455.7344,446.8438 C456.0313,446.8438 456.3125,446.9844 456.4688,447.25 C456.5625,447.4063 456.5781,447.5313 456.5781,447.9688 L456.5781,449.3906 C456.5781,449.8125 456.5469,450 456.4375,450.1563 C456.2656,450.375 456,450.5156 455.7344,450.5156 C455.5156,450.5156 455.2813,450.4063 455.1406,450.2656 C455,450.1406 454.9688,450.0156 454.9063,449.6094 C454.8125,449.2031 454.6406,448.9844 454.1563,448.7031 C453.6875,448.4531 453.0781,448.2969 452.5,448.2969 C450.7656,448.2969 449.5156,449.6094 449.5156,451.3906 L449.5156,452.4844 C449.5156,454.1875 450.8125,455.2813 452.8594,455.2813 C453.625,455.2813 454.3125,455.1563 454.7344,454.8906 C454.9219,454.7969 454.9219,454.7969 455.375,454.3125 C455.5625,454.125 455.7656,454.0469 455.9844,454.0469 C456.4531,454.0469 456.8438,454.4375 456.8438,454.8906 C456.8438,455.2813 456.5156,455.7344 455.9375,456.1406 C455.1875,456.6875 454.0313,456.9844 452.8125,456.9844 C449.9219,456.9844 447.8125,455.0938 447.8125,452.5156 L447.8125,451.3906 C447.8125,448.6719 449.8125,446.5938 452.4375,446.5938 C453.3125,446.5938 453.9063,446.7344 454.8438,447.1719 Z "/><text fill="#000000" font-family="sans-serif" font-size="12" lengthAdjust="spacingAndGlyphs" textLength="55" x="473" y="455.6543">CLDevice</text><line style="stroke: #A80036; stroke-width: 1.5;" x1="364.75" x2="603.75" y1="467.5" y2="467.5"/><line style="stroke: #A80036; stroke-width: 1.5;" x1="364.75" x2="603.75" y1="475.5" y2="475.5"/><ellipse cx="374.75" cy="487.4023" fill="#84BE84" rx="3" ry="3" style="stroke: #038048; stroke-width: 1.0;"/><text fill="#000000" font-family="sans-serif" font-size="11" lengthAdjust="spacingAndGlyphs" text-decoration="underline" textLength="215" x="383.75" y="489.7104">getAll( CLPlatform, Type ) : CLDevice[]</text><line style="stroke: #000000; stroke-width: 1.0;" x1="383.75" x2="598.75" y1="491.7104" y2="491.7104"/><rect fill="#FEFECE" filter="url(#f1)" height="73.6094" style="stroke: #A80036; stroke-width: 1.5;" width="147" x="927.75" y="429"/><ellipse cx="964.8" cy="445" fill="#ADD1B2" rx="11" ry="11" style="stroke: #A80036; stroke-width: 1.0;"/><path d="M967.1438,440.6719 L967.3156,440.75 C967.5344,440.4375 967.7375,440.3438 968.0344,440.3438 C968.3313,440.3438 968.6125,440.4844 968.7688,440.75 C968.8625,440.9063 968.8781,441.0313 968.8781,441.4688 L968.8781,442.8906 C968.8781,443.3125 968.8469,443.5 968.7375,443.6563 C968.5656,443.875 968.3,444.0156 968.0344,444.0156 C967.8156,444.0156 967.5813,443.9063 967.4406,443.7656 C967.3,443.6406 967.2688,443.5156 967.2063,443.1094 C967.1125,442.7031 966.9406,442.4844 966.4563,442.2031 C965.9875,441.9531 965.3781,441.7969 964.8,441.7969 C963.0656,441.7969 961.8156,443.1094 961.8156,444.8906 L961.8156,445.9844 C961.8156,447.6875 963.1125,448.7813 965.1594,448.7813 C965.925,448.7813 966.6125,448.6563 967.0344,448.3906 C967.2219,448.2969 967.2219,448.2969 967.675,447.8125 C967.8625,447.625 968.0656,447.5469 968.2844,447.5469 C968.7531,447.5469 969.1438,447.9375 969.1438,448.3906 C969.1438,448.7813 968.8156,449.2344 968.2375,449.6406 C967.4875,450.1875 966.3313,450.4844 965.1125,450.4844 C962.2219,450.4844 960.1125,448.5938 960.1125,446.0156 L960.1125,444.8906 C960.1125,442.1719 962.1125,440.0938 964.7375,440.0938 C965.6125,440.0938 966.2063,440.2344 967.1438,440.6719 Z "/><text fill="#000000" font-family="sans-serif" font-size="12" lengthAdjust="spacingAndGlyphs" textLength="66" x="983.7" y="449.1543">CLPlatform</text><line style="stroke: #A80036; stroke-width: 1.5;" x1="928.75" x2="1073.75" y1="461" y2="461"/><ellipse cx="938.75" cy="472.9023" fill="none" rx="3" ry="3" style="stroke: #038048; stroke-width: 1.0;"/><text fill="#000000" font-family="sans-serif" font-size="11" lengthAdjust="spacingAndGlyphs" textLength="114" x="947.75" y="475.2104">devices : CLDevice[]</text><line style="stroke: #A80036; stroke-width: 1.5;" x1="928.75" x2="1073.75" y1="481.8047" y2="481.8047"/><ellipse cx="938.75" cy="493.707" fill="#84BE84" rx="3" ry="3" style="stroke: #038048; stroke-width: 1.0;"/><text fill="#000000" font-family="sans-serif" font-size="11" lengthAdjust="spacingAndGlyphs" text-decoration="underline" textLength="121" x="947.75" y="496.0151">getAll() : CLPlatform[]</text><line style="stroke: #000000; stroke-width: 1.0;" x1="947.75" x2="1068.75" y1="498.0151" y2="498.0151"/><rect fill="#FEFECE" filter="url(#f1)" height="48" style="stroke: #A80036; stroke-width: 1.5;" width="81" x="38.75" y="108"/><ellipse cx="53.75" cy="124" fill="#ADD1B2" rx="11" ry="11" style="stroke: #A80036; stroke-width: 1.0;"/><path d="M56.0938,119.6719 L56.2656,119.75 C56.4844,119.4375 56.6875,119.3438 56.9844,119.3438 C57.2813,119.3438 57.5625,119.4844 57.7188,119.75 C57.8125,119.9063 57.8281,120.0313 57.8281,120.4688 L57.8281,121.8906 C57.8281,122.3125 57.7969,122.5 57.6875,122.6563 C57.5156,122.875 57.25,123.0156 56.9844,123.0156 C56.7656,123.0156 56.5313,122.9063 56.3906,122.7656 C56.25,122.6406 56.2188,122.5156 56.1563,122.1094 C56.0625,121.7031 55.8906,121.4844 55.4063,121.2031 C54.9375,120.9531 54.3281,120.7969 53.75,120.7969 C52.0156,120.7969 50.7656,122.1094 50.7656,123.8906 L50.7656,124.9844 C50.7656,126.6875 52.0625,127.7813 54.1094,127.7813 C54.875,127.7813 55.5625,127.6563 55.9844,127.3906 C56.1719,127.2969 56.1719,127.2969 56.625,126.8125 C56.8125,126.625 57.0156,126.5469 57.2344,126.5469 C57.7031,126.5469 58.0938,126.9375 58.0938,127.3906 C58.0938,127.7813 57.7656,128.2344 57.1875,128.6406 C56.4375,129.1875 55.2813,129.4844 54.0625,129.4844 C51.1719,129.4844 49.0625,127.5938 49.0625,125.0156 L49.0625,123.8906 C49.0625,121.1719 51.0625,119.0938 53.6875,119.0938 C54.5625,119.0938 55.1563,119.2344 56.0938,119.6719 Z "/><text fill="#000000" font-family="sans-serif" font-size="12" lengthAdjust="spacingAndGlyphs" textLength="49" x="67.75" y="128.1543">CLEvent</text><line style="stroke: #A80036; stroke-width: 1.5;" x1="39.75" x2="118.75" y1="140" y2="140"/><line style="stroke: #A80036; stroke-width: 1.5;" x1="39.75" x2="118.75" y1="148" y2="148"/><rect fill="#FEFECE" filter="url(#f1)" height="48" style="stroke: #A80036; stroke-width: 1.5;" width="110" x="38" y="274"/><ellipse cx="53" cy="290" fill="#ADD1B2" rx="11" ry="11" style="stroke: #A80036; stroke-width: 1.0;"/><path d="M55.3438,285.6719 L55.5156,285.75 C55.7344,285.4375 55.9375,285.3438 56.2344,285.3438 C56.5313,285.3438 56.8125,285.4844 56.9688,285.75 C57.0625,285.9063 57.0781,286.0313 57.0781,286.4688 L57.0781,287.8906 C57.0781,288.3125 57.0469,288.5 56.9375,288.6563 C56.7656,288.875 56.5,289.0156 56.2344,289.0156 C56.0156,289.0156 55.7813,288.9063 55.6406,288.7656 C55.5,288.6406 55.4688,288.5156 55.4063,288.1094 C55.3125,287.7031 55.1406,287.4844 54.6563,287.2031 C54.1875,286.9531 53.5781,286.7969 53,286.7969 C51.2656,286.7969 50.0156,288.1094 50.0156,289.8906 L50.0156,290.9844 C50.0156,292.6875 51.3125,293.7813 53.3594,293.7813 C54.125,293.7813 54.8125,293.6563 55.2344,293.3906 C55.4219,293.2969 55.4219,293.2969 55.875,292.8125 C56.0625,292.625 56.2656,292.5469 56.4844,292.5469 C56.9531,292.5469 57.3438,292.9375 57.3438,293.3906 C57.3438,293.7813 57.0156,294.2344 56.4375,294.6406 C55.6875,295.1875 54.5313,295.4844 53.3125,295.4844 C50.4219,295.4844 48.3125,293.5938 48.3125,291.0156 L48.3125,289.8906 C48.3125,287.1719 50.3125,285.0938 52.9375,285.0938 C53.8125,285.0938 54.4063,285.2344 55.3438,285.6719 Z "/><text fill="#000000" font-family="sans-serif" font-size="12" lengthAdjust="spacingAndGlyphs" textLength="78" x="67" y="294.1543">CLUserEvent</text><line style="stroke: #A80036; stroke-width: 1.5;" x1="39" x2="147" y1="306" y2="306"/><line style="stroke: #A80036; stroke-width: 1.5;" x1="39" x2="147" y1="314" y2="314"/><rect fill="#FEFECE" filter="url(#f1)" height="116.0234" style="stroke: #A80036; stroke-width: 1.5;" width="241" x="87.75" y="408"/><ellipse cx="177.5" cy="424" fill="#ADD1B2" rx="11" ry="11" style="stroke: #A80036; stroke-width: 1.0;"/><path d="M179.8438,419.6719 L180.0156,419.75 C180.2344,419.4375 180.4375,419.3438 180.7344,419.3438 C181.0313,419.3438 181.3125,419.4844 181.4688,419.75 C181.5625,419.9063 181.5781,420.0313 181.5781,420.4688 L181.5781,421.8906 C181.5781,422.3125 181.5469,422.5 181.4375,422.6563 C181.2656,422.875 181,423.0156 180.7344,423.0156 C180.5156,423.0156 180.2813,422.9063 180.1406,422.7656 C180,422.6406 179.9688,422.5156 179.9063,422.1094 C179.8125,421.7031 179.6406,421.4844 179.1563,421.2031 C178.6875,420.9531 178.0781,420.7969 177.5,420.7969 C175.7656,420.7969 174.5156,422.1094 174.5156,423.8906 L174.5156,424.9844 C174.5156,426.6875 175.8125,427.7813 177.8594,427.7813 C178.625,427.7813 179.3125,427.6563 179.7344,427.3906 C179.9219,427.2969 179.9219,427.2969 180.375,426.8125 C180.5625,426.625 180.7656,426.5469 180.9844,426.5469 C181.4531,426.5469 181.8438,426.9375 181.8438,427.3906 C181.8438,427.7813 181.5156,428.2344 180.9375,428.6406 C180.1875,429.1875 179.0313,429.4844 177.8125,429.4844 C174.9219,429.4844 172.8125,427.5938 172.8125,425.0156 L172.8125,423.8906 C172.8125,421.1719 174.8125,419.0938 177.4375,419.0938 C178.3125,419.0938 178.9063,419.2344 179.8438,419.6719 Z "/><text fill="#000000" font-family="sans-serif" font-size="12" lengthAdjust="spacingAndGlyphs" textLength="53" x="198" y="428.1543">CLKernel</text><line style="stroke: #A80036; stroke-width: 1.5;" x1="88.75" x2="327.75" y1="440" y2="440"/><ellipse cx="98.75" cy="468.707" fill="none" rx="3" ry="3" style="stroke: #038048; stroke-width: 1.0;"/><text fill="#000000" font-family="sans-serif" font-size="11" lengthAdjust="spacingAndGlyphs" textLength="121" x="107.75" y="471.0151">name : string { get }</text><line style="stroke: #A80036; stroke-width: 1.0;" x1="88.75" x2="178.25" y1="454.4023" y2="454.4023"/><text fill="#000000" font-family="sans-serif" font-size="11" lengthAdjust="spacingAndGlyphs" textLength="60" x="178.25" y="457.7104">@property</text><line style="stroke: #A80036; stroke-width: 1.0;" x1="238.25" x2="327.75" y1="454.4023" y2="454.4023"/><line style="stroke: #A80036; stroke-width: 1.0;" x1="88.75" x2="327.75" y1="477.6094" y2="477.6094"/><ellipse cx="98.75" cy="489.5117" fill="#84BE84" rx="3" ry="3" style="stroke: #038048; stroke-width: 1.0;"/><text fill="#000000" font-family="sans-serif" font-size="11" lengthAdjust="spacingAndGlyphs" textLength="197" x="107.75" y="491.8198">setArgs(Args...)( Args args ) : void</text><ellipse cx="98.75" cy="502.3164" fill="#84BE84" rx="3" ry="3" style="stroke: #038048; stroke-width: 1.0;"/><text fill="#000000" font-family="sans-serif" font-size="11" lengthAdjust="spacingAndGlyphs" textLength="215" x="107.75" y="504.6245">setQueue( CLCommandQueue ) : void</text><ellipse cx="98.75" cy="515.1211" fill="#84BE84" rx="3" ry="3" style="stroke: #038048; stroke-width: 1.0;"/><text fill="#000000" font-family="sans-serif" font-size="11" lengthAdjust="spacingAndGlyphs" textLength="180" x="107.75" y="517.4292">exec( CLEvent[] wait_list ) : void</text><rect fill="#FEFECE" filter="url(#f1)" height="48" style="stroke: #A80036; stroke-width: 1.5;" width="145" x="135.75" y="603"/><ellipse cx="150.75" cy="619" fill="#B4A7E5" rx="11" ry="11" style="stroke: #A80036; stroke-width: 1.0;"/><path d="M151.7031,615.7813 L151.7031,622.2969 L153.4219,622.2969 C153.875,622.2969 154.0156,622.3281 154.1875,622.4531 C154.4219,622.625 154.5313,622.875 154.5313,623.1563 C154.5313,623.7188 154.1719,624 153.4219,624 L148.2813,624 C147.875,624 147.6719,623.9531 147.5156,623.8281 C147.2969,623.6719 147.1563,623.4063 147.1563,623.1563 C147.1563,622.8594 147.3125,622.5781 147.5625,622.4219 C147.7188,622.3125 147.8438,622.2969 148.2813,622.2969 L150,622.2969 L150,615.7813 L148.2813,615.7813 C147.8594,615.7813 147.6719,615.75 147.5156,615.6406 C147.2969,615.4688 147.1563,615.2188 147.1563,614.9375 C147.1563,614.6563 147.3125,614.3594 147.5625,614.2031 C147.7188,614.1094 147.8438,614.0938 148.2813,614.0938 L153.4219,614.0938 C153.875,614.0938 154.0156,614.125 154.1875,614.2344 C154.4219,614.4063 154.5313,614.6719 154.5313,614.9375 C154.5313,615.2344 154.3906,615.5156 154.125,615.6719 C154,615.75 153.8125,615.7813 153.4219,615.7813 Z "/><text fill="#000000" font-family="sans-serif" font-size="12" font-style="italic" lengthAdjust="spacingAndGlyphs" textLength="113" x="164.75" y="623.1543">CLMemoryHandler</text><line style="stroke: #A80036; stroke-width: 1.5;" x1="136.75" x2="279.75" y1="635" y2="635"/><line style="stroke: #A80036; stroke-width: 1.5;" x1="136.75" x2="279.75" y1="643" y2="643"/><rect fill="#FEFECE" filter="url(#f1)" height="86.4141" style="stroke: #A80036; stroke-width: 1.5;" width="363" x="656.75" y="584"/><ellipse cx="803" cy="600" fill="#ADD1B2" rx="11" ry="11" style="stroke: #A80036; stroke-width: 1.0;"/><path d="M805.3438,595.6719 L805.5156,595.75 C805.7344,595.4375 805.9375,595.3438 806.2344,595.3438 C806.5313,595.3438 806.8125,595.4844 806.9688,595.75 C807.0625,595.9063 807.0781,596.0313 807.0781,596.4688 L807.0781,597.8906 C807.0781,598.3125 807.0469,598.5 806.9375,598.6563 C806.7656,598.875 806.5,599.0156 806.2344,599.0156 C806.0156,599.0156 805.7813,598.9063 805.6406,598.7656 C805.5,598.6406 805.4688,598.5156 805.4063,598.1094 C805.3125,597.7031 805.1406,597.4844 804.6563,597.2031 C804.1875,596.9531 803.5781,596.7969 803,596.7969 C801.2656,596.7969 800.0156,598.1094 800.0156,599.8906 L800.0156,600.9844 C800.0156,602.6875 801.3125,603.7813 803.3594,603.7813 C804.125,603.7813 804.8125,603.6563 805.2344,603.3906 C805.4219,603.2969 805.4219,603.2969 805.875,602.8125 C806.0625,602.625 806.2656,602.5469 806.4844,602.5469 C806.9531,602.5469 807.3438,602.9375 807.3438,603.3906 C807.3438,603.7813 807.0156,604.2344 806.4375,604.6406 C805.6875,605.1875 804.5313,605.4844 803.3125,605.4844 C800.4219,605.4844 798.3125,603.5938 798.3125,601.0156 L798.3125,599.8906 C798.3125,597.1719 800.3125,595.0938 802.9375,595.0938 C803.8125,595.0938 804.4063,595.2344 805.3438,595.6719 Z "/><text fill="#000000" font-family="sans-serif" font-size="12" lengthAdjust="spacingAndGlyphs" textLength="62" x="823.5" y="604.1543">CLMemory</text><line style="stroke: #A80036; stroke-width: 1.5;" x1="657.75" x2="1018.75" y1="616" y2="616"/><line style="stroke: #A80036; stroke-width: 1.5;" x1="657.75" x2="1018.75" y1="624" y2="624"/><ellipse cx="667.75" cy="635.9023" fill="#84BE84" rx="3" ry="3" style="stroke: #038048; stroke-width: 1.0;"/><text fill="#000000" font-family="sans-serif" font-size="11" lengthAdjust="spacingAndGlyphs" text-decoration="underline" textLength="320" x="676.75" y="638.2104">createBuffer( CLContext, Flag[], size_t size ) : CLMemory</text><line style="stroke: #000000; stroke-width: 1.0;" x1="676.75" x2="996.75" y1="640.2104" y2="640.2104"/><ellipse cx="667.75" cy="648.707" fill="#84BE84" rx="3" ry="3" style="stroke: #038048; stroke-width: 1.0;"/><text fill="#000000" font-family="sans-serif" font-size="11" lengthAdjust="spacingAndGlyphs" textLength="337" x="676.75" y="651.0151">read( CLCommandQueue, size_t size, size_t offset ) : void[]</text><ellipse cx="667.75" cy="661.5117" fill="#84BE84" rx="3" ry="3" style="stroke: #038048; stroke-width: 1.0;"/><text fill="#000000" font-family="sans-serif" font-size="11" lengthAdjust="spacingAndGlyphs" textLength="265" x="676.75" y="663.8198">write( CLCommandQueue, void[] buffer ) : void</text><rect fill="#FEFECE" filter="url(#f1)" height="112.0234" style="stroke: #A80036; stroke-width: 1.5;" width="402" x="155" y="76"/><ellipse cx="318.25" cy="92" fill="#ADD1B2" rx="11" ry="11" style="stroke: #A80036; stroke-width: 1.0;"/><path d="M320.5938,87.6719 L320.7656,87.75 C320.9844,87.4375 321.1875,87.3438 321.4844,87.3438 C321.7813,87.3438 322.0625,87.4844 322.2188,87.75 C322.3125,87.9063 322.3281,88.0313 322.3281,88.4688 L322.3281,89.8906 C322.3281,90.3125 322.2969,90.5 322.1875,90.6563 C322.0156,90.875 321.75,91.0156 321.4844,91.0156 C321.2656,91.0156 321.0313,90.9063 320.8906,90.7656 C320.75,90.6406 320.7188,90.5156 320.6563,90.1094 C320.5625,89.7031 320.3906,89.4844 319.9063,89.2031 C319.4375,88.9531 318.8281,88.7969 318.25,88.7969 C316.5156,88.7969 315.2656,90.1094 315.2656,91.8906 L315.2656,92.9844 C315.2656,94.6875 316.5625,95.7813 318.6094,95.7813 C319.375,95.7813 320.0625,95.6563 320.4844,95.3906 C320.6719,95.2969 320.6719,95.2969 321.125,94.8125 C321.3125,94.625 321.5156,94.5469 321.7344,94.5469 C322.2031,94.5469 322.5938,94.9375 322.5938,95.3906 C322.5938,95.7813 322.2656,96.2344 321.6875,96.6406 C320.9375,97.1875 319.7813,97.4844 318.5625,97.4844 C315.6719,97.4844 313.5625,95.5938 313.5625,93.0156 L313.5625,91.8906 C313.5625,89.1719 315.5625,87.0938 318.1875,87.0938 C319.0625,87.0938 319.6563,87.2344 320.5938,87.6719 Z "/><text fill="#000000" font-family="sans-serif" font-size="12" lengthAdjust="spacingAndGlyphs" textLength="67" x="338.75" y="96.1543">CLProgram</text><line style="stroke: #A80036; stroke-width: 1.5;" x1="156" x2="556" y1="108" y2="108"/><polygon fill="none" points="166,114.9023,170,118.9023,166,122.9023,162,118.9023" style="stroke: #B38D22; stroke-width: 1.0;"/><text fill="#000000" font-family="sans-serif" font-size="11" lengthAdjust="spacingAndGlyphs" textLength="174" x="175" y="122.2104">last_build_devices : CLDevice[]</text><polygon fill="none" points="166,127.707,170,131.707,166,135.707,162,131.707" style="stroke: #B38D22; stroke-width: 1.0;"/><text fill="#000000" font-family="sans-serif" font-size="11" lengthAdjust="spacingAndGlyphs" textLength="85" x="175" y="135.0151">ctx : CLContext</text><line style="stroke: #A80036; stroke-width: 1.0;" x1="156" x2="556" y1="141.6094" y2="141.6094"/><ellipse cx="166" cy="153.5117" fill="none" rx="3" ry="3" style="stroke: #038048; stroke-width: 1.0;"/><text fill="#000000" font-family="sans-serif" font-size="11" lengthAdjust="spacingAndGlyphs" textLength="138" x="175" y="155.8198">kernel : CLKernel[string]</text><ellipse cx="166" cy="166.3164" fill="#84BE84" rx="3" ry="3" style="stroke: #038048; stroke-width: 1.0;"/><text fill="#000000" font-family="sans-serif" font-size="11" lengthAdjust="spacingAndGlyphs" text-decoration="underline" textLength="376" x="175" y="168.6245">createWithSource( CLContext context, string source ) : CLProgram</text><line style="stroke: #000000; stroke-width: 1.0;" x1="175" x2="551" y1="170.6245" y2="170.6245"/><ellipse cx="166" cy="179.1211" fill="#84BE84" rx="3" ry="3" style="stroke: #038048; stroke-width: 1.0;"/><text fill="#000000" font-family="sans-serif" font-size="11" lengthAdjust="spacingAndGlyphs" textLength="199" x="175" y="181.4292">build( CLBuildOption[] ) : BuildInfo[]</text><rect fill="#FEFECE" filter="url(#f1)" height="112.0234" style="stroke: #A80036; stroke-width: 1.5;" width="298" x="592" y="76"/><ellipse cx="694.25" cy="92" fill="#B4A7E5" rx="11" ry="11" style="stroke: #A80036; stroke-width: 1.0;"/><path d="M695.2031,88.7813 L695.2031,95.2969 L696.9219,95.2969 C697.375,95.2969 697.5156,95.3281 697.6875,95.4531 C697.9219,95.625 698.0313,95.875 698.0313,96.1563 C698.0313,96.7188 697.6719,97 696.9219,97 L691.7813,97 C691.375,97 691.1719,96.9531 691.0156,96.8281 C690.7969,96.6719 690.6563,96.4063 690.6563,96.1563 C690.6563,95.8594 690.8125,95.5781 691.0625,95.4219 C691.2188,95.3125 691.3438,95.2969 691.7813,95.2969 L693.5,95.2969 L693.5,88.7813 L691.7813,88.7813 C691.3594,88.7813 691.1719,88.75 691.0156,88.6406 C690.7969,88.4688 690.6563,88.2188 690.6563,87.9375 C690.6563,87.6563 690.8125,87.3594 691.0625,87.2031 C691.2188,87.1094 691.3438,87.0938 691.7813,87.0938 L696.9219,87.0938 C697.375,87.0938 697.5156,87.125 697.6875,87.2344 C697.9219,87.4063 698.0313,87.6719 698.0313,87.9375 C698.0313,88.2344 697.8906,88.5156 697.625,88.6719 C697.5,88.75 697.3125,88.7813 696.9219,88.7813 Z "/><text fill="#000000" font-family="sans-serif" font-size="12" font-style="italic" lengthAdjust="spacingAndGlyphs" textLength="85" x="714.75" y="96.1543">CLBuildOption</text><line style="stroke: #A80036; stroke-width: 1.5;" x1="593" x2="889" y1="108" y2="108"/><line style="stroke: #A80036; stroke-width: 1.5;" x1="593" x2="889" y1="116" y2="116"/><ellipse cx="603" cy="127.9023" fill="#84BE84" rx="3" ry="3" style="stroke: #038048; stroke-width: 1.0;"/><text fill="#000000" font-family="sans-serif" font-size="11" lengthAdjust="spacingAndGlyphs" textLength="98" x="612" y="130.2104">toString() : string</text><ellipse cx="603" cy="140.707" fill="#84BE84" rx="3" ry="3" style="stroke: #038048; stroke-width: 1.0;"/><text fill="#000000" font-family="sans-serif" font-size="11" lengthAdjust="spacingAndGlyphs" text-decoration="underline" textLength="272" x="612" y="143.0151">define( string name, string val ) : CLBuildOption</text><line style="stroke: #000000; stroke-width: 1.0;" x1="612" x2="884" y1="145.0151" y2="145.0151"/><ellipse cx="603" cy="153.5117" fill="#84BE84" rx="3" ry="3" style="stroke: #038048; stroke-width: 1.0;"/><text fill="#000000" font-family="sans-serif" font-size="11" lengthAdjust="spacingAndGlyphs" text-decoration="underline" textLength="191" x="612" y="155.8198">dir( string name ) : CLBuildOption</text><line style="stroke: #000000; stroke-width: 1.0;" x1="612" x2="803" y1="157.8198" y2="157.8198"/><ellipse cx="603" cy="166.3164" fill="#84BE84" rx="3" ry="3" style="stroke: #038048; stroke-width: 1.0;"/><text fill="#000000" font-family="sans-serif" font-size="11" lengthAdjust="spacingAndGlyphs" text-decoration="underline" textLength="249" x="612" y="168.6245">inhibitAllWarningMessages() : CLBuildOption</text><line style="stroke: #000000; stroke-width: 1.0;" x1="612" x2="861" y1="170.6245" y2="170.6245"/><ellipse cx="603" cy="179.1211" fill="#84BE84" rx="3" ry="3" style="stroke: #038048; stroke-width: 1.0;"/><text fill="#000000" font-family="sans-serif" font-size="11" lengthAdjust="spacingAndGlyphs" text-decoration="underline" textLength="252" x="612" y="181.4292">makeAllWarningsIntoErrors() : CLBuildOption</text><line style="stroke: #000000; stroke-width: 1.0;" x1="612" x2="864" y1="183.4292" y2="183.4292"/><rect fill="#FEFECE" filter="url(#f1)" height="48" style="stroke: #A80036; stroke-width: 1.5;" width="109" x="639.75" y="442"/><ellipse cx="654.75" cy="458" fill="#ADD1B2" rx="11" ry="11" style="stroke: #A80036; stroke-width: 1.0;"/><path d="M657.0938,453.6719 L657.2656,453.75 C657.4844,453.4375 657.6875,453.3438 657.9844,453.3438 C658.2813,453.3438 658.5625,453.4844 658.7188,453.75 C658.8125,453.9063 658.8281,454.0313 658.8281,454.4688 L658.8281,455.8906 C658.8281,456.3125 658.7969,456.5 658.6875,456.6563 C658.5156,456.875 658.25,457.0156 657.9844,457.0156 C657.7656,457.0156 657.5313,456.9063 657.3906,456.7656 C657.25,456.6406 657.2188,456.5156 657.1563,456.1094 C657.0625,455.7031 656.8906,455.4844 656.4063,455.2031 C655.9375,454.9531 655.3281,454.7969 654.75,454.7969 C653.0156,454.7969 651.7656,456.1094 651.7656,457.8906 L651.7656,458.9844 C651.7656,460.6875 653.0625,461.7813 655.1094,461.7813 C655.875,461.7813 656.5625,461.6563 656.9844,461.3906 C657.1719,461.2969 657.1719,461.2969 657.625,460.8125 C657.8125,460.625 658.0156,460.5469 658.2344,460.5469 C658.7031,460.5469 659.0938,460.9375 659.0938,461.3906 C659.0938,461.7813 658.7656,462.2344 658.1875,462.6406 C657.4375,463.1875 656.2813,463.4844 655.0625,463.4844 C652.1719,463.4844 650.0625,461.5938 650.0625,459.0156 L650.0625,457.8906 C650.0625,455.1719 652.0625,453.0938 654.6875,453.0938 C655.5625,453.0938 656.1563,453.2344 657.0938,453.6719 Z "/><text fill="#000000" font-family="sans-serif" font-size="12" lengthAdjust="spacingAndGlyphs" textLength="77" x="668.75" y="462.1543">CLGLContext</text><line style="stroke: #A80036; stroke-width: 1.5;" x1="640.75" x2="747.75" y1="474" y2="474"/><line style="stroke: #A80036; stroke-width: 1.5;" x1="640.75" x2="747.75" y1="482" y2="482"/><rect fill="#FEFECE" filter="url(#f1)" height="48" style="stroke: #A80036; stroke-width: 1.5;" width="109" x="783.75" y="442"/><ellipse cx="798.75" cy="458" fill="#ADD1B2" rx="11" ry="11" style="stroke: #A80036; stroke-width: 1.0;"/><path d="M801.0938,453.6719 L801.2656,453.75 C801.4844,453.4375 801.6875,453.3438 801.9844,453.3438 C802.2813,453.3438 802.5625,453.4844 802.7188,453.75 C802.8125,453.9063 802.8281,454.0313 802.8281,454.4688 L802.8281,455.8906 C802.8281,456.3125 802.7969,456.5 802.6875,456.6563 C802.5156,456.875 802.25,457.0156 801.9844,457.0156 C801.7656,457.0156 801.5313,456.9063 801.3906,456.7656 C801.25,456.6406 801.2188,456.5156 801.1563,456.1094 C801.0625,455.7031 800.8906,455.4844 800.4063,455.2031 C799.9375,454.9531 799.3281,454.7969 798.75,454.7969 C797.0156,454.7969 795.7656,456.1094 795.7656,457.8906 L795.7656,458.9844 C795.7656,460.6875 797.0625,461.7813 799.1094,461.7813 C799.875,461.7813 800.5625,461.6563 800.9844,461.3906 C801.1719,461.2969 801.1719,461.2969 801.625,460.8125 C801.8125,460.625 802.0156,460.5469 802.2344,460.5469 C802.7031,460.5469 803.0938,460.9375 803.0938,461.3906 C803.0938,461.7813 802.7656,462.2344 802.1875,462.6406 C801.4375,463.1875 800.2813,463.4844 799.0625,463.4844 C796.1719,463.4844 794.0625,461.5938 794.0625,459.0156 L794.0625,457.8906 C794.0625,455.1719 796.0625,453.0938 798.6875,453.0938 C799.5625,453.0938 800.1563,453.2344 801.0938,453.6719 Z "/><text fill="#000000" font-family="sans-serif" font-size="12" lengthAdjust="spacingAndGlyphs" textLength="77" x="812.75" y="462.1543">CLGLMemory</text><line style="stroke: #A80036; stroke-width: 1.5;" x1="784.75" x2="891.75" y1="474" y2="474"/><line style="stroke: #A80036; stroke-width: 1.5;" x1="784.75" x2="891.75" y1="482" y2="482"/><path d="M915.057,194.914 C890.77,212.616 864.658,231.649 841.637,248.429 " fill="none" style="stroke: #A80036; stroke-width: 1.0;"/><polygon fill="#A80036" points="925.703,187.154,918.4982,187.4562,916.0061,194.223,923.2109,193.9208,925.703,187.154" style="stroke: #A80036; stroke-width: 1.0;"/><path d="M913.512,185.925 C911.673,186.652 909.835,187.345 908,188 C822.103,218.653 564.395,181.481 502,248 C454.413,298.732 465.934,388.639 476.178,435.199 " fill="none" style="stroke: #A80036; stroke-width: 1.0;"/><polygon fill="#A80036" points="925.62,180.673,918.5238,179.391,914.611,185.4482,921.7073,186.7303,925.62,180.673" style="stroke: #A80036; stroke-width: 1.0;"/><path d="M869.956,354.853 C883.325,363.565 896.693,372.755 909,382 C927.919,396.213 947.566,413.536 963.821,428.672 " fill="none" style="stroke: #A80036; stroke-width: 1.0;"/><polygon fill="#A80036" points="858.749,347.656,861.6363,354.2638,868.8464,354.1401,865.959,347.5323,858.749,347.656" style="stroke: #A80036; stroke-width: 1.0;"/><path d="M673.11,353.934 C656.308,363.194 639.121,372.79 623,382 C592.738,399.289 559.18,419.303 532.62,435.345 " fill="none" style="stroke: #A80036; stroke-width: 1.0;"/><polygon fill="#A80036" points="684.663,347.586,677.4782,346.9704,674.1466,353.3657,681.3314,353.9813,684.663,347.586" style="stroke: #A80036; stroke-width: 1.0;"/><path d="M82.7056,176.409 C85.3781,207.715 88.8806,248.744 91.0339,273.968 " fill="none" style="stroke: #A80036; stroke-width: 1.0;"/><polygon fill="none" points="75.7028,176.672,80.9762,156.149,89.652,175.481,75.7028,176.672" style="stroke: #A80036; stroke-width: 1.0;"/><path d="M208,529.513 C208,555.248 208,583.473 208,602.7098 " fill="none" style="stroke: #A80036; stroke-width: 1.0; stroke-dasharray: 7.0,7.0;"/><polygon fill="#A80036" points="208,524.403,204,533.403,208,529.403,212,533.403,208,524.403" style="stroke: #A80036; stroke-width: 1.0;"/><path d="M562.318,132 C572.205,132 582.092,132 591.979,132 " fill="none" style="stroke: #A80036; stroke-width: 1.0; stroke-dasharray: 7.0,7.0;"/><polygon fill="#A80036" points="557.147,132,566.147,136,562.147,132,566.147,128,557.147,132" style="stroke: #A80036; stroke-width: 1.0;"/><path d="M325.964,200.378 C298.792,261.332 259.212,350.118 233.533,407.722 " fill="none" style="stroke: #A80036; stroke-width: 1.0;"/><polygon fill="#A80036" points="331.395,188.196,325.2986,192.0474,326.509,199.1562,332.6054,195.3048,331.395,188.196" style="stroke: #A80036; stroke-width: 1.0;"/><path d="M509.084,192.918 C555.716,211.171 606.378,231 650.85,248.407 " fill="none" style="stroke: #A80036; stroke-width: 1.0;"/><polygon fill="#A80036" points="496.687,188.066,500.8162,193.9778,507.8614,192.44,503.7322,186.5282,496.687,188.066" style="stroke: #A80036; stroke-width: 1.0;"/><path d="M382.107,200.716 C409.842,272.653 452.413,383.072 472.611,435.459 " fill="none" style="stroke: #A80036; stroke-width: 1.0;"/><polygon fill="#A80036" points="377.28,188.196,375.7057,195.2332,381.5961,199.3929,383.1703,192.3558,377.28,188.196" style="stroke: #A80036; stroke-width: 1.0;"/><path d="M293.521,627 C414.559,627 535.597,627 656.635,627 " fill="none" style="stroke: #A80036; stroke-width: 1.0;"/><polygon fill="#A80036" points="280.29,627,286.29,631,292.29,627,286.29,623,280.29,627" style="stroke: #A80036; stroke-width: 1.0;"/><path d="M838,490.12 C838,509.325 838,537.575 838,563.349 " fill="none" style="stroke: #A80036; stroke-width: 1.0;"/><polygon fill="none" points="845,563.714,838,583.714,831,563.714,845,563.714" style="stroke: #A80036; stroke-width: 1.0;"/><path d="M742.307,366.001 C729.19,392.883 714.937,422.093 705.337,441.765 " fill="none" style="stroke: #A80036; stroke-width: 1.0;"/><polygon fill="none" points="736.074,362.812,751.135,347.908,748.656,368.952,736.074,362.812" style="stroke: #A80036; stroke-width: 1.0;"/></g></svg>