<?xml version="1.0" encoding="UTF-8" standalone="yes"?><svg xmlns="http://www.w3.org/2000/svg" xmlns:xlink="http://www.w3.org/1999/xlink" height="956pt" style="width:735px;height:956px;" version="1.1" viewBox="0 0 735 956" width="735pt"><defs><filter height="300%" id="f1" width="300%" x="-1" y="-1"><feGaussianBlur result="blurOut" stdDeviation="2.0"/><feColorMatrix in="blurOut" result="blurOut2" type="matrix" values="0 0 0 0 0 0 0 0 0 0 0 0 0 0 0 0 0 0 .4 0"/><feOffset dx="4.0" dy="4.0" in="blurOut2" result="blurOut3"/><feBlend in="SourceGraphic" in2="blurOut3" mode="normal"/></filter></defs><g><rect fill="#FFFFFF" filter="url(#f1)" height="116" style="stroke: #000000; stroke-width: 2.0;" width="279" x="22" y="809"/><path d="M80,810 L80,818.2969 L70,828.2969 L22,828.2969 " fill="#FFFFFF" style="stroke: #000000; stroke-width: 2.0;"/><text fill="#000000" font-family="sans-serif" font-size="14" font-weight="bold" lengthAdjust="spacingAndGlyphs" textLength="48" x="25" y="821.9951">des.gl</text><rect fill="#FFFFFF" filter="url(#f1)" height="200" style="stroke: #000000; stroke-width: 2.0;" width="346" x="382" y="749"/><path d="M439,750 L439,758.2969 L429,768.2969 L382,768.2969 " fill="#FFFFFF" style="stroke: #000000; stroke-width: 2.0;"/><text fill="#000000" font-family="sans-serif" font-size="14" font-weight="bold" lengthAdjust="spacingAndGlyphs" textLength="47" x="385" y="761.9951">des.cl</text><rect fill="#FFFFFF" filter="url(#f1)" height="116" style="stroke: #000000; stroke-width: 2.0;" width="142" x="562" y="809"/><path d="M638,810 L638,818.2969 L628,828.2969 L562,828.2969 " fill="#FFFFFF" style="stroke: #000000; stroke-width: 2.0;"/><text fill="#000000" font-family="sans-serif" font-size="14" font-weight="bold" lengthAdjust="spacingAndGlyphs" textLength="66" x="565" y="821.9951">des.cl.gl</text><rect fill="#FFFFFF" filter="url(#f1)" height="701" style="stroke: #000000; stroke-width: 2.0;" width="615" x="52" y="24"/><path d="M134,25 L134,33.2969 L124,43.2969 L52,43.2969 " fill="#FFFFFF" style="stroke: #000000; stroke-width: 2.0;"/><text fill="#000000" font-family="sans-serif" font-size="14" font-weight="bold" lengthAdjust="spacingAndGlyphs" textLength="72" x="55" y="36.9951">sim.draw</text><rect fill="#FFFFFF" filter="url(#f1)" height="116" style="stroke: #000000; stroke-width: 2.0;" width="166" x="418" y="84"/><path d="M554,85 L554,93.2969 L544,103.2969 L418,103.2969 " fill="#FFFFFF" style="stroke: #000000; stroke-width: 2.0;"/><text fill="#000000" font-family="sans-serif" font-size="14" font-weight="bold" lengthAdjust="spacingAndGlyphs" textLength="126" x="421" y="96.9951">sim.draw.object</text><rect fill="#FEFECE" filter="url(#f1)" height="48" style="stroke: #A80036; stroke-width: 1.5;" width="84" x="201" y="861"/><ellipse cx="216" cy="877" fill="#ADD1B2" rx="11" ry="11" style="stroke: #A80036; stroke-width: 1.0;"/><path d="M218.3438,872.6719 L218.5156,872.75 C218.7344,872.4375 218.9375,872.3438 219.2344,872.3438 C219.5313,872.3438 219.8125,872.4844 219.9688,872.75 C220.0625,872.9063 220.0781,873.0313 220.0781,873.4688 L220.0781,874.8906 C220.0781,875.3125 220.0469,875.5 219.9375,875.6563 C219.7656,875.875 219.5,876.0156 219.2344,876.0156 C219.0156,876.0156 218.7813,875.9063 218.6406,875.7656 C218.5,875.6406 218.4688,875.5156 218.4063,875.1094 C218.3125,874.7031 218.1406,874.4844 217.6563,874.2031 C217.1875,873.9531 216.5781,873.7969 216,873.7969 C214.2656,873.7969 213.0156,875.1094 213.0156,876.8906 L213.0156,877.9844 C213.0156,879.6875 214.3125,880.7813 216.3594,880.7813 C217.125,880.7813 217.8125,880.6563 218.2344,880.3906 C218.4219,880.2969 218.4219,880.2969 218.875,879.8125 C219.0625,879.625 219.2656,879.5469 219.4844,879.5469 C219.9531,879.5469 220.3438,879.9375 220.3438,880.3906 C220.3438,880.7813 220.0156,881.2344 219.4375,881.6406 C218.6875,882.1875 217.5313,882.4844 216.3125,882.4844 C213.4219,882.4844 211.3125,880.5938 211.3125,878.0156 L211.3125,876.8906 C211.3125,874.1719 213.3125,872.0938 215.9375,872.0938 C216.8125,872.0938 217.4063,872.2344 218.3438,872.6719 Z "/><text fill="#000000" font-family="sans-serif" font-size="12" lengthAdjust="spacingAndGlyphs" textLength="52" x="230" y="881.1543">GLBuffer</text><line style="stroke: #A80036; stroke-width: 1.5;" x1="202" x2="284" y1="893" y2="893"/><line style="stroke: #A80036; stroke-width: 1.5;" x1="202" x2="284" y1="901" y2="901"/><rect fill="#FEFECE" filter="url(#f1)" height="48" style="stroke: #A80036; stroke-width: 1.5;" width="128" x="38" y="861"/><ellipse cx="53" cy="877" fill="#ADD1B2" rx="11" ry="11" style="stroke: #A80036; stroke-width: 1.0;"/><path d="M55.3438,872.6719 L55.5156,872.75 C55.7344,872.4375 55.9375,872.3438 56.2344,872.3438 C56.5313,872.3438 56.8125,872.4844 56.9688,872.75 C57.0625,872.9063 57.0781,873.0313 57.0781,873.4688 L57.0781,874.8906 C57.0781,875.3125 57.0469,875.5 56.9375,875.6563 C56.7656,875.875 56.5,876.0156 56.2344,876.0156 C56.0156,876.0156 55.7813,875.9063 55.6406,875.7656 C55.5,875.6406 55.4688,875.5156 55.4063,875.1094 C55.3125,874.7031 55.1406,874.4844 54.6563,874.2031 C54.1875,873.9531 53.5781,873.7969 53,873.7969 C51.2656,873.7969 50.0156,875.1094 50.0156,876.8906 L50.0156,877.9844 C50.0156,879.6875 51.3125,880.7813 53.3594,880.7813 C54.125,880.7813 54.8125,880.6563 55.2344,880.3906 C55.4219,880.2969 55.4219,880.2969 55.875,879.8125 C56.0625,879.625 56.2656,879.5469 56.4844,879.5469 C56.9531,879.5469 57.3438,879.9375 57.3438,880.3906 C57.3438,880.7813 57.0156,881.2344 56.4375,881.6406 C55.6875,882.1875 54.5313,882.4844 53.3125,882.4844 C50.4219,882.4844 48.3125,880.5938 48.3125,878.0156 L48.3125,876.8906 C48.3125,874.1719 50.3125,872.0938 52.9375,872.0938 C53.8125,872.0938 54.4063,872.2344 55.3438,872.6719 Z "/><text fill="#000000" font-family="sans-serif" font-size="12" lengthAdjust="spacingAndGlyphs" textLength="96" x="67" y="881.1543">GLRenderToTex</text><line style="stroke: #A80036; stroke-width: 1.5;" x1="39" x2="165" y1="893" y2="893"/><line style="stroke: #A80036; stroke-width: 1.5;" x1="39" x2="165" y1="901" y2="901"/><rect fill="#FEFECE" filter="url(#f1)" height="48" style="stroke: #A80036; stroke-width: 1.5;" width="145" x="398.75" y="861"/><ellipse cx="413.75" cy="877" fill="#B4A7E5" rx="11" ry="11" style="stroke: #A80036; stroke-width: 1.0;"/><path d="M414.7031,873.7813 L414.7031,880.2969 L416.4219,880.2969 C416.875,880.2969 417.0156,880.3281 417.1875,880.4531 C417.4219,880.625 417.5313,880.875 417.5313,881.1563 C417.5313,881.7188 417.1719,882 416.4219,882 L411.2813,882 C410.875,882 410.6719,881.9531 410.5156,881.8281 C410.2969,881.6719 410.1563,881.4063 410.1563,881.1563 C410.1563,880.8594 410.3125,880.5781 410.5625,880.4219 C410.7188,880.3125 410.8438,880.2969 411.2813,880.2969 L413,880.2969 L413,873.7813 L411.2813,873.7813 C410.8594,873.7813 410.6719,873.75 410.5156,873.6406 C410.2969,873.4688 410.1563,873.2188 410.1563,872.9375 C410.1563,872.6563 410.3125,872.3594 410.5625,872.2031 C410.7188,872.1094 410.8438,872.0938 411.2813,872.0938 L416.4219,872.0938 C416.875,872.0938 417.0156,872.125 417.1875,872.2344 C417.4219,872.4063 417.5313,872.6719 417.5313,872.9375 C417.5313,873.2344 417.3906,873.5156 417.125,873.6719 C417,873.75 416.8125,873.7813 416.4219,873.7813 Z "/><text fill="#000000" font-family="sans-serif" font-size="12" font-style="italic" lengthAdjust="spacingAndGlyphs" textLength="113" x="427.75" y="881.1543">CLMemoryHandler</text><line style="stroke: #A80036; stroke-width: 1.5;" x1="399.75" x2="542.75" y1="893" y2="893"/><line style="stroke: #A80036; stroke-width: 1.5;" x1="399.75" x2="542.75" y1="901" y2="901"/><rect fill="#FEFECE" filter="url(#f1)" height="48" style="stroke: #A80036; stroke-width: 1.5;" width="109" x="578.75" y="861"/><ellipse cx="593.75" cy="877" fill="#ADD1B2" rx="11" ry="11" style="stroke: #A80036; stroke-width: 1.0;"/><path d="M596.0938,872.6719 L596.2656,872.75 C596.4844,872.4375 596.6875,872.3438 596.9844,872.3438 C597.2813,872.3438 597.5625,872.4844 597.7188,872.75 C597.8125,872.9063 597.8281,873.0313 597.8281,873.4688 L597.8281,874.8906 C597.8281,875.3125 597.7969,875.5 597.6875,875.6563 C597.5156,875.875 597.25,876.0156 596.9844,876.0156 C596.7656,876.0156 596.5313,875.9063 596.3906,875.7656 C596.25,875.6406 596.2188,875.5156 596.1563,875.1094 C596.0625,874.7031 595.8906,874.4844 595.4063,874.2031 C594.9375,873.9531 594.3281,873.7969 593.75,873.7969 C592.0156,873.7969 590.7656,875.1094 590.7656,876.8906 L590.7656,877.9844 C590.7656,879.6875 592.0625,880.7813 594.1094,880.7813 C594.875,880.7813 595.5625,880.6563 595.9844,880.3906 C596.1719,880.2969 596.1719,880.2969 596.625,879.8125 C596.8125,879.625 597.0156,879.5469 597.2344,879.5469 C597.7031,879.5469 598.0938,879.9375 598.0938,880.3906 C598.0938,880.7813 597.7656,881.2344 597.1875,881.6406 C596.4375,882.1875 595.2813,882.4844 594.0625,882.4844 C591.1719,882.4844 589.0625,880.5938 589.0625,878.0156 L589.0625,876.8906 C589.0625,874.1719 591.0625,872.0938 593.6875,872.0938 C594.5625,872.0938 595.1563,872.2344 596.0938,872.6719 Z "/><text fill="#000000" font-family="sans-serif" font-size="12" lengthAdjust="spacingAndGlyphs" textLength="77" x="607.75" y="881.1543">CLGLMemory</text><line style="stroke: #A80036; stroke-width: 1.5;" x1="579.75" x2="686.75" y1="893" y2="893"/><line style="stroke: #A80036; stroke-width: 1.5;" x1="579.75" x2="686.75" y1="901" y2="901"/><rect fill="#FEFECE" filter="url(#f1)" height="99.2188" style="stroke: #A80036; stroke-width: 1.5;" width="171" x="349.75" y="590.5"/><ellipse cx="405.5" cy="606.5" fill="#ADD1B2" rx="11" ry="11" style="stroke: #A80036; stroke-width: 1.0;"/><path d="M407.8438,602.1719 L408.0156,602.25 C408.2344,601.9375 408.4375,601.8438 408.7344,601.8438 C409.0313,601.8438 409.3125,601.9844 409.4688,602.25 C409.5625,602.4063 409.5781,602.5313 409.5781,602.9688 L409.5781,604.3906 C409.5781,604.8125 409.5469,605 409.4375,605.1563 C409.2656,605.375 409,605.5156 408.7344,605.5156 C408.5156,605.5156 408.2813,605.4063 408.1406,605.2656 C408,605.1406 407.9688,605.0156 407.9063,604.6094 C407.8125,604.2031 407.6406,603.9844 407.1563,603.7031 C406.6875,603.4531 406.0781,603.2969 405.5,603.2969 C403.7656,603.2969 402.5156,604.6094 402.5156,606.3906 L402.5156,607.4844 C402.5156,609.1875 403.8125,610.2813 405.8594,610.2813 C406.625,610.2813 407.3125,610.1563 407.7344,609.8906 C407.9219,609.7969 407.9219,609.7969 408.375,609.3125 C408.5625,609.125 408.7656,609.0469 408.9844,609.0469 C409.4531,609.0469 409.8438,609.4375 409.8438,609.8906 C409.8438,610.2813 409.5156,610.7344 408.9375,611.1406 C408.1875,611.6875 407.0313,611.9844 405.8125,611.9844 C402.9219,611.9844 400.8125,610.0938 400.8125,607.5156 L400.8125,606.3906 C400.8125,603.6719 402.8125,601.5938 405.4375,601.5938 C406.3125,601.5938 406.9063,601.7344 407.8438,602.1719 Z "/><text fill="#000000" font-family="sans-serif" font-size="12" lengthAdjust="spacingAndGlyphs" textLength="51" x="426" y="610.6543">CLGLEnv</text><line style="stroke: #A80036; stroke-width: 1.5;" x1="350.75" x2="519.75" y1="622.5" y2="622.5"/><ellipse cx="360.75" cy="634.4023" fill="none" rx="3" ry="3" style="stroke: #038048; stroke-width: 1.0;"/><text fill="#000000" font-family="sans-serif" font-size="11" lengthAdjust="spacingAndGlyphs" textLength="100" x="369.75" y="636.7104">ctx : CLGLContext</text><ellipse cx="360.75" cy="647.207" fill="none" rx="3" ry="3" style="stroke: #038048; stroke-width: 1.0;"/><text fill="#000000" font-family="sans-serif" font-size="11" lengthAdjust="spacingAndGlyphs" textLength="145" x="369.75" y="649.5151">cmd : CLCommandQueue</text><ellipse cx="360.75" cy="660.0117" fill="none" rx="3" ry="3" style="stroke: #038048; stroke-width: 1.0;"/><text fill="#000000" font-family="sans-serif" font-size="11" lengthAdjust="spacingAndGlyphs" textLength="101" x="369.75" y="662.3198">prog : CLProgram</text><line style="stroke: #A80036; stroke-width: 1.0;" x1="350.75" x2="519.75" y1="668.9141" y2="668.9141"/><ellipse cx="360.75" cy="680.8164" fill="#84BE84" rx="3" ry="3" style="stroke: #038048; stroke-width: 1.0;"/><text fill="#000000" font-family="sans-serif" font-size="11" lengthAdjust="spacingAndGlyphs" textLength="128" x="369.75" y="683.1245">releaseAllToGL() : void</text><rect fill="#FEFECE" filter="url(#f1)" height="48" style="stroke: #A80036; stroke-width: 1.5;" width="95" x="555.75" y="616"/><ellipse cx="570.75" cy="632" fill="#ADD1B2" rx="11" ry="11" style="stroke: #A80036; stroke-width: 1.0;"/><path d="M573.0938,627.6719 L573.2656,627.75 C573.4844,627.4375 573.6875,627.3438 573.9844,627.3438 C574.2813,627.3438 574.5625,627.4844 574.7188,627.75 C574.8125,627.9063 574.8281,628.0313 574.8281,628.4688 L574.8281,629.8906 C574.8281,630.3125 574.7969,630.5 574.6875,630.6563 C574.5156,630.875 574.25,631.0156 573.9844,631.0156 C573.7656,631.0156 573.5313,630.9063 573.3906,630.7656 C573.25,630.6406 573.2188,630.5156 573.1563,630.1094 C573.0625,629.7031 572.8906,629.4844 572.4063,629.2031 C571.9375,628.9531 571.3281,628.7969 570.75,628.7969 C569.0156,628.7969 567.7656,630.1094 567.7656,631.8906 L567.7656,632.9844 C567.7656,634.6875 569.0625,635.7813 571.1094,635.7813 C571.875,635.7813 572.5625,635.6563 572.9844,635.3906 C573.1719,635.2969 573.1719,635.2969 573.625,634.8125 C573.8125,634.625 574.0156,634.5469 574.2344,634.5469 C574.7031,634.5469 575.0938,634.9375 575.0938,635.3906 C575.0938,635.7813 574.7656,636.2344 574.1875,636.6406 C573.4375,637.1875 572.2813,637.4844 571.0625,637.4844 C568.1719,637.4844 566.0625,635.5938 566.0625,633.0156 L566.0625,631.8906 C566.0625,629.1719 568.0625,627.0938 570.6875,627.0938 C571.5625,627.0938 572.1563,627.2344 573.0938,627.6719 Z "/><text fill="#000000" font-family="sans-serif" font-size="12" lengthAdjust="spacingAndGlyphs" textLength="63" x="584.75" y="636.1543">CalcBuffer</text><line style="stroke: #A80036; stroke-width: 1.5;" x1="556.75" x2="649.75" y1="648" y2="648"/><line style="stroke: #A80036; stroke-width: 1.5;" x1="556.75" x2="649.75" y1="656" y2="656"/><rect fill="#FEFECE" filter="url(#f1)" height="137.6328" style="stroke: #A80036; stroke-width: 1.5;" width="246" x="68" y="571"/><ellipse cx="157.75" cy="587" fill="#ADD1B2" rx="11" ry="11" style="stroke: #A80036; stroke-width: 1.0;"/><path d="M160.0938,582.6719 L160.2656,582.75 C160.4844,582.4375 160.6875,582.3438 160.9844,582.3438 C161.2813,582.3438 161.5625,582.4844 161.7188,582.75 C161.8125,582.9063 161.8281,583.0313 161.8281,583.4688 L161.8281,584.8906 C161.8281,585.3125 161.7969,585.5 161.6875,585.6563 C161.5156,585.875 161.25,586.0156 160.9844,586.0156 C160.7656,586.0156 160.5313,585.9063 160.3906,585.7656 C160.25,585.6406 160.2188,585.5156 160.1563,585.1094 C160.0625,584.7031 159.8906,584.4844 159.4063,584.2031 C158.9375,583.9531 158.3281,583.7969 157.75,583.7969 C156.0156,583.7969 154.7656,585.1094 154.7656,586.8906 L154.7656,587.9844 C154.7656,589.6875 156.0625,590.7813 158.1094,590.7813 C158.875,590.7813 159.5625,590.6563 159.9844,590.3906 C160.1719,590.2969 160.1719,590.2969 160.625,589.8125 C160.8125,589.625 161.0156,589.5469 161.2344,589.5469 C161.7031,589.5469 162.0938,589.9375 162.0938,590.3906 C162.0938,590.7813 161.7656,591.2344 161.1875,591.6406 C160.4375,592.1875 159.2813,592.4844 158.0625,592.4844 C155.1719,592.4844 153.0625,590.5938 153.0625,588.0156 L153.0625,586.8906 C153.0625,584.1719 155.0625,582.0938 157.6875,582.0938 C158.5625,582.0938 159.1563,582.2344 160.0938,582.6719 Z "/><text fill="#000000" font-family="sans-serif" font-size="12" lengthAdjust="spacingAndGlyphs" textLength="58" x="178.25" y="591.1543">MCamera</text><line style="stroke: #A80036; stroke-width: 1.5;" x1="69" x2="313" y1="603" y2="603"/><polygon fill="none" points="79,609.9023,83,613.9023,79,617.9023,75,613.9023" style="stroke: #B38D22; stroke-width: 1.0;"/><text fill="#000000" font-family="sans-serif" font-size="11" lengthAdjust="spacingAndGlyphs" textLength="57" x="88" y="617.2104">orb : vec3</text><polygon fill="none" points="79,622.707,83,626.707,79,630.707,75,626.707" style="stroke: #B38D22; stroke-width: 1.0;"/><text fill="#000000" font-family="sans-serif" font-size="11" lengthAdjust="spacingAndGlyphs" textLength="54" x="88" y="630.0151">rot : vec2</text><polygon fill="none" points="79,635.5117,83,639.5117,79,643.5117,75,639.5117" style="stroke: #B38D22; stroke-width: 1.0;"/><text fill="#000000" font-family="sans-serif" font-size="11" lengthAdjust="spacingAndGlyphs" textLength="147" x="88" y="642.8198">rotate_coef : float = 80.0f</text><polygon fill="none" points="79,648.3164,83,652.3164,79,656.3164,75,652.3164" style="stroke: #B38D22; stroke-width: 1.0;"/><text fill="#000000" font-family="sans-serif" font-size="11" lengthAdjust="spacingAndGlyphs" textLength="146" x="88" y="655.6245">offset_coef : float = 50.0f</text><polygon fill="none" points="79,661.1211,83,665.1211,79,669.1211,75,665.1211" style="stroke: #B38D22; stroke-width: 1.0;"/><text fill="#000000" font-family="sans-serif" font-size="11" lengthAdjust="spacingAndGlyphs" textLength="191" x="88" y="668.4292">y_angle_limit : float = PI_2 - 0.01f</text><line style="stroke: #A80036; stroke-width: 1.0;" x1="69" x2="313" y1="675.0234" y2="675.0234"/><ellipse cx="79" cy="686.9258" fill="#84BE84" rx="3" ry="3" style="stroke: #038048; stroke-width: 1.0;"/><text fill="#000000" font-family="sans-serif" font-size="11" lengthAdjust="spacingAndGlyphs" textLength="220" x="88" y="689.2339">mouseReaction( in MouseEvent ) : void</text><ellipse cx="79" cy="699.7305" fill="#84BE84" rx="3" ry="3" style="stroke: #038048; stroke-width: 1.0;"/><text fill="#000000" font-family="sans-serif" font-size="11" lengthAdjust="spacingAndGlyphs" textLength="216" x="88" y="702.0386">keyReaction( in KeyboardEvent ) : void</text><rect fill="#FEFECE" filter="url(#f1)" height="73.6094" style="stroke: #A80036; stroke-width: 1.5;" width="165" x="117.75" y="123"/><ellipse cx="158.4" cy="139" fill="#ADD1B2" rx="11" ry="11" style="stroke: #A80036; stroke-width: 1.0;"/><path d="M160.7438,134.6719 L160.9156,134.75 C161.1344,134.4375 161.3375,134.3438 161.6344,134.3438 C161.9313,134.3438 162.2125,134.4844 162.3688,134.75 C162.4625,134.9063 162.4781,135.0313 162.4781,135.4688 L162.4781,136.8906 C162.4781,137.3125 162.4469,137.5 162.3375,137.6563 C162.1656,137.875 161.9,138.0156 161.6344,138.0156 C161.4156,138.0156 161.1813,137.9063 161.0406,137.7656 C160.9,137.6406 160.8688,137.5156 160.8063,137.1094 C160.7125,136.7031 160.5406,136.4844 160.0563,136.2031 C159.5875,135.9531 158.9781,135.7969 158.4,135.7969 C156.6656,135.7969 155.4156,137.1094 155.4156,138.8906 L155.4156,139.9844 C155.4156,141.6875 156.7125,142.7813 158.7594,142.7813 C159.525,142.7813 160.2125,142.6563 160.6344,142.3906 C160.8219,142.2969 160.8219,142.2969 161.275,141.8125 C161.4625,141.625 161.6656,141.5469 161.8844,141.5469 C162.3531,141.5469 162.7438,141.9375 162.7438,142.3906 C162.7438,142.7813 162.4156,143.2344 161.8375,143.6406 C161.0875,144.1875 159.9313,144.4844 158.7125,144.4844 C155.8219,144.4844 153.7125,142.5938 153.7125,140.0156 L153.7125,138.8906 C153.7125,136.1719 155.7125,134.0938 158.3375,134.0938 C159.2125,134.0938 159.8063,134.2344 160.7438,134.6719 Z "/><text fill="#000000" font-family="sans-serif" font-size="12" lengthAdjust="spacingAndGlyphs" textLength="76" x="178.1" y="143.1543">MainWindow</text><line style="stroke: #A80036; stroke-width: 1.5;" x1="118.75" x2="281.75" y1="155" y2="155"/><rect fill="none" height="6" style="stroke: #C82930; stroke-width: 1.0;" width="6" x="125.75" y="163.9023"/><text fill="#000000" font-family="sans-serif" font-size="11" lengthAdjust="spacingAndGlyphs" textLength="71" x="137.75" y="169.2104">ctrl : Control</text><line style="stroke: #A80036; stroke-width: 1.0;" x1="118.75" x2="281.75" y1="175.8047" y2="175.8047"/><polygon fill="#FFFF44" points="128.75,182.707,132.75,186.707,128.75,190.707,124.75,186.707" style="stroke: #B38D22; stroke-width: 1.0;"/><text fill="#000000" font-family="sans-serif" font-size="11" lengthAdjust="spacingAndGlyphs" textLength="139" x="137.75" y="190.0151">override prepare() : void</text><rect fill="#FEFECE" filter="url(#f1)" height="252.875" style="stroke: #A80036; stroke-width: 1.5;" width="263" x="68.75" y="257.5"/><ellipse cx="173.5" cy="273.5" fill="#ADD1B2" rx="11" ry="11" style="stroke: #A80036; stroke-width: 1.0;"/><path d="M175.8438,269.1719 L176.0156,269.25 C176.2344,268.9375 176.4375,268.8438 176.7344,268.8438 C177.0313,268.8438 177.3125,268.9844 177.4688,269.25 C177.5625,269.4063 177.5781,269.5313 177.5781,269.9688 L177.5781,271.3906 C177.5781,271.8125 177.5469,272 177.4375,272.1563 C177.2656,272.375 177,272.5156 176.7344,272.5156 C176.5156,272.5156 176.2813,272.4063 176.1406,272.2656 C176,272.1406 175.9688,272.0156 175.9063,271.6094 C175.8125,271.2031 175.6406,270.9844 175.1563,270.7031 C174.6875,270.4531 174.0781,270.2969 173.5,270.2969 C171.7656,270.2969 170.5156,271.6094 170.5156,273.3906 L170.5156,274.4844 C170.5156,276.1875 171.8125,277.2813 173.8594,277.2813 C174.625,277.2813 175.3125,277.1563 175.7344,276.8906 C175.9219,276.7969 175.9219,276.7969 176.375,276.3125 C176.5625,276.125 176.7656,276.0469 176.9844,276.0469 C177.4531,276.0469 177.8438,276.4375 177.8438,276.8906 C177.8438,277.2813 177.5156,277.7344 176.9375,278.1406 C176.1875,278.6875 175.0313,278.9844 173.8125,278.9844 C170.9219,278.9844 168.8125,277.0938 168.8125,274.5156 L168.8125,273.3906 C168.8125,270.6719 170.8125,268.5938 173.4375,268.5938 C174.3125,268.5938 174.9063,268.7344 175.8438,269.1719 Z "/><text fill="#000000" font-family="sans-serif" font-size="12" lengthAdjust="spacingAndGlyphs" textLength="45" x="194" y="277.6543">Control</text><line style="stroke: #A80036; stroke-width: 1.5;" x1="69.75" x2="330.75" y1="289.5" y2="289.5"/><rect fill="none" height="6" style="stroke: #C82930; stroke-width: 1.0;" width="6" x="76.75" y="298.4023"/><text fill="#000000" font-family="sans-serif" font-size="11" lengthAdjust="spacingAndGlyphs" textLength="81" x="88.75" y="303.7104">env : CLGLEnv</text><rect fill="none" height="6" style="stroke: #C82930; stroke-width: 1.0;" width="6" x="76.75" y="311.207"/><text fill="#000000" font-family="sans-serif" font-size="11" lengthAdjust="spacingAndGlyphs" textLength="66" x="88.75" y="316.5151">mdl : Model</text><rect fill="none" height="6" style="stroke: #C82930; stroke-width: 1.0;" width="6" x="76.75" y="324.0117"/><text fill="#000000" font-family="sans-serif" font-size="11" lengthAdjust="spacingAndGlyphs" textLength="74" x="88.75" y="329.3198">world : World</text><rect fill="none" height="6" style="stroke: #C82930; stroke-width: 1.0;" width="6" x="76.75" y="336.8164"/><text fill="#000000" font-family="sans-serif" font-size="11" lengthAdjust="spacingAndGlyphs" textLength="136" x="88.75" y="342.1245">worldmap : CLWorldMap</text><rect fill="none" height="6" style="stroke: #C82930; stroke-width: 1.0;" width="6" x="76.75" y="349.6211"/><text fill="#000000" font-family="sans-serif" font-size="11" lengthAdjust="spacingAndGlyphs" textLength="118" x="88.75" y="354.9292">draw_unit : DrawUnit</text><rect fill="none" height="6" style="stroke: #C82930; stroke-width: 1.0;" width="6" x="76.75" y="362.4258"/><text fill="#000000" font-family="sans-serif" font-size="11" lengthAdjust="spacingAndGlyphs" textLength="89" x="88.75" y="367.7339">ddot : CalcPoint</text><rect fill="none" height="6" style="stroke: #C82930; stroke-width: 1.0;" width="6" x="76.75" y="375.2305"/><text fill="#000000" font-family="sans-serif" font-size="11" lengthAdjust="spacingAndGlyphs" textLength="64" x="88.75" y="380.5386">trace : Line</text><rect fill="none" height="6" style="stroke: #C82930; stroke-width: 1.0;" width="6" x="76.75" y="388.0352"/><text fill="#000000" font-family="sans-serif" font-size="11" lengthAdjust="spacingAndGlyphs" textLength="139" x="88.75" y="393.3433">render : GLRenderToTex</text><rect fill="none" height="6" style="stroke: #C82930; stroke-width: 1.0;" width="6" x="76.75" y="400.8398"/><text fill="#000000" font-family="sans-serif" font-size="11" lengthAdjust="spacingAndGlyphs" textLength="113" x="88.75" y="406.1479">buf_depth : Image!2</text><rect fill="none" height="6" style="stroke: #C82930; stroke-width: 1.0;" width="6" x="76.75" y="413.6445"/><text fill="#000000" font-family="sans-serif" font-size="11" lengthAdjust="spacingAndGlyphs" textLength="90" x="88.75" y="418.9526">cam : MCamera</text><line style="stroke: #A80036; stroke-width: 1.0;" x1="69.75" x2="330.75" y1="425.5469" y2="425.5469"/><ellipse cx="79.75" cy="437.4492" fill="#84BE84" rx="3" ry="3" style="stroke: #038048; stroke-width: 1.0;"/><text fill="#000000" font-family="sans-serif" font-size="11" lengthAdjust="spacingAndGlyphs" textLength="63" x="88.75" y="439.7573">idle() : void</text><ellipse cx="79.75" cy="450.2539" fill="#84BE84" rx="3" ry="3" style="stroke: #038048; stroke-width: 1.0;"/><text fill="#000000" font-family="sans-serif" font-size="11" lengthAdjust="spacingAndGlyphs" textLength="71" x="88.75" y="452.562">draw() : void</text><ellipse cx="79.75" cy="463.0586" fill="#84BE84" rx="3" ry="3" style="stroke: #038048; stroke-width: 1.0;"/><text fill="#000000" font-family="sans-serif" font-size="11" lengthAdjust="spacingAndGlyphs" textLength="64" x="88.75" y="465.3667">quit() : void</text><ellipse cx="79.75" cy="475.8633" fill="#84BE84" rx="3" ry="3" style="stroke: #038048; stroke-width: 1.0;"/><text fill="#000000" font-family="sans-serif" font-size="11" lengthAdjust="spacingAndGlyphs" textLength="233" x="88.75" y="478.1714">keyReaction( in KeyboardEvent ev ) : void</text><ellipse cx="79.75" cy="488.668" fill="#84BE84" rx="3" ry="3" style="stroke: #038048; stroke-width: 1.0;"/><text fill="#000000" font-family="sans-serif" font-size="11" lengthAdjust="spacingAndGlyphs" textLength="237" x="88.75" y="490.9761">mouseReaction( in MouseEvent ev ) : void</text><ellipse cx="79.75" cy="501.4727" fill="#84BE84" rx="3" ry="3" style="stroke: #038048; stroke-width: 1.0;"/><text fill="#000000" font-family="sans-serif" font-size="11" lengthAdjust="spacingAndGlyphs" textLength="130" x="88.75" y="503.7808">resize( ivec2 sz ) : void</text><rect fill="#FEFECE" filter="url(#f1)" height="124.8281" style="stroke: #A80036; stroke-width: 1.5;" width="153" x="424.75" y="321.5"/><ellipse cx="460.45" cy="337.5" fill="#ADD1B2" rx="11" ry="11" style="stroke: #A80036; stroke-width: 1.0;"/><path d="M462.7938,333.1719 L462.9656,333.25 C463.1844,332.9375 463.3875,332.8438 463.6844,332.8438 C463.9813,332.8438 464.2625,332.9844 464.4188,333.25 C464.5125,333.4063 464.5281,333.5313 464.5281,333.9688 L464.5281,335.3906 C464.5281,335.8125 464.4969,336 464.3875,336.1563 C464.2156,336.375 463.95,336.5156 463.6844,336.5156 C463.4656,336.5156 463.2313,336.4063 463.0906,336.2656 C462.95,336.1406 462.9188,336.0156 462.8563,335.6094 C462.7625,335.2031 462.5906,334.9844 462.1063,334.7031 C461.6375,334.4531 461.0281,334.2969 460.45,334.2969 C458.7156,334.2969 457.4656,335.6094 457.4656,337.3906 L457.4656,338.4844 C457.4656,340.1875 458.7625,341.2813 460.8094,341.2813 C461.575,341.2813 462.2625,341.1563 462.6844,340.8906 C462.8719,340.7969 462.8719,340.7969 463.325,340.3125 C463.5125,340.125 463.7156,340.0469 463.9344,340.0469 C464.4031,340.0469 464.7938,340.4375 464.7938,340.8906 C464.7938,341.2813 464.4656,341.7344 463.8875,342.1406 C463.1375,342.6875 461.9813,342.9844 460.7625,342.9844 C457.8719,342.9844 455.7625,341.0938 455.7625,338.5156 L455.7625,337.3906 C455.7625,334.6719 457.7625,332.5938 460.3875,332.5938 C461.2625,332.5938 461.8563,332.7344 462.7938,333.1719 Z "/><text fill="#000000" font-family="sans-serif" font-size="12" lengthAdjust="spacingAndGlyphs" textLength="75" x="479.05" y="341.6543">CLWorldMap</text><line style="stroke: #A80036; stroke-width: 1.5;" x1="425.75" x2="576.75" y1="353.5" y2="353.5"/><polygon fill="none" points="435.75,360.4023,439.75,364.4023,435.75,368.4023,431.75,364.4023" style="stroke: #B38D22; stroke-width: 1.0;"/><text fill="#000000" font-family="sans-serif" font-size="11" lengthAdjust="spacingAndGlyphs" textLength="81" x="444.75" y="367.7104">env : CLGLEnv</text><polygon fill="none" points="435.75,373.207,439.75,377.207,435.75,381.207,431.75,377.207" style="stroke: #B38D22; stroke-width: 1.0;"/><text fill="#000000" font-family="sans-serif" font-size="11" lengthAdjust="spacingAndGlyphs" textLength="103" x="444.75" y="380.5151">dmap : CalcBuffer</text><polygon fill="none" points="435.75,386.0117,439.75,390.0117,435.75,394.0117,431.75,390.0117" style="stroke: #B38D22; stroke-width: 1.0;"/><text fill="#000000" font-family="sans-serif" font-size="11" lengthAdjust="spacingAndGlyphs" textLength="97" x="444.75" y="393.3198">near : CalcBuffer</text><polygon fill="none" points="435.75,398.8164,439.75,402.8164,435.75,406.8164,431.75,402.8164" style="stroke: #B38D22; stroke-width: 1.0;"/><text fill="#000000" font-family="sans-serif" font-size="11" lengthAdjust="spacingAndGlyphs" textLength="124" x="444.75" y="406.1245">unitdepth : CalcBuffer</text><polygon fill="none" points="435.75,411.6211,439.75,415.6211,435.75,419.6211,431.75,415.6211" style="stroke: #B38D22; stroke-width: 1.0;"/><text fill="#000000" font-family="sans-serif" font-size="11" lengthAdjust="spacingAndGlyphs" textLength="127" x="444.75" y="418.9292">unitpoints : CalcBuffer</text><polygon fill="none" points="435.75,424.4258,439.75,428.4258,435.75,432.4258,431.75,428.4258" style="stroke: #B38D22; stroke-width: 1.0;"/><text fill="#000000" font-family="sans-serif" font-size="11" lengthAdjust="spacingAndGlyphs" textLength="108" x="444.75" y="431.7339">resolver : Resolver</text><line style="stroke: #A80036; stroke-width: 1.5;" x1="425.75" x2="576.75" y1="438.3281" y2="438.3281"/><rect fill="#FEFECE" filter="url(#f1)" height="48" style="stroke: #A80036; stroke-width: 1.5;" width="134" x="434" y="136"/><ellipse cx="449" cy="152" fill="#ADD1B2" rx="11" ry="11" style="stroke: #A80036; stroke-width: 1.0;"/><path d="M451.3438,147.6719 L451.5156,147.75 C451.7344,147.4375 451.9375,147.3438 452.2344,147.3438 C452.5313,147.3438 452.8125,147.4844 452.9688,147.75 C453.0625,147.9063 453.0781,148.0313 453.0781,148.4688 L453.0781,149.8906 C453.0781,150.3125 453.0469,150.5 452.9375,150.6563 C452.7656,150.875 452.5,151.0156 452.2344,151.0156 C452.0156,151.0156 451.7813,150.9063 451.6406,150.7656 C451.5,150.6406 451.4688,150.5156 451.4063,150.1094 C451.3125,149.7031 451.1406,149.4844 450.6563,149.2031 C450.1875,148.9531 449.5781,148.7969 449,148.7969 C447.2656,148.7969 446.0156,150.1094 446.0156,151.8906 L446.0156,152.9844 C446.0156,154.6875 447.3125,155.7813 449.3594,155.7813 C450.125,155.7813 450.8125,155.6563 451.2344,155.3906 C451.4219,155.2969 451.4219,155.2969 451.875,154.8125 C452.0625,154.625 452.2656,154.5469 452.4844,154.5469 C452.9531,154.5469 453.3438,154.9375 453.3438,155.3906 C453.3438,155.7813 453.0156,156.2344 452.4375,156.6406 C451.6875,157.1875 450.5313,157.4844 449.3125,157.4844 C446.4219,157.4844 444.3125,155.5938 444.3125,153.0156 L444.3125,151.8906 C444.3125,149.1719 446.3125,147.0938 448.9375,147.0938 C449.8125,147.0938 450.4063,147.2344 451.3438,147.6719 Z "/><text fill="#000000" font-family="sans-serif" font-size="12" lengthAdjust="spacingAndGlyphs" textLength="102" x="463" y="156.1543">BaseDrawObject</text><line style="stroke: #A80036; stroke-width: 1.5;" x1="435" x2="567" y1="168" y2="168"/><line style="stroke: #A80036; stroke-width: 1.5;" x1="435" x2="567" y1="176" y2="176"/><path d="M593.568,664.161 C583.246,686.154 564.428,718.015 537,733 C506.732,749.536 413.414,726.761 382,741 C333.53,762.97 293.155,810.11 268.627,844.274 " fill="none" style="stroke: #A80036; stroke-width: 1.0;"/><polygon fill="none" points="274.391,848.247,257.287,860.755,262.857,840.31,274.391,848.247" style="stroke: #A80036; stroke-width: 1.0;"/><path d="M493.289,842.968 C521.173,791.636 567.971,705.486 590.343,664.3 " fill="none" style="stroke: #A80036; stroke-width: 1.0; stroke-dasharray: 7.0,7.0;"/><polygon fill="none" points="499.316,846.538,483.618,860.771,487.014,839.855,499.316,846.538" style="stroke: #A80036; stroke-width: 1.0;"/><path d="M607.502,677.469 C613.758,728.136 624.897,818.368 630.132,860.771 " fill="none" style="stroke: #A80036; stroke-width: 1.0;"/><polygon fill="#A80036" points="605.877,664.3,602.6423,670.7449,607.3474,676.2096,610.5821,669.7647,605.877,664.3" style="stroke: #A80036; stroke-width: 1.0;"/><path d="M200,210.538 C200,224.609 200,240.605 200,257.047 " fill="none" style="stroke: #A80036; stroke-width: 1.0;"/><polygon fill="#A80036" points="200,197.162,196,203.162,200,209.162,204,203.162,200,197.162" style="stroke: #A80036; stroke-width: 1.0;"/><path d="M325.04,520.149 C348.274,545.262 371.114,569.949 389.905,590.259 " fill="none" style="stroke: #A80036; stroke-width: 1.0;"/><polygon fill="#A80036" points="316.123,510.512,317.262,517.6326,324.2729,519.3199,323.1339,512.1993,316.123,510.512" style="stroke: #A80036; stroke-width: 1.0;"/><path d="M195.088,523.627 C194.51,539.938 193.941,555.991 193.42,570.698 " fill="none" style="stroke: #A80036; stroke-width: 1.0;"/><polygon fill="#A80036" points="195.553,510.512,191.3425,516.3662,195.1271,522.5044,199.3375,516.6502,195.553,510.512" style="stroke: #A80036; stroke-width: 1.0;"/><path d="M73.6392,522.03 C64.1318,537.722 55.9445,554.159 50,571 C13.2375,675.148 65.9572,808.154 90.544,860.93 " fill="none" style="stroke: #A80036; stroke-width: 1.0;"/><polygon fill="#A80036" points="80.7823,510.74,74.1939,513.6714,74.3658,520.8804,80.9542,517.9491,80.7823,510.74" style="stroke: #A80036; stroke-width: 1.0;"/><path d="M530.694,458.943 C552.055,512.137 579.496,580.471 593.642,615.696 " fill="none" style="stroke: #A80036; stroke-width: 1.0;"/><polygon fill="#A80036" points="525.822,446.811,524.3461,453.8694,530.2939,457.9466,531.7698,450.8882,525.822,446.811" style="stroke: #A80036; stroke-width: 1.0;"/><path d="M481.628,459.553 C470.686,501.662 457.32,553.102 447.708,590.094 " fill="none" style="stroke: #A80036; stroke-width: 1.0;"/><polygon fill="#A80036" points="484.939,446.811,479.5583,451.6119,481.9204,458.4251,487.3011,453.6243,484.939,446.811" style="stroke: #A80036; stroke-width: 1.0;"/><path d="M501,204.534 C501,237.766 501,283.997 501,321.079 " fill="none" style="stroke: #A80036; stroke-width: 1.0;"/><polygon fill="none" points="494,204.338,501,184.338,508,204.338,494,204.338" style="stroke: #A80036; stroke-width: 1.0;"/></g></svg>