<?xml version="1.0" encoding="UTF-8" standalone="yes"?><svg xmlns="http://www.w3.org/2000/svg" xmlns:xlink="http://www.w3.org/1999/xlink" height="833pt" style="width:943px;height:833px;" version="1.1" viewBox="0 0 943 833" width="943pt"><defs><filter height="300%" id="f1" width="300%" x="-1" y="-1"><feGaussianBlur result="blurOut" stdDeviation="2.0"/><feColorMatrix in="blurOut" result="blurOut2" type="matrix" values="0 0 0 0 0 0 0 0 0 0 0 0 0 0 0 0 0 0 .4 0"/><feOffset dx="4.0" dy="4.0" in="blurOut2" result="blurOut3"/><feBlend in="SourceGraphic" in2="blurOut3" mode="normal"/></filter></defs><g><rect fill="#FFFFFF" filter="url(#f1)" height="116" style="stroke: #000000; stroke-width: 2.0;" width="128" x="673" y="24"/><path d="M781,25 L781,33.2969 L771,43.2969 L673,43.2969 " fill="#FFFFFF" style="stroke: #000000; stroke-width: 2.0;"/><text fill="#000000" font-family="sans-serif" font-size="14" font-weight="bold" lengthAdjust="spacingAndGlyphs" textLength="98" x="676" y="36.9951">des.util.arch</text><rect fill="#FFFFFF" filter="url(#f1)" height="116" style="stroke: #000000; stroke-width: 2.0;" width="279" x="657" y="248"/><path d="M715,249 L715,257.2969 L705,267.2969 L657,267.2969 " fill="#FFFFFF" style="stroke: #000000; stroke-width: 2.0;"/><text fill="#000000" font-family="sans-serif" font-size="14" font-weight="bold" lengthAdjust="spacingAndGlyphs" textLength="48" x="660" y="260.9951">des.gl</text><rect fill="#FFFFFF" filter="url(#f1)" height="116" style="stroke: #000000; stroke-width: 2.0;" width="136" x="274" y="24"/><path d="M365,25 L365,33.2969 L355,43.2969 L274,43.2969 " fill="#FFFFFF" style="stroke: #000000; stroke-width: 2.0;"/><text fill="#000000" font-family="sans-serif" font-size="14" font-weight="bold" lengthAdjust="spacingAndGlyphs" textLength="81" x="277" y="36.9951">des.space</text><rect fill="#FFFFFF" filter="url(#f1)" height="662" style="stroke: #000000; stroke-width: 2.0;" width="611" x="22" y="164"/><path d="M104,165 L104,173.2969 L94,183.2969 L22,183.2969 " fill="#FFFFFF" style="stroke: #000000; stroke-width: 2.0;"/><text fill="#000000" font-family="sans-serif" font-size="14" font-weight="bold" lengthAdjust="spacingAndGlyphs" textLength="72" x="25" y="176.9951">sim.draw</text><rect fill="#FFFFFF" filter="url(#f1)" height="494" style="stroke: #000000; stroke-width: 2.0;" width="563" x="46" y="224"/><path d="M182,225 L182,233.2969 L172,243.2969 L46,243.2969 " fill="#FFFFFF" style="stroke: #000000; stroke-width: 2.0;"/><text fill="#000000" font-family="sans-serif" font-size="14" font-weight="bold" lengthAdjust="spacingAndGlyphs" textLength="126" x="49" y="236.9951">sim.draw.object</text><rect fill="#FEFECE" filter="url(#f1)" height="48" style="stroke: #A80036; stroke-width: 1.5;" width="96" x="689" y="76"/><ellipse cx="704" cy="92" fill="#ADD1B2" rx="11" ry="11" style="stroke: #A80036; stroke-width: 1.0;"/><path d="M706.3438,87.6719 L706.5156,87.75 C706.7344,87.4375 706.9375,87.3438 707.2344,87.3438 C707.5313,87.3438 707.8125,87.4844 707.9688,87.75 C708.0625,87.9063 708.0781,88.0313 708.0781,88.4688 L708.0781,89.8906 C708.0781,90.3125 708.0469,90.5 707.9375,90.6563 C707.7656,90.875 707.5,91.0156 707.2344,91.0156 C707.0156,91.0156 706.7813,90.9063 706.6406,90.7656 C706.5,90.6406 706.4688,90.5156 706.4063,90.1094 C706.3125,89.7031 706.1406,89.4844 705.6563,89.2031 C705.1875,88.9531 704.5781,88.7969 704,88.7969 C702.2656,88.7969 701.0156,90.1094 701.0156,91.8906 L701.0156,92.9844 C701.0156,94.6875 702.3125,95.7813 704.3594,95.7813 C705.125,95.7813 705.8125,95.6563 706.2344,95.3906 C706.4219,95.2969 706.4219,95.2969 706.875,94.8125 C707.0625,94.625 707.2656,94.5469 707.4844,94.5469 C707.9531,94.5469 708.3438,94.9375 708.3438,95.3906 C708.3438,95.7813 708.0156,96.2344 707.4375,96.6406 C706.6875,97.1875 705.5313,97.4844 704.3125,97.4844 C701.4219,97.4844 699.3125,95.5938 699.3125,93.0156 L699.3125,91.8906 C699.3125,89.1719 701.3125,87.0938 703.9375,87.0938 C704.8125,87.0938 705.4063,87.2344 706.3438,87.6719 Z "/><text fill="#000000" font-family="sans-serif" font-size="12" lengthAdjust="spacingAndGlyphs" textLength="64" x="718" y="96.1543">DesObject</text><line style="stroke: #A80036; stroke-width: 1.5;" x1="690" x2="784" y1="108" y2="108"/><line style="stroke: #A80036; stroke-width: 1.5;" x1="690" x2="784" y1="116" y2="116"/><rect fill="#FEFECE" filter="url(#f1)" height="48" style="stroke: #A80036; stroke-width: 1.5;" width="84" x="836" y="300"/><ellipse cx="851" cy="316" fill="#ADD1B2" rx="11" ry="11" style="stroke: #A80036; stroke-width: 1.0;"/><path d="M853.3438,311.6719 L853.5156,311.75 C853.7344,311.4375 853.9375,311.3438 854.2344,311.3438 C854.5313,311.3438 854.8125,311.4844 854.9688,311.75 C855.0625,311.9063 855.0781,312.0313 855.0781,312.4688 L855.0781,313.8906 C855.0781,314.3125 855.0469,314.5 854.9375,314.6563 C854.7656,314.875 854.5,315.0156 854.2344,315.0156 C854.0156,315.0156 853.7813,314.9063 853.6406,314.7656 C853.5,314.6406 853.4688,314.5156 853.4063,314.1094 C853.3125,313.7031 853.1406,313.4844 852.6563,313.2031 C852.1875,312.9531 851.5781,312.7969 851,312.7969 C849.2656,312.7969 848.0156,314.1094 848.0156,315.8906 L848.0156,316.9844 C848.0156,318.6875 849.3125,319.7813 851.3594,319.7813 C852.125,319.7813 852.8125,319.6563 853.2344,319.3906 C853.4219,319.2969 853.4219,319.2969 853.875,318.8125 C854.0625,318.625 854.2656,318.5469 854.4844,318.5469 C854.9531,318.5469 855.3438,318.9375 855.3438,319.3906 C855.3438,319.7813 855.0156,320.2344 854.4375,320.6406 C853.6875,321.1875 852.5313,321.4844 851.3125,321.4844 C848.4219,321.4844 846.3125,319.5938 846.3125,317.0156 L846.3125,315.8906 C846.3125,313.1719 848.3125,311.0938 850.9375,311.0938 C851.8125,311.0938 852.4063,311.2344 853.3438,311.6719 Z "/><text fill="#000000" font-family="sans-serif" font-size="12" lengthAdjust="spacingAndGlyphs" textLength="52" x="865" y="320.1543">GLBuffer</text><line style="stroke: #A80036; stroke-width: 1.5;" x1="837" x2="919" y1="332" y2="332"/><line style="stroke: #A80036; stroke-width: 1.5;" x1="837" x2="919" y1="340" y2="340"/><rect fill="#FEFECE" filter="url(#f1)" height="48" style="stroke: #A80036; stroke-width: 1.5;" width="128" x="673" y="300"/><ellipse cx="688" cy="316" fill="#ADD1B2" rx="11" ry="11" style="stroke: #A80036; stroke-width: 1.0;"/><path d="M690.3438,311.6719 L690.5156,311.75 C690.7344,311.4375 690.9375,311.3438 691.2344,311.3438 C691.5313,311.3438 691.8125,311.4844 691.9688,311.75 C692.0625,311.9063 692.0781,312.0313 692.0781,312.4688 L692.0781,313.8906 C692.0781,314.3125 692.0469,314.5 691.9375,314.6563 C691.7656,314.875 691.5,315.0156 691.2344,315.0156 C691.0156,315.0156 690.7813,314.9063 690.6406,314.7656 C690.5,314.6406 690.4688,314.5156 690.4063,314.1094 C690.3125,313.7031 690.1406,313.4844 689.6563,313.2031 C689.1875,312.9531 688.5781,312.7969 688,312.7969 C686.2656,312.7969 685.0156,314.1094 685.0156,315.8906 L685.0156,316.9844 C685.0156,318.6875 686.3125,319.7813 688.3594,319.7813 C689.125,319.7813 689.8125,319.6563 690.2344,319.3906 C690.4219,319.2969 690.4219,319.2969 690.875,318.8125 C691.0625,318.625 691.2656,318.5469 691.4844,318.5469 C691.9531,318.5469 692.3438,318.9375 692.3438,319.3906 C692.3438,319.7813 692.0156,320.2344 691.4375,320.6406 C690.6875,321.1875 689.5313,321.4844 688.3125,321.4844 C685.4219,321.4844 683.3125,319.5938 683.3125,317.0156 L683.3125,315.8906 C683.3125,313.1719 685.3125,311.0938 687.9375,311.0938 C688.8125,311.0938 689.4063,311.2344 690.3438,311.6719 Z "/><text fill="#000000" font-family="sans-serif" font-size="12" lengthAdjust="spacingAndGlyphs" textLength="96" x="702" y="320.1543">GLSimpleObject</text><line style="stroke: #A80036; stroke-width: 1.5;" x1="674" x2="800" y1="332" y2="332"/><line style="stroke: #A80036; stroke-width: 1.5;" x1="674" x2="800" y1="340" y2="340"/><rect fill="#FEFECE" filter="url(#f1)" height="48" style="stroke: #A80036; stroke-width: 1.5;" width="104" x="290" y="76"/><ellipse cx="305" cy="92" fill="#B4A7E5" rx="11" ry="11" style="stroke: #A80036; stroke-width: 1.0;"/><path d="M305.9531,88.7813 L305.9531,95.2969 L307.6719,95.2969 C308.125,95.2969 308.2656,95.3281 308.4375,95.4531 C308.6719,95.625 308.7813,95.875 308.7813,96.1563 C308.7813,96.7188 308.4219,97 307.6719,97 L302.5313,97 C302.125,97 301.9219,96.9531 301.7656,96.8281 C301.5469,96.6719 301.4063,96.4063 301.4063,96.1563 C301.4063,95.8594 301.5625,95.5781 301.8125,95.4219 C301.9688,95.3125 302.0938,95.2969 302.5313,95.2969 L304.25,95.2969 L304.25,88.7813 L302.5313,88.7813 C302.1094,88.7813 301.9219,88.75 301.7656,88.6406 C301.5469,88.4688 301.4063,88.2188 301.4063,87.9375 C301.4063,87.6563 301.5625,87.3594 301.8125,87.2031 C301.9688,87.1094 302.0938,87.0938 302.5313,87.0938 L307.6719,87.0938 C308.125,87.0938 308.2656,87.125 308.4375,87.2344 C308.6719,87.4063 308.7813,87.6719 308.7813,87.9375 C308.7813,88.2344 308.6406,88.5156 308.375,88.6719 C308.25,88.75 308.0625,88.7813 307.6719,88.7813 Z "/><text fill="#000000" font-family="sans-serif" font-size="12" font-style="italic" lengthAdjust="spacingAndGlyphs" textLength="72" x="319" y="96.1543">SpaceNode</text><line style="stroke: #A80036; stroke-width: 1.5;" x1="291" x2="393" y1="108" y2="108"/><line style="stroke: #A80036; stroke-width: 1.5;" x1="291" x2="393" y1="116" y2="116"/><rect fill="#FEFECE" filter="url(#f1)" height="48" style="stroke: #A80036; stroke-width: 1.5;" width="83" x="398.75" y="762"/><ellipse cx="413.75" cy="778" fill="#ADD1B2" rx="11" ry="11" style="stroke: #A80036; stroke-width: 1.0;"/><path d="M416.0938,773.6719 L416.2656,773.75 C416.4844,773.4375 416.6875,773.3438 416.9844,773.3438 C417.2813,773.3438 417.5625,773.4844 417.7188,773.75 C417.8125,773.9063 417.8281,774.0313 417.8281,774.4688 L417.8281,775.8906 C417.8281,776.3125 417.7969,776.5 417.6875,776.6563 C417.5156,776.875 417.25,777.0156 416.9844,777.0156 C416.7656,777.0156 416.5313,776.9063 416.3906,776.7656 C416.25,776.6406 416.2188,776.5156 416.1563,776.1094 C416.0625,775.7031 415.8906,775.4844 415.4063,775.2031 C414.9375,774.9531 414.3281,774.7969 413.75,774.7969 C412.0156,774.7969 410.7656,776.1094 410.7656,777.8906 L410.7656,778.9844 C410.7656,780.6875 412.0625,781.7813 414.1094,781.7813 C414.875,781.7813 415.5625,781.6563 415.9844,781.3906 C416.1719,781.2969 416.1719,781.2969 416.625,780.8125 C416.8125,780.625 417.0156,780.5469 417.2344,780.5469 C417.7031,780.5469 418.0938,780.9375 418.0938,781.3906 C418.0938,781.7813 417.7656,782.2344 417.1875,782.6406 C416.4375,783.1875 415.2813,783.4844 414.0625,783.4844 C411.1719,783.4844 409.0625,781.5938 409.0625,779.0156 L409.0625,777.8906 C409.0625,775.1719 411.0625,773.0938 413.6875,773.0938 C414.5625,773.0938 415.1563,773.2344 416.0938,773.6719 Z "/><text fill="#000000" font-family="sans-serif" font-size="12" lengthAdjust="spacingAndGlyphs" textLength="51" x="427.75" y="782.1543">CLGLEnv</text><line style="stroke: #A80036; stroke-width: 1.5;" x1="399.75" x2="480.75" y1="794" y2="794"/><line style="stroke: #A80036; stroke-width: 1.5;" x1="399.75" x2="480.75" y1="802" y2="802"/><rect fill="#FEFECE" filter="url(#f1)" height="48" style="stroke: #A80036; stroke-width: 1.5;" width="95" x="518.75" y="762"/><ellipse cx="533.75" cy="778" fill="#ADD1B2" rx="11" ry="11" style="stroke: #A80036; stroke-width: 1.0;"/><path d="M536.0938,773.6719 L536.2656,773.75 C536.4844,773.4375 536.6875,773.3438 536.9844,773.3438 C537.2813,773.3438 537.5625,773.4844 537.7188,773.75 C537.8125,773.9063 537.8281,774.0313 537.8281,774.4688 L537.8281,775.8906 C537.8281,776.3125 537.7969,776.5 537.6875,776.6563 C537.5156,776.875 537.25,777.0156 536.9844,777.0156 C536.7656,777.0156 536.5313,776.9063 536.3906,776.7656 C536.25,776.6406 536.2188,776.5156 536.1563,776.1094 C536.0625,775.7031 535.8906,775.4844 535.4063,775.2031 C534.9375,774.9531 534.3281,774.7969 533.75,774.7969 C532.0156,774.7969 530.7656,776.1094 530.7656,777.8906 L530.7656,778.9844 C530.7656,780.6875 532.0625,781.7813 534.1094,781.7813 C534.875,781.7813 535.5625,781.6563 535.9844,781.3906 C536.1719,781.2969 536.1719,781.2969 536.625,780.8125 C536.8125,780.625 537.0156,780.5469 537.2344,780.5469 C537.7031,780.5469 538.0938,780.9375 538.0938,781.3906 C538.0938,781.7813 537.7656,782.2344 537.1875,782.6406 C536.4375,783.1875 535.2813,783.4844 534.0625,783.4844 C531.1719,783.4844 529.0625,781.5938 529.0625,779.0156 L529.0625,777.8906 C529.0625,775.1719 531.0625,773.0938 533.6875,773.0938 C534.5625,773.0938 535.1563,773.2344 536.0938,773.6719 Z "/><text fill="#000000" font-family="sans-serif" font-size="12" lengthAdjust="spacingAndGlyphs" textLength="63" x="547.75" y="782.1543">CalcBuffer</text><line style="stroke: #A80036; stroke-width: 1.5;" x1="519.75" x2="612.75" y1="794" y2="794"/><line style="stroke: #A80036; stroke-width: 1.5;" x1="519.75" x2="612.75" y1="802" y2="802"/><rect fill="#FEFECE" filter="url(#f1)" height="95.2188" style="stroke: #A80036; stroke-width: 1.5;" width="189" x="247.75" y="276.5"/><ellipse cx="305.5" cy="292.5" fill="#B4A7E5" rx="11" ry="11" style="stroke: #A80036; stroke-width: 1.0;"/><path d="M306.4531,289.2813 L306.4531,295.7969 L308.1719,295.7969 C308.625,295.7969 308.7656,295.8281 308.9375,295.9531 C309.1719,296.125 309.2813,296.375 309.2813,296.6563 C309.2813,297.2188 308.9219,297.5 308.1719,297.5 L303.0313,297.5 C302.625,297.5 302.4219,297.4531 302.2656,297.3281 C302.0469,297.1719 301.9063,296.9063 301.9063,296.6563 C301.9063,296.3594 302.0625,296.0781 302.3125,295.9219 C302.4688,295.8125 302.5938,295.7969 303.0313,295.7969 L304.75,295.7969 L304.75,289.2813 L303.0313,289.2813 C302.6094,289.2813 302.4219,289.25 302.2656,289.1406 C302.0469,288.9688 301.9063,288.7188 301.9063,288.4375 C301.9063,288.1563 302.0625,287.8594 302.3125,287.7031 C302.4688,287.6094 302.5938,287.5938 303.0313,287.5938 L308.1719,287.5938 C308.625,287.5938 308.7656,287.625 308.9375,287.7344 C309.1719,287.9063 309.2813,288.1719 309.2813,288.4375 C309.2813,288.7344 309.1406,289.0156 308.875,289.1719 C308.75,289.25 308.5625,289.2813 308.1719,289.2813 Z "/><text fill="#000000" font-family="sans-serif" font-size="12" font-style="italic" lengthAdjust="spacingAndGlyphs" textLength="65" x="326" y="296.6543">DrawNode</text><line style="stroke: #A80036; stroke-width: 1.5;" x1="248.75" x2="435.75" y1="308.5" y2="308.5"/><ellipse cx="258.75" cy="320.4023" fill="#84BE84" rx="3" ry="3" style="stroke: #038048; stroke-width: 1.0;"/><text fill="#000000" font-family="sans-serif" font-size="11" lengthAdjust="spacingAndGlyphs" textLength="124" x="267.75" y="322.7104">draw( Camera ) : void</text><ellipse cx="258.75" cy="350.0117" fill="none" rx="3" ry="3" style="stroke: #038048; stroke-width: 1.0;"/><text fill="#000000" font-family="sans-serif" font-size="11" lengthAdjust="spacingAndGlyphs" textLength="133" x="267.75" y="352.3198">color : col4 { set, get }</text><ellipse cx="258.75" cy="362.8164" fill="none" rx="3" ry="3" style="stroke: #038048; stroke-width: 1.0;"/><text fill="#000000" font-family="sans-serif" font-size="11" lengthAdjust="spacingAndGlyphs" textLength="163" x="267.75" y="365.1245">needDraw : bool { set, get }</text><line style="stroke: #A80036; stroke-width: 1.0;" x1="248.75" x2="312.25" y1="335.707" y2="335.707"/><text fill="#000000" font-family="sans-serif" font-size="11" lengthAdjust="spacingAndGlyphs" textLength="60" x="312.25" y="339.0151">@property</text><line style="stroke: #A80036; stroke-width: 1.0;" x1="372.25" x2="435.75" y1="335.707" y2="335.707"/><rect fill="#FEFECE" filter="url(#f1)" height="60.8047" style="stroke: #A80036; stroke-width: 1.5;" width="121" x="471.75" y="293.5"/><ellipse cx="488.55" cy="309.5" fill="#ADD1B2" rx="11" ry="11" style="stroke: #A80036; stroke-width: 1.0;"/><path d="M490.8938,305.1719 L491.0656,305.25 C491.2844,304.9375 491.4875,304.8438 491.7844,304.8438 C492.0813,304.8438 492.3625,304.9844 492.5188,305.25 C492.6125,305.4063 492.6281,305.5313 492.6281,305.9688 L492.6281,307.3906 C492.6281,307.8125 492.5969,308 492.4875,308.1563 C492.3156,308.375 492.05,308.5156 491.7844,308.5156 C491.5656,308.5156 491.3313,308.4063 491.1906,308.2656 C491.05,308.1406 491.0188,308.0156 490.9563,307.6094 C490.8625,307.2031 490.6906,306.9844 490.2063,306.7031 C489.7375,306.4531 489.1281,306.2969 488.55,306.2969 C486.8156,306.2969 485.5656,307.6094 485.5656,309.3906 L485.5656,310.4844 C485.5656,312.1875 486.8625,313.2813 488.9094,313.2813 C489.675,313.2813 490.3625,313.1563 490.7844,312.8906 C490.9719,312.7969 490.9719,312.7969 491.425,312.3125 C491.6125,312.125 491.8156,312.0469 492.0344,312.0469 C492.5031,312.0469 492.8938,312.4375 492.8938,312.8906 C492.8938,313.2813 492.5656,313.7344 491.9875,314.1406 C491.2375,314.6875 490.0813,314.9844 488.8625,314.9844 C485.9719,314.9844 483.8625,313.0938 483.8625,310.5156 L483.8625,309.3906 C483.8625,306.6719 485.8625,304.5938 488.4875,304.5938 C489.3625,304.5938 489.9563,304.7344 490.8938,305.1719 Z "/><text fill="#000000" font-family="sans-serif" font-size="12" lengthAdjust="spacingAndGlyphs" textLength="85" x="502.95" y="313.6543">DrawNodeList</text><line style="stroke: #A80036; stroke-width: 1.5;" x1="472.75" x2="591.75" y1="325.5" y2="325.5"/><polygon fill="none" points="482.75,332.4023,486.75,336.4023,482.75,340.4023,478.75,336.4023" style="stroke: #B38D22; stroke-width: 1.0;"/><text fill="#000000" font-family="sans-serif" font-size="11" lengthAdjust="spacingAndGlyphs" textLength="95" x="491.75" y="339.7104">list : DrawNode[]</text><line style="stroke: #A80036; stroke-width: 1.5;" x1="472.75" x2="591.75" y1="346.3047" y2="346.3047"/><rect fill="#FEFECE" filter="url(#f1)" height="48" style="stroke: #A80036; stroke-width: 1.5;" width="134" x="324" y="432"/><ellipse cx="339" cy="448" fill="#ADD1B2" rx="11" ry="11" style="stroke: #A80036; stroke-width: 1.0;"/><path d="M341.3438,443.6719 L341.5156,443.75 C341.7344,443.4375 341.9375,443.3438 342.2344,443.3438 C342.5313,443.3438 342.8125,443.4844 342.9688,443.75 C343.0625,443.9063 343.0781,444.0313 343.0781,444.4688 L343.0781,445.8906 C343.0781,446.3125 343.0469,446.5 342.9375,446.6563 C342.7656,446.875 342.5,447.0156 342.2344,447.0156 C342.0156,447.0156 341.7813,446.9063 341.6406,446.7656 C341.5,446.6406 341.4688,446.5156 341.4063,446.1094 C341.3125,445.7031 341.1406,445.4844 340.6563,445.2031 C340.1875,444.9531 339.5781,444.7969 339,444.7969 C337.2656,444.7969 336.0156,446.1094 336.0156,447.8906 L336.0156,448.9844 C336.0156,450.6875 337.3125,451.7813 339.3594,451.7813 C340.125,451.7813 340.8125,451.6563 341.2344,451.3906 C341.4219,451.2969 341.4219,451.2969 341.875,450.8125 C342.0625,450.625 342.2656,450.5469 342.4844,450.5469 C342.9531,450.5469 343.3438,450.9375 343.3438,451.3906 C343.3438,451.7813 343.0156,452.2344 342.4375,452.6406 C341.6875,453.1875 340.5313,453.4844 339.3125,453.4844 C336.4219,453.4844 334.3125,451.5938 334.3125,449.0156 L334.3125,447.8906 C334.3125,445.1719 336.3125,443.0938 338.9375,443.0938 C339.8125,443.0938 340.4063,443.2344 341.3438,443.6719 Z "/><text fill="#000000" font-family="sans-serif" font-size="12" lengthAdjust="spacingAndGlyphs" textLength="102" x="353" y="452.1543">BaseDrawObject</text><line style="stroke: #A80036; stroke-width: 1.5;" x1="325" x2="457" y1="464" y2="464"/><line style="stroke: #A80036; stroke-width: 1.5;" x1="325" x2="457" y1="472" y2="472"/><rect fill="#FEFECE" filter="url(#f1)" height="48" style="stroke: #A80036; stroke-width: 1.5;" width="143" x="201.75" y="543"/><ellipse cx="216.75" cy="559" fill="#ADD1B2" rx="11" ry="11" style="stroke: #A80036; stroke-width: 1.0;"/><path d="M219.0938,554.6719 L219.2656,554.75 C219.4844,554.4375 219.6875,554.3438 219.9844,554.3438 C220.2813,554.3438 220.5625,554.4844 220.7188,554.75 C220.8125,554.9063 220.8281,555.0313 220.8281,555.4688 L220.8281,556.8906 C220.8281,557.3125 220.7969,557.5 220.6875,557.6563 C220.5156,557.875 220.25,558.0156 219.9844,558.0156 C219.7656,558.0156 219.5313,557.9063 219.3906,557.7656 C219.25,557.6406 219.2188,557.5156 219.1563,557.1094 C219.0625,556.7031 218.8906,556.4844 218.4063,556.2031 C217.9375,555.9531 217.3281,555.7969 216.75,555.7969 C215.0156,555.7969 213.7656,557.1094 213.7656,558.8906 L213.7656,559.9844 C213.7656,561.6875 215.0625,562.7813 217.1094,562.7813 C217.875,562.7813 218.5625,562.6563 218.9844,562.3906 C219.1719,562.2969 219.1719,562.2969 219.625,561.8125 C219.8125,561.625 220.0156,561.5469 220.2344,561.5469 C220.7031,561.5469 221.0938,561.9375 221.0938,562.3906 C221.0938,562.7813 220.7656,563.2344 220.1875,563.6406 C219.4375,564.1875 218.2813,564.4844 217.0625,564.4844 C214.1719,564.4844 212.0625,562.5938 212.0625,560.0156 L212.0625,558.8906 C212.0625,556.1719 214.0625,554.0938 216.6875,554.0938 C217.5625,554.0938 218.1563,554.2344 219.0938,554.6719 Z "/><text fill="#000000" font-family="sans-serif" font-size="12" lengthAdjust="spacingAndGlyphs" textLength="111" x="230.75" y="563.1543">BaseShadeObject</text><line style="stroke: #A80036; stroke-width: 1.5;" x1="202.75" x2="343.75" y1="575" y2="575"/><line style="stroke: #A80036; stroke-width: 1.5;" x1="202.75" x2="343.75" y1="583" y2="583"/><rect fill="#FEFECE" filter="url(#f1)" height="48" style="stroke: #A80036; stroke-width: 1.5;" width="93" x="144.75" y="654"/><ellipse cx="159.75" cy="670" fill="#ADD1B2" rx="11" ry="11" style="stroke: #A80036; stroke-width: 1.0;"/><path d="M162.0938,665.6719 L162.2656,665.75 C162.4844,665.4375 162.6875,665.3438 162.9844,665.3438 C163.2813,665.3438 163.5625,665.4844 163.7188,665.75 C163.8125,665.9063 163.8281,666.0313 163.8281,666.4688 L163.8281,667.8906 C163.8281,668.3125 163.7969,668.5 163.6875,668.6563 C163.5156,668.875 163.25,669.0156 162.9844,669.0156 C162.7656,669.0156 162.5313,668.9063 162.3906,668.7656 C162.25,668.6406 162.2188,668.5156 162.1563,668.1094 C162.0625,667.7031 161.8906,667.4844 161.4063,667.2031 C160.9375,666.9531 160.3281,666.7969 159.75,666.7969 C158.0156,666.7969 156.7656,668.1094 156.7656,669.8906 L156.7656,670.9844 C156.7656,672.6875 158.0625,673.7813 160.1094,673.7813 C160.875,673.7813 161.5625,673.6563 161.9844,673.3906 C162.1719,673.2969 162.1719,673.2969 162.625,672.8125 C162.8125,672.625 163.0156,672.5469 163.2344,672.5469 C163.7031,672.5469 164.0938,672.9375 164.0938,673.3906 C164.0938,673.7813 163.7656,674.2344 163.1875,674.6406 C162.4375,675.1875 161.2813,675.4844 160.0625,675.4844 C157.1719,675.4844 155.0625,673.5938 155.0625,671.0156 L155.0625,669.8906 C155.0625,667.1719 157.0625,665.0938 159.6875,665.0938 C160.5625,665.0938 161.1563,665.2344 162.0938,665.6719 Z "/><text fill="#000000" font-family="sans-serif" font-size="12" lengthAdjust="spacingAndGlyphs" textLength="61" x="173.75" y="674.1543">MultiCube</text><line style="stroke: #A80036; stroke-width: 1.5;" x1="145.75" x2="236.75" y1="686" y2="686"/><line style="stroke: #A80036; stroke-width: 1.5;" x1="145.75" x2="236.75" y1="694" y2="694"/><rect fill="#FEFECE" filter="url(#f1)" height="48" style="stroke: #A80036; stroke-width: 1.5;" width="57" x="535.75" y="543"/><ellipse cx="550.75" cy="559" fill="#ADD1B2" rx="11" ry="11" style="stroke: #A80036; stroke-width: 1.0;"/><path d="M553.0938,554.6719 L553.2656,554.75 C553.4844,554.4375 553.6875,554.3438 553.9844,554.3438 C554.2813,554.3438 554.5625,554.4844 554.7188,554.75 C554.8125,554.9063 554.8281,555.0313 554.8281,555.4688 L554.8281,556.8906 C554.8281,557.3125 554.7969,557.5 554.6875,557.6563 C554.5156,557.875 554.25,558.0156 553.9844,558.0156 C553.7656,558.0156 553.5313,557.9063 553.3906,557.7656 C553.25,557.6406 553.2188,557.5156 553.1563,557.1094 C553.0625,556.7031 552.8906,556.4844 552.4063,556.2031 C551.9375,555.9531 551.3281,555.7969 550.75,555.7969 C549.0156,555.7969 547.7656,557.1094 547.7656,558.8906 L547.7656,559.9844 C547.7656,561.6875 549.0625,562.7813 551.1094,562.7813 C551.875,562.7813 552.5625,562.6563 552.9844,562.3906 C553.1719,562.2969 553.1719,562.2969 553.625,561.8125 C553.8125,561.625 554.0156,561.5469 554.2344,561.5469 C554.7031,561.5469 555.0938,561.9375 555.0938,562.3906 C555.0938,562.7813 554.7656,563.2344 554.1875,563.6406 C553.4375,564.1875 552.2813,564.4844 551.0625,564.4844 C548.1719,564.4844 546.0625,562.5938 546.0625,560.0156 L546.0625,558.8906 C546.0625,556.1719 548.0625,554.0938 550.6875,554.0938 C551.5625,554.0938 552.1563,554.2344 553.0938,554.6719 Z "/><text fill="#000000" font-family="sans-serif" font-size="12" lengthAdjust="spacingAndGlyphs" textLength="25" x="564.75" y="563.1543">Line</text><line style="stroke: #A80036; stroke-width: 1.5;" x1="536.75" x2="591.75" y1="575" y2="575"/><line style="stroke: #A80036; stroke-width: 1.5;" x1="536.75" x2="591.75" y1="583" y2="583"/><rect fill="#FEFECE" filter="url(#f1)" height="48" style="stroke: #A80036; stroke-width: 1.5;" width="67" x="99.75" y="543"/><ellipse cx="114.75" cy="559" fill="#ADD1B2" rx="11" ry="11" style="stroke: #A80036; stroke-width: 1.0;"/><path d="M117.0938,554.6719 L117.2656,554.75 C117.4844,554.4375 117.6875,554.3438 117.9844,554.3438 C118.2813,554.3438 118.5625,554.4844 118.7188,554.75 C118.8125,554.9063 118.8281,555.0313 118.8281,555.4688 L118.8281,556.8906 C118.8281,557.3125 118.7969,557.5 118.6875,557.6563 C118.5156,557.875 118.25,558.0156 117.9844,558.0156 C117.7656,558.0156 117.5313,557.9063 117.3906,557.7656 C117.25,557.6406 117.2188,557.5156 117.1563,557.1094 C117.0625,556.7031 116.8906,556.4844 116.4063,556.2031 C115.9375,555.9531 115.3281,555.7969 114.75,555.7969 C113.0156,555.7969 111.7656,557.1094 111.7656,558.8906 L111.7656,559.9844 C111.7656,561.6875 113.0625,562.7813 115.1094,562.7813 C115.875,562.7813 116.5625,562.6563 116.9844,562.3906 C117.1719,562.2969 117.1719,562.2969 117.625,561.8125 C117.8125,561.625 118.0156,561.5469 118.2344,561.5469 C118.7031,561.5469 119.0938,561.9375 119.0938,562.3906 C119.0938,562.7813 118.7656,563.2344 118.1875,563.6406 C117.4375,564.1875 116.2813,564.4844 115.0625,564.4844 C112.1719,564.4844 110.0625,562.5938 110.0625,560.0156 L110.0625,558.8906 C110.0625,556.1719 112.0625,554.0938 114.6875,554.0938 C115.5625,554.0938 116.1563,554.2344 117.0938,554.6719 Z "/><text fill="#000000" font-family="sans-serif" font-size="12" lengthAdjust="spacingAndGlyphs" textLength="35" x="128.75" y="563.1543">Plane</text><line style="stroke: #A80036; stroke-width: 1.5;" x1="100.75" x2="165.75" y1="575" y2="575"/><line style="stroke: #A80036; stroke-width: 1.5;" x1="100.75" x2="165.75" y1="583" y2="583"/><rect fill="#FEFECE" filter="url(#f1)" height="53.9375" style="stroke: #A80036; stroke-width: 1.5;" width="120" x="380" y="540"/><ellipse cx="395" cy="558.9688" fill="#ADD1B2" rx="11" ry="11" style="stroke: #A80036; stroke-width: 1.0;"/><path d="M397.3438,554.6406 L397.5156,554.7188 C397.7344,554.4063 397.9375,554.3125 398.2344,554.3125 C398.5313,554.3125 398.8125,554.4531 398.9688,554.7188 C399.0625,554.875 399.0781,555 399.0781,555.4375 L399.0781,556.8594 C399.0781,557.2813 399.0469,557.4688 398.9375,557.625 C398.7656,557.8438 398.5,557.9844 398.2344,557.9844 C398.0156,557.9844 397.7813,557.875 397.6406,557.7344 C397.5,557.6094 397.4688,557.4844 397.4063,557.0781 C397.3125,556.6719 397.1406,556.4531 396.6563,556.1719 C396.1875,555.9219 395.5781,555.7656 395,555.7656 C393.2656,555.7656 392.0156,557.0781 392.0156,558.8594 L392.0156,559.9531 C392.0156,561.6563 393.3125,562.75 395.3594,562.75 C396.125,562.75 396.8125,562.625 397.2344,562.3594 C397.4219,562.2656 397.4219,562.2656 397.875,561.7813 C398.0625,561.5938 398.2656,561.5156 398.4844,561.5156 C398.9531,561.5156 399.3438,561.9063 399.3438,562.3594 C399.3438,562.75 399.0156,563.2031 398.4375,563.6094 C397.6875,564.1563 396.5313,564.4531 395.3125,564.4531 C392.4219,564.4531 390.3125,562.5625 390.3125,559.9844 L390.3125,558.8594 C390.3125,556.1406 392.3125,554.0625 394.9375,554.0625 C395.8125,554.0625 396.4063,554.2031 397.3438,554.6406 Z "/><text fill="#000000" font-family="sans-serif" font-size="12" font-style="italic" lengthAdjust="spacingAndGlyphs" textLength="92" x="407" y="556.1387">&lt;&lt;abstract&gt;&gt;</text><text fill="#000000" font-family="sans-serif" font-size="12" lengthAdjust="spacingAndGlyphs" textLength="63" x="421.5" y="570.1074">BasePoint</text><line style="stroke: #A80036; stroke-width: 1.5;" x1="381" x2="499" y1="577.9375" y2="577.9375"/><line style="stroke: #A80036; stroke-width: 1.5;" x1="381" x2="499" y1="585.9375" y2="585.9375"/><rect fill="#FEFECE" filter="url(#f1)" height="48" style="stroke: #A80036; stroke-width: 1.5;" width="64" x="520" y="654"/><ellipse cx="535" cy="670" fill="#ADD1B2" rx="11" ry="11" style="stroke: #A80036; stroke-width: 1.0;"/><path d="M537.3438,665.6719 L537.5156,665.75 C537.7344,665.4375 537.9375,665.3438 538.2344,665.3438 C538.5313,665.3438 538.8125,665.4844 538.9688,665.75 C539.0625,665.9063 539.0781,666.0313 539.0781,666.4688 L539.0781,667.8906 C539.0781,668.3125 539.0469,668.5 538.9375,668.6563 C538.7656,668.875 538.5,669.0156 538.2344,669.0156 C538.0156,669.0156 537.7813,668.9063 537.6406,668.7656 C537.5,668.6406 537.4688,668.5156 537.4063,668.1094 C537.3125,667.7031 537.1406,667.4844 536.6563,667.2031 C536.1875,666.9531 535.5781,666.7969 535,666.7969 C533.2656,666.7969 532.0156,668.1094 532.0156,669.8906 L532.0156,670.9844 C532.0156,672.6875 533.3125,673.7813 535.3594,673.7813 C536.125,673.7813 536.8125,673.6563 537.2344,673.3906 C537.4219,673.2969 537.4219,673.2969 537.875,672.8125 C538.0625,672.625 538.2656,672.5469 538.4844,672.5469 C538.9531,672.5469 539.3438,672.9375 539.3438,673.3906 C539.3438,673.7813 539.0156,674.2344 538.4375,674.6406 C537.6875,675.1875 536.5313,675.4844 535.3125,675.4844 C532.4219,675.4844 530.3125,673.5938 530.3125,671.0156 L530.3125,669.8906 C530.3125,667.1719 532.3125,665.0938 534.9375,665.0938 C535.8125,665.0938 536.4063,665.2344 537.3438,665.6719 Z "/><text fill="#000000" font-family="sans-serif" font-size="12" lengthAdjust="spacingAndGlyphs" textLength="32" x="549" y="674.1543">Point</text><line style="stroke: #A80036; stroke-width: 1.5;" x1="521" x2="583" y1="686" y2="686"/><line style="stroke: #A80036; stroke-width: 1.5;" x1="521" x2="583" y1="694" y2="694"/><rect fill="#FEFECE" filter="url(#f1)" height="48" style="stroke: #A80036; stroke-width: 1.5;" width="90" x="395" y="654"/><ellipse cx="410" cy="670" fill="#ADD1B2" rx="11" ry="11" style="stroke: #A80036; stroke-width: 1.0;"/><path d="M412.3438,665.6719 L412.5156,665.75 C412.7344,665.4375 412.9375,665.3438 413.2344,665.3438 C413.5313,665.3438 413.8125,665.4844 413.9688,665.75 C414.0625,665.9063 414.0781,666.0313 414.0781,666.4688 L414.0781,667.8906 C414.0781,668.3125 414.0469,668.5 413.9375,668.6563 C413.7656,668.875 413.5,669.0156 413.2344,669.0156 C413.0156,669.0156 412.7813,668.9063 412.6406,668.7656 C412.5,668.6406 412.4688,668.5156 412.4063,668.1094 C412.3125,667.7031 412.1406,667.4844 411.6563,667.2031 C411.1875,666.9531 410.5781,666.7969 410,666.7969 C408.2656,666.7969 407.0156,668.1094 407.0156,669.8906 L407.0156,670.9844 C407.0156,672.6875 408.3125,673.7813 410.3594,673.7813 C411.125,673.7813 411.8125,673.6563 412.2344,673.3906 C412.4219,673.2969 412.4219,673.2969 412.875,672.8125 C413.0625,672.625 413.2656,672.5469 413.4844,672.5469 C413.9531,672.5469 414.3438,672.9375 414.3438,673.3906 C414.3438,673.7813 414.0156,674.2344 413.4375,674.6406 C412.6875,675.1875 411.5313,675.4844 410.3125,675.4844 C407.4219,675.4844 405.3125,673.5938 405.3125,671.0156 L405.3125,669.8906 C405.3125,667.1719 407.3125,665.0938 409.9375,665.0938 C410.8125,665.0938 411.4063,665.2344 412.3438,665.6719 Z "/><text fill="#000000" font-family="sans-serif" font-size="12" lengthAdjust="spacingAndGlyphs" textLength="58" x="424" y="674.1543">CalcPoint</text><line style="stroke: #A80036; stroke-width: 1.5;" x1="396" x2="484" y1="686" y2="686"/><line style="stroke: #A80036; stroke-width: 1.5;" x1="396" x2="484" y1="694" y2="694"/><rect fill="#FEFECE" filter="url(#f1)" height="48" style="stroke: #A80036; stroke-width: 1.5;" width="67" x="99.75" y="432"/><ellipse cx="114.75" cy="448" fill="#ADD1B2" rx="11" ry="11" style="stroke: #A80036; stroke-width: 1.0;"/><path d="M117.0938,443.6719 L117.2656,443.75 C117.4844,443.4375 117.6875,443.3438 117.9844,443.3438 C118.2813,443.3438 118.5625,443.4844 118.7188,443.75 C118.8125,443.9063 118.8281,444.0313 118.8281,444.4688 L118.8281,445.8906 C118.8281,446.3125 118.7969,446.5 118.6875,446.6563 C118.5156,446.875 118.25,447.0156 117.9844,447.0156 C117.7656,447.0156 117.5313,446.9063 117.3906,446.7656 C117.25,446.6406 117.2188,446.5156 117.1563,446.1094 C117.0625,445.7031 116.8906,445.4844 116.4063,445.2031 C115.9375,444.9531 115.3281,444.7969 114.75,444.7969 C113.0156,444.7969 111.7656,446.1094 111.7656,447.8906 L111.7656,448.9844 C111.7656,450.6875 113.0625,451.7813 115.1094,451.7813 C115.875,451.7813 116.5625,451.6563 116.9844,451.3906 C117.1719,451.2969 117.1719,451.2969 117.625,450.8125 C117.8125,450.625 118.0156,450.5469 118.2344,450.5469 C118.7031,450.5469 119.0938,450.9375 119.0938,451.3906 C119.0938,451.7813 118.7656,452.2344 118.1875,452.6406 C117.4375,453.1875 116.2813,453.4844 115.0625,453.4844 C112.1719,453.4844 110.0625,451.5938 110.0625,449.0156 L110.0625,447.8906 C110.0625,445.1719 112.0625,443.0938 114.6875,443.0938 C115.5625,443.0938 116.1563,443.2344 117.0938,443.6719 Z "/><text fill="#000000" font-family="sans-serif" font-size="12" lengthAdjust="spacingAndGlyphs" textLength="35" x="128.75" y="452.1543">World</text><line style="stroke: #A80036; stroke-width: 1.5;" x1="100.75" x2="165.75" y1="464" y2="464"/><line style="stroke: #A80036; stroke-width: 1.5;" x1="100.75" x2="165.75" y1="472" y2="472"/><path d="M798.793,135.866 C806.271,141.889 813.274,148.62 819,156 C853.115,199.975 868.483,265.249 874.559,299.721 " fill="none" style="stroke: #A80036; stroke-width: 1.0;"/><polygon fill="none" points="794.677,141.529,782.513,124.179,802.842,130.156,794.677,141.529" style="stroke: #A80036; stroke-width: 1.0;"/><path d="M737,144.615 C737,191.231 737,263.355 737,299.974 " fill="none" style="stroke: #A80036; stroke-width: 1.0;"/><polygon fill="none" points="730,144.338,737,124.338,744,144.338,730,144.338" style="stroke: #A80036; stroke-width: 1.0;"/><path d="M851.756,365.232 C804.209,437.872 700.273,595.503 609,726 C600.646,737.944 591.12,751.0635 583.161,761.8916 " fill="none" style="stroke: #A80036; stroke-width: 1.0;"/><polygon fill="none" points="846.043,361.179,862.846,348.268,857.761,368.839,846.043,361.179" style="stroke: #A80036; stroke-width: 1.0;"/><path d="M342,144.506 C342,182.528 342,237.582 342,276.473 " fill="none" style="stroke: #A80036; stroke-width: 1.0;"/><polygon fill="none" points="335,144.338,342,124.338,349,144.338,335,144.338" style="stroke: #A80036; stroke-width: 1.0;"/><path d="M460.024,357.533 C452.102,358.972 444.18,359.669 436.258,359.623 " fill="none" style="stroke: #A80036; stroke-width: 1.0;"/><polygon fill="#A80036" points="472.909,354.535,466.1587,351.9987,461.2211,357.2542,467.9715,359.7906,472.909,354.535" style="stroke: #A80036; stroke-width: 1.0;"/><path d="M456.301,289.846 C461.837,290.689 467.373,291.896 472.909,293.465 " fill="none" style="stroke: #A80036; stroke-width: 1.0; stroke-dasharray: 7.0,7.0;"/><polygon fill="none" points="455.693,296.82,436.258,288.377,456.716,282.857,455.693,296.82" style="stroke: #A80036; stroke-width: 1.0;"/><path d="M681.598,135.553 C672.989,141.904 664.481,148.814 657,156 C612.73,198.523 572.284,257.947 550.006,293.25 " fill="none" style="stroke: #A80036; stroke-width: 1.0;"/><polygon fill="none" points="677.622,129.792,698.033,124.103,685.625,141.279,677.622,129.792" style="stroke: #A80036; stroke-width: 1.0;"/><path d="M366.761,390.694 C372.311,405.416 377.842,420.092 382.217,431.698 " fill="none" style="stroke: #A80036; stroke-width: 1.0; stroke-dasharray: 7.0,7.0;"/><polygon fill="none" points="360.056,392.749,359.552,371.566,373.156,387.812,360.056,392.749" style="stroke: #A80036; stroke-width: 1.0;"/><path d="M656.594,355.21 C594.326,378.606 509.368,410.526 452.469,431.905 " fill="none" style="stroke: #A80036; stroke-width: 1.0;"/><polygon fill="none" points="654.357,348.573,675.541,348.092,659.281,361.679,654.357,348.573" style="stroke: #A80036; stroke-width: 1.0;"/><path d="M351.062,493.892 C333.49,510.124 313.391,528.689 297.989,542.917 " fill="none" style="stroke: #A80036; stroke-width: 1.0;"/><polygon fill="none" points="346.534,488.545,365.975,480.116,356.034,498.829,346.534,488.545" style="stroke: #A80036; stroke-width: 1.0;"/><path d="M243.562,607.131 C231.766,622.811 218.579,640.339 208.365,653.917 " fill="none" style="stroke: #A80036; stroke-width: 1.0;"/><polygon fill="none" points="237.993,602.89,255.61,591.116,249.18,611.307,237.993,602.89" style="stroke: #A80036; stroke-width: 1.0;"/><path d="M444.971,491.005 C474.983,509.914 511.11,532.676 535.632,548.127 " fill="none" style="stroke: #A80036; stroke-width: 1.0;"/><polygon fill="none" points="440.879,496.7,427.689,480.116,448.342,484.855,440.879,496.7" style="stroke: #A80036; stroke-width: 1.0;"/><path d="M310.443,487.353 C271.844,502.391 225.164,521.3 184,540 C178.209,542.631 172.126,545.571 166.259,548.502 " fill="none" style="stroke: #A80036; stroke-width: 1.0;"/><polygon fill="none" points="308.071,480.766,329.25,480.083,313.119,493.824,308.071,480.766" style="stroke: #A80036; stroke-width: 1.0;"/><path d="M409.673,498.538 C415.913,512.418 422.687,527.488 428.248,539.857 " fill="none" style="stroke: #A80036; stroke-width: 1.0;"/><polygon fill="none" points="403.207,501.228,401.392,480.116,415.977,495.488,403.207,501.228" style="stroke: #A80036; stroke-width: 1.0;"/><path d="M481.242,608.137 C497,623.473 514.438,640.444 528.059,653.7 " fill="none" style="stroke: #A80036; stroke-width: 1.0;"/><polygon fill="none" points="476.277,613.074,466.827,594.108,486.042,603.041,476.277,613.074" style="stroke: #A80036; stroke-width: 1.0;"/><path d="M440,614.378 C440,627.955 440,642.22 440,653.7 " fill="none" style="stroke: #A80036; stroke-width: 1.0;"/><polygon fill="none" points="433,614.108,440,594.108,447,614.108,433,614.108" style="stroke: #A80036; stroke-width: 1.0;"/><path d="M477.426,710.485 C496.944,726.905 520.406,746.643 538.278,761.6784 " fill="none" style="stroke: #A80036; stroke-width: 1.0;"/><polygon fill="#A80036" points="467.34,702,469.3562,708.9235,476.5226,709.7253,474.5064,702.8018,467.34,702" style="stroke: #A80036; stroke-width: 1.0;"/><path d="M440,715.338 C440,730.681 440,748.098 440,761.6784 " fill="none" style="stroke: #A80036; stroke-width: 1.0;"/><polygon fill="#A80036" points="440,702,436,708,440,714,444,708,440,702" style="stroke: #A80036; stroke-width: 1.0;"/><path d="M469.514,364.308 C464.026,367.104 458.475,369.716 453,372 C352.888,413.765 226.179,439.102 166.712,449.503 " fill="none" style="stroke: #A80036; stroke-width: 1.0;"/><polygon fill="none" points="466.292,358.092,487.195,354.618,473.021,370.369,466.292,358.092" style="stroke: #A80036; stroke-width: 1.0;"/><path d="M104.998,490.924 C85.2957,519.157 65.1901,560.071 82,594 C95.1465,620.535 121.286,640.891 144.672,654.802 " fill="none" style="stroke: #A80036; stroke-width: 1.0;"/><polygon fill="#A80036" points="112.735,480.397,105.9585,482.8624,105.6279,490.066,112.4044,487.6005,112.735,480.397" style="stroke: #A80036; stroke-width: 1.0;"/><path d="M133,493.152 C133,509.557 133,528.473 133,542.917 " fill="none" style="stroke: #A80036; stroke-width: 1.0;"/><polygon fill="#A80036" points="133,480.116,129,486.116,133,492.116,137,486.116,133,480.116" style="stroke: #A80036; stroke-width: 1.0;"/></g></svg>