<?xml version="1.0" encoding="UTF-8" standalone="yes"?><svg xmlns="http://www.w3.org/2000/svg" xmlns:xlink="http://www.w3.org/1999/xlink" height="397pt" style="width:1147px;height:397px;" version="1.1" viewBox="0 0 1147 397" width="1147pt"><defs><filter height="300%" id="f1" width="300%" x="-1" y="-1"><feGaussianBlur result="blurOut" stdDeviation="2.0"/><feColorMatrix in="blurOut" result="blurOut2" type="matrix" values="0 0 0 0 0 0 0 0 0 0 0 0 0 0 0 0 0 0 .4 0"/><feOffset dx="4.0" dy="4.0" in="blurOut2" result="blurOut3"/><feBlend in="SourceGraphic" in2="blurOut3" mode="normal"/></filter></defs><g><rect fill="#FFFFFF" filter="url(#f1)" height="366" style="stroke: #000000; stroke-width: 2.0;" width="1118" x="22" y="24"/><path d="M80,25 L80,33.2969 L70,43.2969 L22,43.2969 " fill="#FFFFFF" style="stroke: #000000; stroke-width: 2.0;"/><text fill="#000000" font-family="sans-serif" font-size="14" font-weight="bold" lengthAdjust="spacingAndGlyphs" textLength="48" x="25" y="36.9951">des.gl</text><rect fill="#FEFECE" filter="url(#f1)" height="48" style="stroke: #A80036; stroke-width: 1.5;" width="84" x="1040" y="326"/><ellipse cx="1055" cy="342" fill="#ADD1B2" rx="11" ry="11" style="stroke: #A80036; stroke-width: 1.0;"/><path d="M1057.3438,337.6719 L1057.5156,337.75 C1057.7344,337.4375 1057.9375,337.3438 1058.2344,337.3438 C1058.5313,337.3438 1058.8125,337.4844 1058.9688,337.75 C1059.0625,337.9063 1059.0781,338.0313 1059.0781,338.4688 L1059.0781,339.8906 C1059.0781,340.3125 1059.0469,340.5 1058.9375,340.6563 C1058.7656,340.875 1058.5,341.0156 1058.2344,341.0156 C1058.0156,341.0156 1057.7813,340.9063 1057.6406,340.7656 C1057.5,340.6406 1057.4688,340.5156 1057.4063,340.1094 C1057.3125,339.7031 1057.1406,339.4844 1056.6563,339.2031 C1056.1875,338.9531 1055.5781,338.7969 1055,338.7969 C1053.2656,338.7969 1052.0156,340.1094 1052.0156,341.8906 L1052.0156,342.9844 C1052.0156,344.6875 1053.3125,345.7813 1055.3594,345.7813 C1056.125,345.7813 1056.8125,345.6563 1057.2344,345.3906 C1057.4219,345.2969 1057.4219,345.2969 1057.875,344.8125 C1058.0625,344.625 1058.2656,344.5469 1058.4844,344.5469 C1058.9531,344.5469 1059.3438,344.9375 1059.3438,345.3906 C1059.3438,345.7813 1059.0156,346.2344 1058.4375,346.6406 C1057.6875,347.1875 1056.5313,347.4844 1055.3125,347.4844 C1052.4219,347.4844 1050.3125,345.5938 1050.3125,343.0156 L1050.3125,341.8906 C1050.3125,339.1719 1052.3125,337.0938 1054.9375,337.0938 C1055.8125,337.0938 1056.4063,337.2344 1057.3438,337.6719 Z "/><text fill="#000000" font-family="sans-serif" font-size="12" lengthAdjust="spacingAndGlyphs" textLength="52" x="1069" y="346.1543">GLBuffer</text><line style="stroke: #A80036; stroke-width: 1.5;" x1="1041" x2="1123" y1="358" y2="358"/><line style="stroke: #A80036; stroke-width: 1.5;" x1="1041" x2="1123" y1="366" y2="366"/><rect fill="#FEFECE" filter="url(#f1)" height="48" style="stroke: #A80036; stroke-width: 1.5;" width="72" x="1052" y="193"/><ellipse cx="1067" cy="209" fill="#ADD1B2" rx="11" ry="11" style="stroke: #A80036; stroke-width: 1.0;"/><path d="M1069.3438,204.6719 L1069.5156,204.75 C1069.7344,204.4375 1069.9375,204.3438 1070.2344,204.3438 C1070.5313,204.3438 1070.8125,204.4844 1070.9688,204.75 C1071.0625,204.9063 1071.0781,205.0313 1071.0781,205.4688 L1071.0781,206.8906 C1071.0781,207.3125 1071.0469,207.5 1070.9375,207.6563 C1070.7656,207.875 1070.5,208.0156 1070.2344,208.0156 C1070.0156,208.0156 1069.7813,207.9063 1069.6406,207.7656 C1069.5,207.6406 1069.4688,207.5156 1069.4063,207.1094 C1069.3125,206.7031 1069.1406,206.4844 1068.6563,206.2031 C1068.1875,205.9531 1067.5781,205.7969 1067,205.7969 C1065.2656,205.7969 1064.0156,207.1094 1064.0156,208.8906 L1064.0156,209.9844 C1064.0156,211.6875 1065.3125,212.7813 1067.3594,212.7813 C1068.125,212.7813 1068.8125,212.6563 1069.2344,212.3906 C1069.4219,212.2969 1069.4219,212.2969 1069.875,211.8125 C1070.0625,211.625 1070.2656,211.5469 1070.4844,211.5469 C1070.9531,211.5469 1071.3438,211.9375 1071.3438,212.3906 C1071.3438,212.7813 1071.0156,213.2344 1070.4375,213.6406 C1069.6875,214.1875 1068.5313,214.4844 1067.3125,214.4844 C1064.4219,214.4844 1062.3125,212.5938 1062.3125,210.0156 L1062.3125,208.8906 C1062.3125,206.1719 1064.3125,204.0938 1066.9375,204.0938 C1067.8125,204.0938 1068.4063,204.2344 1069.3438,204.6719 Z "/><text fill="#000000" font-family="sans-serif" font-size="12" lengthAdjust="spacingAndGlyphs" textLength="40" x="1081" y="213.1543">GLVAO</text><line style="stroke: #A80036; stroke-width: 1.5;" x1="1053" x2="1123" y1="225" y2="225"/><line style="stroke: #A80036; stroke-width: 1.5;" x1="1053" x2="1123" y1="233" y2="233"/><rect fill="#FEFECE" filter="url(#f1)" height="48" style="stroke: #A80036; stroke-width: 1.5;" width="87" x="1036.75" y="76"/><ellipse cx="1051.75" cy="92" fill="#ADD1B2" rx="11" ry="11" style="stroke: #A80036; stroke-width: 1.0;"/><path d="M1054.0938,87.6719 L1054.2656,87.75 C1054.4844,87.4375 1054.6875,87.3438 1054.9844,87.3438 C1055.2813,87.3438 1055.5625,87.4844 1055.7188,87.75 C1055.8125,87.9063 1055.8281,88.0313 1055.8281,88.4688 L1055.8281,89.8906 C1055.8281,90.3125 1055.7969,90.5 1055.6875,90.6563 C1055.5156,90.875 1055.25,91.0156 1054.9844,91.0156 C1054.7656,91.0156 1054.5313,90.9063 1054.3906,90.7656 C1054.25,90.6406 1054.2188,90.5156 1054.1563,90.1094 C1054.0625,89.7031 1053.8906,89.4844 1053.4063,89.2031 C1052.9375,88.9531 1052.3281,88.7969 1051.75,88.7969 C1050.0156,88.7969 1048.7656,90.1094 1048.7656,91.8906 L1048.7656,92.9844 C1048.7656,94.6875 1050.0625,95.7813 1052.1094,95.7813 C1052.875,95.7813 1053.5625,95.6563 1053.9844,95.3906 C1054.1719,95.2969 1054.1719,95.2969 1054.625,94.8125 C1054.8125,94.625 1055.0156,94.5469 1055.2344,94.5469 C1055.7031,94.5469 1056.0938,94.9375 1056.0938,95.3906 C1056.0938,95.7813 1055.7656,96.2344 1055.1875,96.6406 C1054.4375,97.1875 1053.2813,97.4844 1052.0625,97.4844 C1049.1719,97.4844 1047.0625,95.5938 1047.0625,93.0156 L1047.0625,91.8906 C1047.0625,89.1719 1049.0625,87.0938 1051.6875,87.0938 C1052.5625,87.0938 1053.1563,87.2344 1054.0938,87.6719 Z "/><text fill="#000000" font-family="sans-serif" font-size="12" lengthAdjust="spacingAndGlyphs" textLength="55" x="1065.75" y="96.1543">GLObject</text><line style="stroke: #A80036; stroke-width: 1.5;" x1="1037.75" x2="1122.75" y1="108" y2="108"/><line style="stroke: #A80036; stroke-width: 1.5;" x1="1037.75" x2="1122.75" y1="116" y2="116"/><rect fill="#FEFECE" filter="url(#f1)" height="48" style="stroke: #A80036; stroke-width: 1.5;" width="129" x="809.75" y="326"/><ellipse cx="824.75" cy="342" fill="#ADD1B2" rx="11" ry="11" style="stroke: #A80036; stroke-width: 1.0;"/><path d="M827.0938,337.6719 L827.2656,337.75 C827.4844,337.4375 827.6875,337.3438 827.9844,337.3438 C828.2813,337.3438 828.5625,337.4844 828.7188,337.75 C828.8125,337.9063 828.8281,338.0313 828.8281,338.4688 L828.8281,339.8906 C828.8281,340.3125 828.7969,340.5 828.6875,340.6563 C828.5156,340.875 828.25,341.0156 827.9844,341.0156 C827.7656,341.0156 827.5313,340.9063 827.3906,340.7656 C827.25,340.6406 827.2188,340.5156 827.1563,340.1094 C827.0625,339.7031 826.8906,339.4844 826.4063,339.2031 C825.9375,338.9531 825.3281,338.7969 824.75,338.7969 C823.0156,338.7969 821.7656,340.1094 821.7656,341.8906 L821.7656,342.9844 C821.7656,344.6875 823.0625,345.7813 825.1094,345.7813 C825.875,345.7813 826.5625,345.6563 826.9844,345.3906 C827.1719,345.2969 827.1719,345.2969 827.625,344.8125 C827.8125,344.625 828.0156,344.5469 828.2344,344.5469 C828.7031,344.5469 829.0938,344.9375 829.0938,345.3906 C829.0938,345.7813 828.7656,346.2344 828.1875,346.6406 C827.4375,347.1875 826.2813,347.4844 825.0625,347.4844 C822.1719,347.4844 820.0625,345.5938 820.0625,343.0156 L820.0625,341.8906 C820.0625,339.1719 822.0625,337.0938 824.6875,337.0938 C825.5625,337.0938 826.1563,337.2344 827.0938,337.6719 Z "/><text fill="#000000" font-family="sans-serif" font-size="12" lengthAdjust="spacingAndGlyphs" textLength="97" x="838.75" y="346.1543">GLRenderBuffer</text><line style="stroke: #A80036; stroke-width: 1.5;" x1="810.75" x2="937.75" y1="358" y2="358"/><line style="stroke: #A80036; stroke-width: 1.5;" x1="810.75" x2="937.75" y1="366" y2="366"/><rect fill="#FEFECE" filter="url(#f1)" height="48" style="stroke: #A80036; stroke-width: 1.5;" width="94" x="588" y="326"/><ellipse cx="603" cy="342" fill="#ADD1B2" rx="11" ry="11" style="stroke: #A80036; stroke-width: 1.0;"/><path d="M605.3438,337.6719 L605.5156,337.75 C605.7344,337.4375 605.9375,337.3438 606.2344,337.3438 C606.5313,337.3438 606.8125,337.4844 606.9688,337.75 C607.0625,337.9063 607.0781,338.0313 607.0781,338.4688 L607.0781,339.8906 C607.0781,340.3125 607.0469,340.5 606.9375,340.6563 C606.7656,340.875 606.5,341.0156 606.2344,341.0156 C606.0156,341.0156 605.7813,340.9063 605.6406,340.7656 C605.5,340.6406 605.4688,340.5156 605.4063,340.1094 C605.3125,339.7031 605.1406,339.4844 604.6563,339.2031 C604.1875,338.9531 603.5781,338.7969 603,338.7969 C601.2656,338.7969 600.0156,340.1094 600.0156,341.8906 L600.0156,342.9844 C600.0156,344.6875 601.3125,345.7813 603.3594,345.7813 C604.125,345.7813 604.8125,345.6563 605.2344,345.3906 C605.4219,345.2969 605.4219,345.2969 605.875,344.8125 C606.0625,344.625 606.2656,344.5469 606.4844,344.5469 C606.9531,344.5469 607.3438,344.9375 607.3438,345.3906 C607.3438,345.7813 607.0156,346.2344 606.4375,346.6406 C605.6875,347.1875 604.5313,347.4844 603.3125,347.4844 C600.4219,347.4844 598.3125,345.5938 598.3125,343.0156 L598.3125,341.8906 C598.3125,339.1719 600.3125,337.0938 602.9375,337.0938 C603.8125,337.0938 604.4063,337.2344 605.3438,337.6719 Z "/><text fill="#000000" font-family="sans-serif" font-size="12" lengthAdjust="spacingAndGlyphs" textLength="62" x="617" y="346.1543">GLTexture</text><line style="stroke: #A80036; stroke-width: 1.5;" x1="589" x2="681" y1="358" y2="358"/><line style="stroke: #A80036; stroke-width: 1.5;" x1="589" x2="681" y1="366" y2="366"/><rect fill="#FEFECE" filter="url(#f1)" height="48" style="stroke: #A80036; stroke-width: 1.5;" width="123" x="731.75" y="193"/><ellipse cx="746.75" cy="209" fill="#ADD1B2" rx="11" ry="11" style="stroke: #A80036; stroke-width: 1.0;"/><path d="M749.0938,204.6719 L749.2656,204.75 C749.4844,204.4375 749.6875,204.3438 749.9844,204.3438 C750.2813,204.3438 750.5625,204.4844 750.7188,204.75 C750.8125,204.9063 750.8281,205.0313 750.8281,205.4688 L750.8281,206.8906 C750.8281,207.3125 750.7969,207.5 750.6875,207.6563 C750.5156,207.875 750.25,208.0156 749.9844,208.0156 C749.7656,208.0156 749.5313,207.9063 749.3906,207.7656 C749.25,207.6406 749.2188,207.5156 749.1563,207.1094 C749.0625,206.7031 748.8906,206.4844 748.4063,206.2031 C747.9375,205.9531 747.3281,205.7969 746.75,205.7969 C745.0156,205.7969 743.7656,207.1094 743.7656,208.8906 L743.7656,209.9844 C743.7656,211.6875 745.0625,212.7813 747.1094,212.7813 C747.875,212.7813 748.5625,212.6563 748.9844,212.3906 C749.1719,212.2969 749.1719,212.2969 749.625,211.8125 C749.8125,211.625 750.0156,211.5469 750.2344,211.5469 C750.7031,211.5469 751.0938,211.9375 751.0938,212.3906 C751.0938,212.7813 750.7656,213.2344 750.1875,213.6406 C749.4375,214.1875 748.2813,214.4844 747.0625,214.4844 C744.1719,214.4844 742.0625,212.5938 742.0625,210.0156 L742.0625,208.8906 C742.0625,206.1719 744.0625,204.0938 746.6875,204.0938 C747.5625,204.0938 748.1563,204.2344 749.0938,204.6719 Z "/><text fill="#000000" font-family="sans-serif" font-size="12" lengthAdjust="spacingAndGlyphs" textLength="91" x="760.75" y="213.1543">GLFrameBuffer</text><line style="stroke: #A80036; stroke-width: 1.5;" x1="732.75" x2="853.75" y1="225" y2="225"/><line style="stroke: #A80036; stroke-width: 1.5;" x1="732.75" x2="853.75" y1="233" y2="233"/><rect fill="#FEFECE" filter="url(#f1)" height="48" style="stroke: #A80036; stroke-width: 1.5;" width="92" x="607" y="76"/><ellipse cx="622" cy="92" fill="#ADD1B2" rx="11" ry="11" style="stroke: #A80036; stroke-width: 1.0;"/><path d="M624.3438,87.6719 L624.5156,87.75 C624.7344,87.4375 624.9375,87.3438 625.2344,87.3438 C625.5313,87.3438 625.8125,87.4844 625.9688,87.75 C626.0625,87.9063 626.0781,88.0313 626.0781,88.4688 L626.0781,89.8906 C626.0781,90.3125 626.0469,90.5 625.9375,90.6563 C625.7656,90.875 625.5,91.0156 625.2344,91.0156 C625.0156,91.0156 624.7813,90.9063 624.6406,90.7656 C624.5,90.6406 624.4688,90.5156 624.4063,90.1094 C624.3125,89.7031 624.1406,89.4844 623.6563,89.2031 C623.1875,88.9531 622.5781,88.7969 622,88.7969 C620.2656,88.7969 619.0156,90.1094 619.0156,91.8906 L619.0156,92.9844 C619.0156,94.6875 620.3125,95.7813 622.3594,95.7813 C623.125,95.7813 623.8125,95.6563 624.2344,95.3906 C624.4219,95.2969 624.4219,95.2969 624.875,94.8125 C625.0625,94.625 625.2656,94.5469 625.4844,94.5469 C625.9531,94.5469 626.3438,94.9375 626.3438,95.3906 C626.3438,95.7813 626.0156,96.2344 625.4375,96.6406 C624.6875,97.1875 623.5313,97.4844 622.3125,97.4844 C619.4219,97.4844 617.3125,95.5938 617.3125,93.0156 L617.3125,91.8906 C617.3125,89.1719 619.3125,87.0938 621.9375,87.0938 C622.8125,87.0938 623.4063,87.2344 624.3438,87.6719 Z "/><text fill="#000000" font-family="sans-serif" font-size="12" lengthAdjust="spacingAndGlyphs" textLength="60" x="636" y="96.1543">GLRender</text><line style="stroke: #A80036; stroke-width: 1.5;" x1="608" x2="698" y1="108" y2="108"/><line style="stroke: #A80036; stroke-width: 1.5;" x1="608" x2="698" y1="116" y2="116"/><rect fill="#FEFECE" filter="url(#f1)" height="60.8047" style="stroke: #A80036; stroke-width: 1.5;" width="133" x="400.75" y="186.5"/><ellipse cx="418" cy="202.5" fill="#ADD1B2" rx="11" ry="11" style="stroke: #A80036; stroke-width: 1.0;"/><path d="M420.3438,198.1719 L420.5156,198.25 C420.7344,197.9375 420.9375,197.8438 421.2344,197.8438 C421.5313,197.8438 421.8125,197.9844 421.9688,198.25 C422.0625,198.4063 422.0781,198.5313 422.0781,198.9688 L422.0781,200.3906 C422.0781,200.8125 422.0469,201 421.9375,201.1563 C421.7656,201.375 421.5,201.5156 421.2344,201.5156 C421.0156,201.5156 420.7813,201.4063 420.6406,201.2656 C420.5,201.1406 420.4688,201.0156 420.4063,200.6094 C420.3125,200.2031 420.1406,199.9844 419.6563,199.7031 C419.1875,199.4531 418.5781,199.2969 418,199.2969 C416.2656,199.2969 415.0156,200.6094 415.0156,202.3906 L415.0156,203.4844 C415.0156,205.1875 416.3125,206.2813 418.3594,206.2813 C419.125,206.2813 419.8125,206.1563 420.2344,205.8906 C420.4219,205.7969 420.4219,205.7969 420.875,205.3125 C421.0625,205.125 421.2656,205.0469 421.4844,205.0469 C421.9531,205.0469 422.3438,205.4375 422.3438,205.8906 C422.3438,206.2813 422.0156,206.7344 421.4375,207.1406 C420.6875,207.6875 419.5313,207.9844 418.3125,207.9844 C415.4219,207.9844 413.3125,206.0938 413.3125,203.5156 L413.3125,202.3906 C413.3125,199.6719 415.3125,197.5938 417.9375,197.5938 C418.8125,197.5938 419.4063,197.7344 420.3438,198.1719 Z "/><text fill="#000000" font-family="sans-serif" font-size="12" lengthAdjust="spacingAndGlyphs" textLength="96" x="432.5" y="206.6543">GLRenderToTex</text><line style="stroke: #A80036; stroke-width: 1.5;" x1="401.75" x2="532.75" y1="218.5" y2="218.5"/><text fill="#000000" font-family="sans-serif" font-size="11" lengthAdjust="spacingAndGlyphs" textLength="121" x="406.75" y="232.7104">render all to textures</text><line style="stroke: #A80036; stroke-width: 1.5;" x1="401.75" x2="532.75" y1="239.3047" y2="239.3047"/><rect fill="#FEFECE" filter="url(#f1)" height="48" style="stroke: #A80036; stroke-width: 1.5;" width="92" x="273" y="193"/><ellipse cx="288" cy="209" fill="#ADD1B2" rx="11" ry="11" style="stroke: #A80036; stroke-width: 1.0;"/><path d="M290.3438,204.6719 L290.5156,204.75 C290.7344,204.4375 290.9375,204.3438 291.2344,204.3438 C291.5313,204.3438 291.8125,204.4844 291.9688,204.75 C292.0625,204.9063 292.0781,205.0313 292.0781,205.4688 L292.0781,206.8906 C292.0781,207.3125 292.0469,207.5 291.9375,207.6563 C291.7656,207.875 291.5,208.0156 291.2344,208.0156 C291.0156,208.0156 290.7813,207.9063 290.6406,207.7656 C290.5,207.6406 290.4688,207.5156 290.4063,207.1094 C290.3125,206.7031 290.1406,206.4844 289.6563,206.2031 C289.1875,205.9531 288.5781,205.7969 288,205.7969 C286.2656,205.7969 285.0156,207.1094 285.0156,208.8906 L285.0156,209.9844 C285.0156,211.6875 286.3125,212.7813 288.3594,212.7813 C289.125,212.7813 289.8125,212.6563 290.2344,212.3906 C290.4219,212.2969 290.4219,212.2969 290.875,211.8125 C291.0625,211.625 291.2656,211.5469 291.4844,211.5469 C291.9531,211.5469 292.3438,211.9375 292.3438,212.3906 C292.3438,212.7813 292.0156,213.2344 291.4375,213.6406 C290.6875,214.1875 289.5313,214.4844 288.3125,214.4844 C285.4219,214.4844 283.3125,212.5938 283.3125,210.0156 L283.3125,208.8906 C283.3125,206.1719 285.3125,204.0938 287.9375,204.0938 C288.8125,204.0938 289.4063,204.2344 290.3438,204.6719 Z "/><text fill="#000000" font-family="sans-serif" font-size="12" lengthAdjust="spacingAndGlyphs" textLength="60" x="302" y="213.1543">GLShader</text><line style="stroke: #A80036; stroke-width: 1.5;" x1="274" x2="364" y1="225" y2="225"/><line style="stroke: #A80036; stroke-width: 1.5;" x1="274" x2="364" y1="233" y2="233"/><rect fill="#FEFECE" filter="url(#f1)" height="48" style="stroke: #A80036; stroke-width: 1.5;" width="145" x="135.75" y="76"/><ellipse cx="150.75" cy="92" fill="#ADD1B2" rx="11" ry="11" style="stroke: #A80036; stroke-width: 1.0;"/><path d="M153.0938,87.6719 L153.2656,87.75 C153.4844,87.4375 153.6875,87.3438 153.9844,87.3438 C154.2813,87.3438 154.5625,87.4844 154.7188,87.75 C154.8125,87.9063 154.8281,88.0313 154.8281,88.4688 L154.8281,89.8906 C154.8281,90.3125 154.7969,90.5 154.6875,90.6563 C154.5156,90.875 154.25,91.0156 153.9844,91.0156 C153.7656,91.0156 153.5313,90.9063 153.3906,90.7656 C153.25,90.6406 153.2188,90.5156 153.1563,90.1094 C153.0625,89.7031 152.8906,89.4844 152.4063,89.2031 C151.9375,88.9531 151.3281,88.7969 150.75,88.7969 C149.0156,88.7969 147.7656,90.1094 147.7656,91.8906 L147.7656,92.9844 C147.7656,94.6875 149.0625,95.7813 151.1094,95.7813 C151.875,95.7813 152.5625,95.6563 152.9844,95.3906 C153.1719,95.2969 153.1719,95.2969 153.625,94.8125 C153.8125,94.625 154.0156,94.5469 154.2344,94.5469 C154.7031,94.5469 155.0938,94.9375 155.0938,95.3906 C155.0938,95.7813 154.7656,96.2344 154.1875,96.6406 C153.4375,97.1875 152.2813,97.4844 151.0625,97.4844 C148.1719,97.4844 146.0625,95.5938 146.0625,93.0156 L146.0625,91.8906 C146.0625,89.1719 148.0625,87.0938 150.6875,87.0938 C151.5625,87.0938 152.1563,87.2344 153.0938,87.6719 Z "/><text fill="#000000" font-family="sans-serif" font-size="12" lengthAdjust="spacingAndGlyphs" textLength="113" x="164.75" y="96.1543">GLShaderProgram</text><line style="stroke: #A80036; stroke-width: 1.5;" x1="136.75" x2="279.75" y1="108" y2="108"/><line style="stroke: #A80036; stroke-width: 1.5;" x1="136.75" x2="279.75" y1="116" y2="116"/><rect fill="#FEFECE" filter="url(#f1)" height="48" style="stroke: #A80036; stroke-width: 1.5;" width="199" x="38.75" y="193"/><ellipse cx="53.75" cy="209" fill="#ADD1B2" rx="11" ry="11" style="stroke: #A80036; stroke-width: 1.0;"/><path d="M56.0938,204.6719 L56.2656,204.75 C56.4844,204.4375 56.6875,204.3438 56.9844,204.3438 C57.2813,204.3438 57.5625,204.4844 57.7188,204.75 C57.8125,204.9063 57.8281,205.0313 57.8281,205.4688 L57.8281,206.8906 C57.8281,207.3125 57.7969,207.5 57.6875,207.6563 C57.5156,207.875 57.25,208.0156 56.9844,208.0156 C56.7656,208.0156 56.5313,207.9063 56.3906,207.7656 C56.25,207.6406 56.2188,207.5156 56.1563,207.1094 C56.0625,206.7031 55.8906,206.4844 55.4063,206.2031 C54.9375,205.9531 54.3281,205.7969 53.75,205.7969 C52.0156,205.7969 50.7656,207.1094 50.7656,208.8906 L50.7656,209.9844 C50.7656,211.6875 52.0625,212.7813 54.1094,212.7813 C54.875,212.7813 55.5625,212.6563 55.9844,212.3906 C56.1719,212.2969 56.1719,212.2969 56.625,211.8125 C56.8125,211.625 57.0156,211.5469 57.2344,211.5469 C57.7031,211.5469 58.0938,211.9375 58.0938,212.3906 C58.0938,212.7813 57.7656,213.2344 57.1875,213.6406 C56.4375,214.1875 55.2813,214.4844 54.0625,214.4844 C51.1719,214.4844 49.0625,212.5938 49.0625,210.0156 L49.0625,208.8906 C49.0625,206.1719 51.0625,204.0938 53.6875,204.0938 C54.5625,204.0938 55.1563,204.2344 56.0938,204.6719 Z "/><text fill="#000000" font-family="sans-serif" font-size="12" lengthAdjust="spacingAndGlyphs" textLength="167" x="67.75" y="213.1543">CommonGLShaderProgram</text><line style="stroke: #A80036; stroke-width: 1.5;" x1="39.75" x2="236.75" y1="225" y2="225"/><line style="stroke: #A80036; stroke-width: 1.5;" x1="39.75" x2="236.75" y1="233" y2="233"/><path d="M1082.53,137.355 C1083.79,155.484 1085.28,176.871 1086.38,192.763 " fill="none" style="stroke: #A80036; stroke-width: 1.0;"/><polygon fill="#A80036" points="1081.62,124.272,1078.0456,130.5349,1082.4519,136.2431,1086.0263,129.9803,1081.62,124.272" style="stroke: #A80036; stroke-width: 1.0;"/><text fill="#000000" font-family="sans-serif" font-size="13" lengthAdjust="spacingAndGlyphs" textLength="8" x="1071.7352" y="144.0995">1</text><path d="M812.186,252.509 C819.977,266.185 829.201,281.964 838,296 C844.204,305.896 851.375,316.5899 857.676,325.7629 " fill="none" style="stroke: #A80036; stroke-width: 1.0;"/><polygon fill="#A80036" points="805.756,241.13,805.2246,248.3215,811.6585,251.578,812.1899,244.3865,805.756,241.13" style="stroke: #A80036; stroke-width: 1.0;"/><text fill="#000000" font-family="sans-serif" font-size="13" lengthAdjust="spacingAndGlyphs" textLength="75" x="839" y="291.0669">attachment</text><text fill="#000000" font-family="sans-serif" font-size="13" lengthAdjust="spacingAndGlyphs" textLength="26" x="778.3918" y="260.9229">0..N</text><path d="M754.767,249.7 C726.408,273.212 688.396,304.728 662.87,325.8925 " fill="none" style="stroke: #A80036; stroke-width: 1.0;"/><polygon fill="#A80036" points="765.116,241.119,757.944,241.8689,755.8777,248.7776,763.0497,248.0277,765.116,241.119" style="stroke: #A80036; stroke-width: 1.0;"/><text fill="#000000" font-family="sans-serif" font-size="13" lengthAdjust="spacingAndGlyphs" textLength="75" x="719" y="291.0669">attachment</text><text fill="#000000" font-family="sans-serif" font-size="13" lengthAdjust="spacingAndGlyphs" textLength="26" x="727.8458" y="260.9092">0..N</text><path d="M691.516,132.639 C714.682,151.667 743.658,175.469 764.711,192.763 " fill="none" style="stroke: #A80036; stroke-width: 1.0;"/><polygon fill="#A80036" points="681.331,124.272,683.428,131.1715,690.6033,131.8894,688.5063,124.99,681.331,124.272" style="stroke: #A80036; stroke-width: 1.0;"/><text fill="#000000" font-family="sans-serif" font-size="13" lengthAdjust="spacingAndGlyphs" textLength="8" x="678.0179" y="144.0995">1</text><path d="M636.902,136.513 C630.961,151.464 624.959,169.251 622,186 C613.283,235.342 622.766,294.127 629.496,325.8799 " fill="none" style="stroke: #A80036; stroke-width: 1.0;"/><polygon fill="#A80036" points="642.03,124.202,636.0306,128.2029,637.4162,135.2796,643.4156,131.2787,642.03,124.202" style="stroke: #A80036; stroke-width: 1.0;"/><text fill="#000000" font-family="sans-serif" font-size="13" lengthAdjust="spacingAndGlyphs" textLength="89" x="623" y="221.0669">depth or color</text><text fill="#000000" font-family="sans-serif" font-size="13" lengthAdjust="spacingAndGlyphs" textLength="24" x="611.1873" y="144.0124">0..1</text><path d="M712.071,111.896 C759.967,123.329 826.722,145.474 872,186 C911.746,221.574 938.661,246.03 920,296 C915.865,307.0714 908.26,317.362 900.407,325.8739 " fill="none" style="stroke: #A80036; stroke-width: 1.0;"/><polygon fill="#A80036" points="699.095,108.949,704.0603,114.1783,710.7971,111.6062,705.8318,106.3769,699.095,108.949" style="stroke: #A80036; stroke-width: 1.0;"/><text fill="#000000" font-family="sans-serif" font-size="13" lengthAdjust="spacingAndGlyphs" textLength="89" x="924" y="221.0669">depth or color</text><text fill="#000000" font-family="sans-serif" font-size="13" lengthAdjust="spacingAndGlyphs" textLength="24" x="706.9015" y="105.0852">0..1</text><path d="M598.004,135.003 C571.601,151.327 540.263,170.703 514.858,186.41 " fill="none" style="stroke: #A80036; stroke-width: 1.0;"/><polygon fill="none" points="594.668,128.836,615.36,124.272,602.03,140.744,594.668,128.836" style="stroke: #A80036; stroke-width: 1.0;"/><path d="M1086.7,246.324 C1085.62,270.039 1084.09,303.476 1083.07,325.6719 " fill="none" style="stroke: #A80036; stroke-width: 1.0; stroke-dasharray: 7.0,7.0;"/><polygon fill="#A80036" points="1086.94,241.119,1082.5332,249.9269,1086.7117,246.1138,1090.5248,250.2923,1086.94,241.119" style="stroke: #A80036; stroke-width: 1.0;"/><path d="M239.535,133.672 C257.731,152.523 280.18,175.781 296.571,192.763 " fill="none" style="stroke: #A80036; stroke-width: 1.0;"/><polygon fill="#A80036" points="230.463,124.272,231.7517,131.367,238.7966,132.9063,237.5079,125.8113,230.463,124.272" style="stroke: #A80036; stroke-width: 1.0;"/><text fill="#000000" font-family="sans-serif" font-size="13" lengthAdjust="spacingAndGlyphs" textLength="26" x="205.4649" y="144.0995">0..N</text><path d="M183.406,141.404 C172.939,158.6 161.106,178.04 152.144,192.763 " fill="none" style="stroke: #A80036; stroke-width: 1.0;"/><polygon fill="none" points="177.456,137.716,193.834,124.272,189.415,144.996,177.456,137.716" style="stroke: #A80036; stroke-width: 1.0;"/></g></svg>