<?xml version="1.0" encoding="UTF-8" standalone="yes"?><svg xmlns="http://www.w3.org/2000/svg" xmlns:xlink="http://www.w3.org/1999/xlink" height="1211pt" style="width:980px;height:1211px;" version="1.1" viewBox="0 0 980 1211" width="980pt"><defs><filter height="300%" id="f1" width="300%" x="-1" y="-1"><feGaussianBlur result="blurOut" stdDeviation="2.0"/><feColorMatrix in="blurOut" result="blurOut2" type="matrix" values="0 0 0 0 0 0 0 0 0 0 0 0 0 0 0 0 0 0 .4 0"/><feOffset dx="4.0" dy="4.0" in="blurOut2" result="blurOut3"/><feBlend in="SourceGraphic" in2="blurOut3" mode="normal"/></filter></defs><g><rect fill="#FFFFFF" filter="url(#f1)" height="116" style="stroke: #000000; stroke-width: 2.0;" width="154" x="22" y="231"/><path d="M113,232 L113,240.2969 L103,250.2969 L22,250.2969 " fill="#FFFFFF" style="stroke: #000000; stroke-width: 2.0;"/><text fill="#000000" font-family="sans-serif" font-size="14" font-weight="bold" lengthAdjust="spacingAndGlyphs" textLength="81" x="25" y="243.9951">des.space</text><rect fill="#FFFFFF" filter="url(#f1)" height="116" style="stroke: #000000; stroke-width: 2.0;" width="128" x="716" y="24"/><path d="M824,25 L824,33.2969 L814,43.2969 L716,43.2969 " fill="#FFFFFF" style="stroke: #000000; stroke-width: 2.0;"/><text fill="#000000" font-family="sans-serif" font-size="14" font-weight="bold" lengthAdjust="spacingAndGlyphs" textLength="98" x="719" y="36.9951">des.util.arch</text><rect fill="#FFFFFF" filter="url(#f1)" height="1030" style="stroke: #000000; stroke-width: 2.0;" width="773" x="200" y="174"/><path d="M290,175 L290,183.2969 L280,193.2969 L200,193.2969 " fill="#FFFFFF" style="stroke: #000000; stroke-width: 2.0;"/><text fill="#000000" font-family="sans-serif" font-size="14" font-weight="bold" lengthAdjust="spacingAndGlyphs" textLength="80" x="203" y="186.9951">sim.model</text><rect fill="#FEFECE" filter="url(#f1)" height="48" style="stroke: #A80036; stroke-width: 1.5;" width="121" x="38.75" y="283"/><ellipse cx="53.75" cy="299" fill="#ADD1B2" rx="11" ry="11" style="stroke: #A80036; stroke-width: 1.0;"/><path d="M56.0938,294.6719 L56.2656,294.75 C56.4844,294.4375 56.6875,294.3438 56.9844,294.3438 C57.2813,294.3438 57.5625,294.4844 57.7188,294.75 C57.8125,294.9063 57.8281,295.0313 57.8281,295.4688 L57.8281,296.8906 C57.8281,297.3125 57.7969,297.5 57.6875,297.6563 C57.5156,297.875 57.25,298.0156 56.9844,298.0156 C56.7656,298.0156 56.5313,297.9063 56.3906,297.7656 C56.25,297.6406 56.2188,297.5156 56.1563,297.1094 C56.0625,296.7031 55.8906,296.4844 55.4063,296.2031 C54.9375,295.9531 54.3281,295.7969 53.75,295.7969 C52.0156,295.7969 50.7656,297.1094 50.7656,298.8906 L50.7656,299.9844 C50.7656,301.6875 52.0625,302.7813 54.1094,302.7813 C54.875,302.7813 55.5625,302.6563 55.9844,302.3906 C56.1719,302.2969 56.1719,302.2969 56.625,301.8125 C56.8125,301.625 57.0156,301.5469 57.2344,301.5469 C57.7031,301.5469 58.0938,301.9375 58.0938,302.3906 C58.0938,302.7813 57.7656,303.2344 57.1875,303.6406 C56.4375,304.1875 55.2813,304.4844 54.0625,304.4844 C51.1719,304.4844 49.0625,302.5938 49.0625,300.0156 L49.0625,298.8906 C49.0625,296.1719 51.0625,294.0938 53.6875,294.0938 C54.5625,294.0938 55.1563,294.2344 56.0938,294.6719 Z "/><text fill="#000000" font-family="sans-serif" font-size="12" lengthAdjust="spacingAndGlyphs" textLength="89" x="67.75" y="303.1543">SimpleCamera</text><line style="stroke: #A80036; stroke-width: 1.5;" x1="39.75" x2="158.75" y1="315" y2="315"/><line style="stroke: #A80036; stroke-width: 1.5;" x1="39.75" x2="158.75" y1="323" y2="323"/><rect fill="#FEFECE" filter="url(#f1)" height="48" style="stroke: #A80036; stroke-width: 1.5;" width="96" x="732" y="76"/><ellipse cx="747" cy="92" fill="#ADD1B2" rx="11" ry="11" style="stroke: #A80036; stroke-width: 1.0;"/><path d="M749.3438,87.6719 L749.5156,87.75 C749.7344,87.4375 749.9375,87.3438 750.2344,87.3438 C750.5313,87.3438 750.8125,87.4844 750.9688,87.75 C751.0625,87.9063 751.0781,88.0313 751.0781,88.4688 L751.0781,89.8906 C751.0781,90.3125 751.0469,90.5 750.9375,90.6563 C750.7656,90.875 750.5,91.0156 750.2344,91.0156 C750.0156,91.0156 749.7813,90.9063 749.6406,90.7656 C749.5,90.6406 749.4688,90.5156 749.4063,90.1094 C749.3125,89.7031 749.1406,89.4844 748.6563,89.2031 C748.1875,88.9531 747.5781,88.7969 747,88.7969 C745.2656,88.7969 744.0156,90.1094 744.0156,91.8906 L744.0156,92.9844 C744.0156,94.6875 745.3125,95.7813 747.3594,95.7813 C748.125,95.7813 748.8125,95.6563 749.2344,95.3906 C749.4219,95.2969 749.4219,95.2969 749.875,94.8125 C750.0625,94.625 750.2656,94.5469 750.4844,94.5469 C750.9531,94.5469 751.3438,94.9375 751.3438,95.3906 C751.3438,95.7813 751.0156,96.2344 750.4375,96.6406 C749.6875,97.1875 748.5313,97.4844 747.3125,97.4844 C744.4219,97.4844 742.3125,95.5938 742.3125,93.0156 L742.3125,91.8906 C742.3125,89.1719 744.3125,87.0938 746.9375,87.0938 C747.8125,87.0938 748.4063,87.2344 749.3438,87.6719 Z "/><text fill="#000000" font-family="sans-serif" font-size="12" lengthAdjust="spacingAndGlyphs" textLength="64" x="761" y="96.1543">DesObject</text><line style="stroke: #A80036; stroke-width: 1.5;" x1="733" x2="827" y1="108" y2="108"/><line style="stroke: #A80036; stroke-width: 1.5;" x1="733" x2="827" y1="116" y2="116"/><rect fill="#FEFECE" filter="url(#f1)" height="79.5469" style="stroke: #A80036; stroke-width: 1.5;" width="104" x="712" y="267"/><ellipse cx="727" cy="285.9688" fill="#ADD1B2" rx="11" ry="11" style="stroke: #A80036; stroke-width: 1.0;"/><path d="M729.3438,281.6406 L729.5156,281.7188 C729.7344,281.4063 729.9375,281.3125 730.2344,281.3125 C730.5313,281.3125 730.8125,281.4531 730.9688,281.7188 C731.0625,281.875 731.0781,282 731.0781,282.4375 L731.0781,283.8594 C731.0781,284.2813 731.0469,284.4688 730.9375,284.625 C730.7656,284.8438 730.5,284.9844 730.2344,284.9844 C730.0156,284.9844 729.7813,284.875 729.6406,284.7344 C729.5,284.6094 729.4688,284.4844 729.4063,284.0781 C729.3125,283.6719 729.1406,283.4531 728.6563,283.1719 C728.1875,282.9219 727.5781,282.7656 727,282.7656 C725.2656,282.7656 724.0156,284.0781 724.0156,285.8594 L724.0156,286.9531 C724.0156,288.6563 725.3125,289.75 727.3594,289.75 C728.125,289.75 728.8125,289.625 729.2344,289.3594 C729.4219,289.2656 729.4219,289.2656 729.875,288.7813 C730.0625,288.5938 730.2656,288.5156 730.4844,288.5156 C730.9531,288.5156 731.3438,288.9063 731.3438,289.3594 C731.3438,289.75 731.0156,290.2031 730.4375,290.6094 C729.6875,291.1563 728.5313,291.4531 727.3125,291.4531 C724.4219,291.4531 722.3125,289.5625 722.3125,286.9844 L722.3125,285.8594 C722.3125,283.1406 724.3125,281.0625 726.9375,281.0625 C727.8125,281.0625 728.4063,281.2031 729.3438,281.6406 Z "/><text fill="#000000" font-family="sans-serif" font-size="12" font-style="italic" lengthAdjust="spacingAndGlyphs" textLength="76" x="739" y="283.1387">&lt;&lt;struct&gt;&gt;</text><text fill="#000000" font-family="sans-serif" font-size="12" lengthAdjust="spacingAndGlyphs" textLength="59" x="747.5" y="297.1074">UnitState</text><line style="stroke: #A80036; stroke-width: 1.5;" x1="713" x2="815" y1="304.9375" y2="304.9375"/><ellipse cx="723" cy="316.8398" fill="none" rx="3" ry="3" style="stroke: #038048; stroke-width: 1.0;"/><text fill="#000000" font-family="sans-serif" font-size="11" lengthAdjust="spacingAndGlyphs" textLength="59" x="732" y="319.1479">pos : vec3</text><ellipse cx="723" cy="329.6445" fill="none" rx="3" ry="3" style="stroke: #038048; stroke-width: 1.0;"/><text fill="#000000" font-family="sans-serif" font-size="11" lengthAdjust="spacingAndGlyphs" textLength="54" x="732" y="331.9526">vel : vec3</text><line style="stroke: #A80036; stroke-width: 1.5;" x1="713" x2="815" y1="338.5469" y2="338.5469"/><rect fill="#FEFECE" filter="url(#f1)" height="130.7656" style="stroke: #A80036; stroke-width: 1.5;" width="181" x="459.75" y="476.5"/><ellipse cx="510" cy="495.4688" fill="#ADD1B2" rx="11" ry="11" style="stroke: #A80036; stroke-width: 1.0;"/><path d="M512.3438,491.1406 L512.5156,491.2188 C512.7344,490.9063 512.9375,490.8125 513.2344,490.8125 C513.5313,490.8125 513.8125,490.9531 513.9688,491.2188 C514.0625,491.375 514.0781,491.5 514.0781,491.9375 L514.0781,493.3594 C514.0781,493.7813 514.0469,493.9688 513.9375,494.125 C513.7656,494.3438 513.5,494.4844 513.2344,494.4844 C513.0156,494.4844 512.7813,494.375 512.6406,494.2344 C512.5,494.1094 512.4688,493.9844 512.4063,493.5781 C512.3125,493.1719 512.1406,492.9531 511.6563,492.6719 C511.1875,492.4219 510.5781,492.2656 510,492.2656 C508.2656,492.2656 507.0156,493.5781 507.0156,495.3594 L507.0156,496.4531 C507.0156,498.1563 508.3125,499.25 510.3594,499.25 C511.125,499.25 511.8125,499.125 512.2344,498.8594 C512.4219,498.7656 512.4219,498.7656 512.875,498.2813 C513.0625,498.0938 513.2656,498.0156 513.4844,498.0156 C513.9531,498.0156 514.3438,498.4063 514.3438,498.8594 C514.3438,499.25 514.0156,499.7031 513.4375,500.1094 C512.6875,500.6563 511.5313,500.9531 510.3125,500.9531 C507.4219,500.9531 505.3125,499.0625 505.3125,496.4844 L505.3125,495.3594 C505.3125,492.6406 507.3125,490.5625 509.9375,490.5625 C510.8125,490.5625 511.4063,490.7031 512.3438,491.1406 Z "/><text fill="#000000" font-family="sans-serif" font-size="12" font-style="italic" lengthAdjust="spacingAndGlyphs" textLength="76" x="528.5" y="492.6387">&lt;&lt;struct&gt;&gt;</text><text fill="#000000" font-family="sans-serif" font-size="12" lengthAdjust="spacingAndGlyphs" textLength="72" x="530.5" y="506.6074">UnitParams</text><line style="stroke: #A80036; stroke-width: 1.5;" x1="460.75" x2="639.75" y1="514.4375" y2="514.4375"/><ellipse cx="470.75" cy="526.3398" fill="none" rx="3" ry="3" style="stroke: #038048; stroke-width: 1.0;"/><text fill="#000000" font-family="sans-serif" font-size="11" lengthAdjust="spacingAndGlyphs" textLength="65" x="479.75" y="528.6479">hflim : float</text><ellipse cx="470.75" cy="539.1445" fill="none" rx="3" ry="3" style="stroke: #038048; stroke-width: 1.0;"/><text fill="#000000" font-family="sans-serif" font-size="11" lengthAdjust="spacingAndGlyphs" textLength="68" x="479.75" y="541.4526">vfmin : float</text><ellipse cx="470.75" cy="551.9492" fill="none" rx="3" ry="3" style="stroke: #038048; stroke-width: 1.0;"/><text fill="#000000" font-family="sans-serif" font-size="11" lengthAdjust="spacingAndGlyphs" textLength="71" x="479.75" y="554.2573">vfmax : float</text><ellipse cx="470.75" cy="564.7539" fill="none" rx="3" ry="3" style="stroke: #038048; stroke-width: 1.0;"/><text fill="#000000" font-family="sans-serif" font-size="11" lengthAdjust="spacingAndGlyphs" textLength="67" x="479.75" y="567.062">CxS   : float</text><ellipse cx="470.75" cy="577.5586" fill="none" rx="3" ry="3" style="stroke: #038048; stroke-width: 1.0;"/><text fill="#000000" font-family="sans-serif" font-size="11" lengthAdjust="spacingAndGlyphs" textLength="73" x="479.75" y="579.8667">mass  : float</text><ellipse cx="470.75" cy="590.3633" fill="none" rx="3" ry="3" style="stroke: #038048; stroke-width: 1.0;"/><text fill="#000000" font-family="sans-serif" font-size="11" lengthAdjust="spacingAndGlyphs" textLength="155" x="479.75" y="592.6714">cam   : UnitCameraParams</text><line style="stroke: #A80036; stroke-width: 1.5;" x1="460.75" x2="639.75" y1="599.2656" y2="599.2656"/><rect fill="#FEFECE" filter="url(#f1)" height="117.9609" style="stroke: #A80036; stroke-width: 1.5;" width="208" x="239" y="750"/><ellipse cx="279.2" cy="768.9688" fill="#ADD1B2" rx="11" ry="11" style="stroke: #A80036; stroke-width: 1.0;"/><path d="M281.5438,764.6406 L281.7156,764.7188 C281.9344,764.4063 282.1375,764.3125 282.4344,764.3125 C282.7313,764.3125 283.0125,764.4531 283.1688,764.7188 C283.2625,764.875 283.2781,765 283.2781,765.4375 L283.2781,766.8594 C283.2781,767.2813 283.2469,767.4688 283.1375,767.625 C282.9656,767.8438 282.7,767.9844 282.4344,767.9844 C282.2156,767.9844 281.9813,767.875 281.8406,767.7344 C281.7,767.6094 281.6688,767.4844 281.6063,767.0781 C281.5125,766.6719 281.3406,766.4531 280.8563,766.1719 C280.3875,765.9219 279.7781,765.7656 279.2,765.7656 C277.4656,765.7656 276.2156,767.0781 276.2156,768.8594 L276.2156,769.9531 C276.2156,771.6563 277.5125,772.75 279.5594,772.75 C280.325,772.75 281.0125,772.625 281.4344,772.3594 C281.6219,772.2656 281.6219,772.2656 282.075,771.7813 C282.2625,771.5938 282.4656,771.5156 282.6844,771.5156 C283.1531,771.5156 283.5438,771.9063 283.5438,772.3594 C283.5438,772.75 283.2156,773.2031 282.6375,773.6094 C281.8875,774.1563 280.7313,774.4531 279.5125,774.4531 C276.6219,774.4531 274.5125,772.5625 274.5125,769.9844 L274.5125,768.8594 C274.5125,766.1406 276.5125,764.0625 279.1375,764.0625 C280.0125,764.0625 280.6063,764.2031 281.5438,764.6406 Z "/><text fill="#000000" font-family="sans-serif" font-size="12" font-style="italic" lengthAdjust="spacingAndGlyphs" textLength="76" x="320.8" y="766.1387">&lt;&lt;struct&gt;&gt;</text><text fill="#000000" font-family="sans-serif" font-size="12" lengthAdjust="spacingAndGlyphs" textLength="120" x="298.8" y="780.1074">UnitCameraParams</text><line style="stroke: #A80036; stroke-width: 1.5;" x1="240" x2="446" y1="787.9375" y2="787.9375"/><ellipse cx="250" cy="799.8398" fill="none" rx="3" ry="3" style="stroke: #038048; stroke-width: 1.0;"/><text fill="#000000" font-family="sans-serif" font-size="11" lengthAdjust="spacingAndGlyphs" textLength="54" x="259" y="802.1479">fov : float</text><ellipse cx="250" cy="812.6445" fill="none" rx="3" ry="3" style="stroke: #038048; stroke-width: 1.0;"/><text fill="#000000" font-family="sans-serif" font-size="11" lengthAdjust="spacingAndGlyphs" textLength="59" x="259" y="814.9526">near: float</text><ellipse cx="250" cy="825.4492" fill="none" rx="3" ry="3" style="stroke: #038048; stroke-width: 1.0;"/><text fill="#000000" font-family="sans-serif" font-size="11" lengthAdjust="spacingAndGlyphs" textLength="53" x="259" y="827.7573">far : float</text><ellipse cx="250" cy="838.2539" fill="none" rx="3" ry="3" style="stroke: #038048; stroke-width: 1.0;"/><text fill="#000000" font-family="sans-serif" font-size="11" lengthAdjust="spacingAndGlyphs" textLength="67" x="259" y="840.562">res : uivec2</text><line style="stroke: #A80036; stroke-width: 1.0;" x1="240" x2="446" y1="847.1563" y2="847.1563"/><ellipse cx="250" cy="859.0586" fill="#84BE84" rx="3" ry="3" style="stroke: #038048; stroke-width: 1.0;"/><text fill="#000000" font-family="sans-serif" font-size="11" lengthAdjust="spacingAndGlyphs" textLength="182" x="259" y="861.3667">maxResultDist( float cell ) : float</text><rect fill="#FEFECE" filter="url(#f1)" height="103.2188" style="stroke: #A80036; stroke-width: 1.5;" width="208" x="216" y="490.5"/><ellipse cx="279.25" cy="506.5" fill="#ADD1B2" rx="11" ry="11" style="stroke: #A80036; stroke-width: 1.0;"/><path d="M281.5938,502.1719 L281.7656,502.25 C281.9844,501.9375 282.1875,501.8438 282.4844,501.8438 C282.7813,501.8438 283.0625,501.9844 283.2188,502.25 C283.3125,502.4063 283.3281,502.5313 283.3281,502.9688 L283.3281,504.3906 C283.3281,504.8125 283.2969,505 283.1875,505.1563 C283.0156,505.375 282.75,505.5156 282.4844,505.5156 C282.2656,505.5156 282.0313,505.4063 281.8906,505.2656 C281.75,505.1406 281.7188,505.0156 281.6563,504.6094 C281.5625,504.2031 281.3906,503.9844 280.9063,503.7031 C280.4375,503.4531 279.8281,503.2969 279.25,503.2969 C277.5156,503.2969 276.2656,504.6094 276.2656,506.3906 L276.2656,507.4844 C276.2656,509.1875 277.5625,510.2813 279.6094,510.2813 C280.375,510.2813 281.0625,510.1563 281.4844,509.8906 C281.6719,509.7969 281.6719,509.7969 282.125,509.3125 C282.3125,509.125 282.5156,509.0469 282.7344,509.0469 C283.2031,509.0469 283.5938,509.4375 283.5938,509.8906 C283.5938,510.2813 283.2656,510.7344 282.6875,511.1406 C281.9375,511.6875 280.7813,511.9844 279.5625,511.9844 C276.6719,511.9844 274.5625,510.0938 274.5625,507.5156 L274.5625,506.3906 C274.5625,503.6719 276.5625,501.5938 279.1875,501.5938 C280.0625,501.5938 280.6563,501.7344 281.5938,502.1719 Z "/><text fill="#000000" font-family="sans-serif" font-size="12" lengthAdjust="spacingAndGlyphs" textLength="73" x="299.75" y="510.6543">UnitCamera</text><line style="stroke: #A80036; stroke-width: 1.5;" x1="217" x2="423" y1="522.5" y2="522.5"/><polygon fill="none" points="227,529.4023,231,533.4023,227,537.4023,223,533.4023" style="stroke: #B38D22; stroke-width: 1.0;"/><text fill="#000000" font-family="sans-serif" font-size="11" lengthAdjust="spacingAndGlyphs" textLength="167" x="236" y="536.7104">params : UnitCameraParams</text><ellipse cx="227" cy="564.0117" fill="none" rx="3" ry="3" style="stroke: #038048; stroke-width: 1.0;"/><text fill="#000000" font-family="sans-serif" font-size="11" lengthAdjust="spacingAndGlyphs" textLength="149" x="236" y="566.3198">resolution : uivec2 { get }</text><line style="stroke: #A80036; stroke-width: 1.0;" x1="217" x2="290" y1="549.707" y2="549.707"/><text fill="#000000" font-family="sans-serif" font-size="11" lengthAdjust="spacingAndGlyphs" textLength="60" x="290" y="553.0151">@property</text><line style="stroke: #A80036; stroke-width: 1.0;" x1="350" x2="423" y1="549.707" y2="549.707"/><line style="stroke: #A80036; stroke-width: 1.0;" x1="217" x2="423" y1="572.9141" y2="572.9141"/><ellipse cx="227" cy="584.8164" fill="#84BE84" rx="3" ry="3" style="stroke: #038048; stroke-width: 1.0;"/><text fill="#000000" font-family="sans-serif" font-size="11" lengthAdjust="spacingAndGlyphs" textLength="182" x="236" y="587.1245">maxResultDist( float cell ) : float</text><rect fill="#FEFECE" filter="url(#f1)" height="162.4375" style="stroke: #A80036; stroke-width: 1.5;" width="253" x="389.75" y="226"/><ellipse cx="484" cy="242" fill="#ADD1B2" rx="11" ry="11" style="stroke: #A80036; stroke-width: 1.0;"/><path d="M486.3438,237.6719 L486.5156,237.75 C486.7344,237.4375 486.9375,237.3438 487.2344,237.3438 C487.5313,237.3438 487.8125,237.4844 487.9688,237.75 C488.0625,237.9063 488.0781,238.0313 488.0781,238.4688 L488.0781,239.8906 C488.0781,240.3125 488.0469,240.5 487.9375,240.6563 C487.7656,240.875 487.5,241.0156 487.2344,241.0156 C487.0156,241.0156 486.7813,240.9063 486.6406,240.7656 C486.5,240.6406 486.4688,240.5156 486.4063,240.1094 C486.3125,239.7031 486.1406,239.4844 485.6563,239.2031 C485.1875,238.9531 484.5781,238.7969 484,238.7969 C482.2656,238.7969 481.0156,240.1094 481.0156,241.8906 L481.0156,242.9844 C481.0156,244.6875 482.3125,245.7813 484.3594,245.7813 C485.125,245.7813 485.8125,245.6563 486.2344,245.3906 C486.4219,245.2969 486.4219,245.2969 486.875,244.8125 C487.0625,244.625 487.2656,244.5469 487.4844,244.5469 C487.9531,244.5469 488.3438,244.9375 488.3438,245.3906 C488.3438,245.7813 488.0156,246.2344 487.4375,246.6406 C486.6875,247.1875 485.5313,247.4844 484.3125,247.4844 C481.4219,247.4844 479.3125,245.5938 479.3125,243.0156 L479.3125,241.8906 C479.3125,239.1719 481.3125,237.0938 483.9375,237.0938 C484.8125,237.0938 485.4063,237.2344 486.3438,237.6719 Z "/><text fill="#000000" font-family="sans-serif" font-size="12" lengthAdjust="spacingAndGlyphs" textLength="56" x="504.5" y="246.1543">BaseUnit</text><line style="stroke: #A80036; stroke-width: 1.5;" x1="390.75" x2="641.75" y1="258" y2="258"/><ellipse cx="400.75" cy="286.707" fill="none" rx="3" ry="3" style="stroke: #038048; stroke-width: 1.0;"/><text fill="#000000" font-family="sans-serif" font-size="11" lengthAdjust="spacingAndGlyphs" textLength="97" x="409.75" y="289.0151">state  : UnitState</text><ellipse cx="400.75" cy="299.5117" fill="none" rx="3" ry="3" style="stroke: #038048; stroke-width: 1.0;"/><text fill="#000000" font-family="sans-serif" font-size="11" lengthAdjust="spacingAndGlyphs" textLength="122" x="409.75" y="301.8198">params : UnitParams</text><ellipse cx="400.75" cy="312.3164" fill="none" rx="3" ry="3" style="stroke: #038048; stroke-width: 1.0;"/><text fill="#000000" font-family="sans-serif" font-size="11" lengthAdjust="spacingAndGlyphs" textLength="122" x="409.75" y="314.6245">camera : UnitCamera</text><line style="stroke: #A80036; stroke-width: 1.0;" x1="390.75" x2="486.25" y1="272.4023" y2="272.4023"/><text fill="#000000" font-family="sans-serif" font-size="11" lengthAdjust="spacingAndGlyphs" textLength="60" x="486.25" y="275.7104">@property</text><line style="stroke: #A80036; stroke-width: 1.0;" x1="546.25" x2="641.75" y1="272.4023" y2="272.4023"/><line style="stroke: #A80036; stroke-width: 1.0;" x1="390.75" x2="641.75" y1="321.2188" y2="321.2188"/><ellipse cx="400.75" cy="333.1211" fill="#84BE84" rx="3" ry="3" style="stroke: #038048; stroke-width: 1.0;"/><text fill="#000000" font-family="sans-serif" font-size="11" lengthAdjust="spacingAndGlyphs" textLength="227" x="409.75" y="335.4292">final process( float time, float dt ) : void</text><line style="stroke: #A80036; stroke-width: 1.0;" x1="390.75" x2="641.75" y1="342.0234" y2="342.0234"/><polygon fill="#FFFF44" points="400.75,348.9258,404.75,352.9258,400.75,356.9258,396.75,352.9258" style="stroke: #B38D22; stroke-width: 1.0;"/><text fill="#000000" font-family="sans-serif" font-size="11" font-style="italic" lengthAdjust="spacingAndGlyphs" textLength="180" x="409.75" y="356.2339">logic( float time, float dt ) : void</text><polygon fill="#FFFF44" points="400.75,361.7305,404.75,365.7305,400.75,369.7305,396.75,365.7305" style="stroke: #B38D22; stroke-width: 1.0;"/><text fill="#000000" font-family="sans-serif" font-size="11" font-style="italic" lengthAdjust="spacingAndGlyphs" textLength="227" x="409.75" y="369.0386">controlForce( float time, float dt ) : vec3</text><polygon fill="#FFFF44" points="400.75,374.5352,404.75,378.5352,400.75,382.5352,396.75,378.5352" style="stroke: #B38D22; stroke-width: 1.0;"/><text fill="#000000" font-family="sans-serif" font-size="11" lengthAdjust="spacingAndGlyphs" textLength="93" x="409.75" y="381.8433">postProc() : void</text><rect fill="#FEFECE" filter="url(#f1)" height="117.9609" style="stroke: #A80036; stroke-width: 1.5;" width="170" x="491" y="1035"/><ellipse cx="535.75" cy="1053.9688" fill="#ADD1B2" rx="11" ry="11" style="stroke: #A80036; stroke-width: 1.0;"/><path d="M538.0938,1049.6406 L538.2656,1049.7188 C538.4844,1049.4063 538.6875,1049.3125 538.9844,1049.3125 C539.2813,1049.3125 539.5625,1049.4531 539.7188,1049.7188 C539.8125,1049.875 539.8281,1050 539.8281,1050.4375 L539.8281,1051.8594 C539.8281,1052.2813 539.7969,1052.4688 539.6875,1052.625 C539.5156,1052.8438 539.25,1052.9844 538.9844,1052.9844 C538.7656,1052.9844 538.5313,1052.875 538.3906,1052.7344 C538.25,1052.6094 538.2188,1052.4844 538.1563,1052.0781 C538.0625,1051.6719 537.8906,1051.4531 537.4063,1051.1719 C536.9375,1050.9219 536.3281,1050.7656 535.75,1050.7656 C534.0156,1050.7656 532.7656,1052.0781 532.7656,1053.8594 L532.7656,1054.9531 C532.7656,1056.6563 534.0625,1057.75 536.1094,1057.75 C536.875,1057.75 537.5625,1057.625 537.9844,1057.3594 C538.1719,1057.2656 538.1719,1057.2656 538.625,1056.7813 C538.8125,1056.5938 539.0156,1056.5156 539.2344,1056.5156 C539.7031,1056.5156 540.0938,1056.9063 540.0938,1057.3594 C540.0938,1057.75 539.7656,1058.2031 539.1875,1058.6094 C538.4375,1059.1563 537.2813,1059.4531 536.0625,1059.4531 C533.1719,1059.4531 531.0625,1057.5625 531.0625,1054.9844 L531.0625,1053.8594 C531.0625,1051.1406 533.0625,1049.0625 535.6875,1049.0625 C536.5625,1049.0625 537.1563,1049.2031 538.0938,1049.6406 Z "/><text fill="#000000" font-family="sans-serif" font-size="12" font-style="italic" lengthAdjust="spacingAndGlyphs" textLength="76" x="554.25" y="1051.1387">&lt;&lt;struct&gt;&gt;</text><text fill="#000000" font-family="sans-serif" font-size="12" lengthAdjust="spacingAndGlyphs" textLength="60" x="562.25" y="1065.1074">UnitTrace</text><line style="stroke: #A80036; stroke-width: 1.5;" x1="492" x2="660" y1="1072.9375" y2="1072.9375"/><ellipse cx="502" cy="1084.8398" fill="none" rx="3" ry="3" style="stroke: #038048; stroke-width: 1.0;"/><text fill="#000000" font-family="sans-serif" font-size="11" lengthAdjust="spacingAndGlyphs" textLength="71" x="511" y="1087.1479">data : vec3[]</text><ellipse cx="502" cy="1097.6445" fill="none" rx="3" ry="3" style="stroke: #038048; stroke-width: 1.0;"/><text fill="#000000" font-family="sans-serif" font-size="11" lengthAdjust="spacingAndGlyphs" textLength="85" x="511" y="1099.9526">min_dist : float</text><ellipse cx="502" cy="1110.4492" fill="none" rx="3" ry="3" style="stroke: #038048; stroke-width: 1.0;"/><text fill="#000000" font-family="sans-serif" font-size="11" lengthAdjust="spacingAndGlyphs" textLength="98" x="511" y="1112.7573">max_count : float</text><line style="stroke: #A80036; stroke-width: 1.0;" x1="492" x2="660" y1="1119.3516" y2="1119.3516"/><ellipse cx="502" cy="1131.2539" fill="#84BE84" rx="3" ry="3" style="stroke: #038048; stroke-width: 1.0;"/><text fill="#000000" font-family="sans-serif" font-size="11" lengthAdjust="spacingAndGlyphs" textLength="144" x="511" y="1133.562">append( in vec3 p ) : void</text><ellipse cx="502" cy="1144.0586" fill="#84BE84" rx="3" ry="3" style="stroke: #038048; stroke-width: 1.0;"/><text fill="#000000" font-family="sans-serif" font-size="11" lengthAdjust="spacingAndGlyphs" textLength="73" x="511" y="1146.3667">reset() : void</text><rect fill="#FEFECE" filter="url(#f1)" height="226.4609" style="stroke: #A80036; stroke-width: 1.5;" width="303" x="490.75" y="696"/><ellipse cx="625.5" cy="712" fill="#ADD1B2" rx="11" ry="11" style="stroke: #A80036; stroke-width: 1.0;"/><path d="M627.8438,707.6719 L628.0156,707.75 C628.2344,707.4375 628.4375,707.3438 628.7344,707.3438 C629.0313,707.3438 629.3125,707.4844 629.4688,707.75 C629.5625,707.9063 629.5781,708.0313 629.5781,708.4688 L629.5781,709.8906 C629.5781,710.3125 629.5469,710.5 629.4375,710.6563 C629.2656,710.875 629,711.0156 628.7344,711.0156 C628.5156,711.0156 628.2813,710.9063 628.1406,710.7656 C628,710.6406 627.9688,710.5156 627.9063,710.1094 C627.8125,709.7031 627.6406,709.4844 627.1563,709.2031 C626.6875,708.9531 626.0781,708.7969 625.5,708.7969 C623.7656,708.7969 622.5156,710.1094 622.5156,711.8906 L622.5156,712.9844 C622.5156,714.6875 623.8125,715.7813 625.8594,715.7813 C626.625,715.7813 627.3125,715.6563 627.7344,715.3906 C627.9219,715.2969 627.9219,715.2969 628.375,714.8125 C628.5625,714.625 628.7656,714.5469 628.9844,714.5469 C629.4531,714.5469 629.8438,714.9375 629.8438,715.3906 C629.8438,715.7813 629.5156,716.2344 628.9375,716.6406 C628.1875,717.1875 627.0313,717.4844 625.8125,717.4844 C622.9219,717.4844 620.8125,715.5938 620.8125,713.0156 L620.8125,711.8906 C620.8125,709.1719 622.8125,707.0938 625.4375,707.0938 C626.3125,707.0938 626.9063,707.2344 627.8438,707.6719 Z "/><text fill="#000000" font-family="sans-serif" font-size="12" lengthAdjust="spacingAndGlyphs" textLength="25" x="646" y="716.1543">Unit</text><line style="stroke: #A80036; stroke-width: 1.5;" x1="491.75" x2="792.75" y1="728" y2="728"/><polygon fill="none" points="501.75,734.9023,505.75,738.9023,501.75,742.9023,497.75,738.9023" style="stroke: #B38D22; stroke-width: 1.0;"/><text fill="#000000" font-family="sans-serif" font-size="11" lengthAdjust="spacingAndGlyphs" textLength="88" x="510.75" y="742.2104">trg_point : vec3</text><polygon fill="none" points="501.75,747.707,505.75,751.707,501.75,755.707,497.75,751.707" style="stroke: #B38D22; stroke-width: 1.0;"/><text fill="#000000" font-family="sans-serif" font-size="11" lengthAdjust="spacingAndGlyphs" textLength="94" x="510.75" y="755.0151">way_point : vec3</text><polygon fill="none" points="501.75,760.5117,505.75,764.5117,501.75,768.5117,497.75,764.5117" style="stroke: #B38D22; stroke-width: 1.0;"/><text fill="#000000" font-family="sans-serif" font-size="11" lengthAdjust="spacingAndGlyphs" textLength="70" x="510.75" y="767.8198">near : fRay[]</text><polygon fill="none" points="501.75,773.3164,505.75,777.3164,501.75,781.3164,497.75,777.3164" style="stroke: #B38D22; stroke-width: 1.0;"/><text fill="#000000" font-family="sans-serif" font-size="11" lengthAdjust="spacingAndGlyphs" textLength="87" x="510.75" y="780.6245">hist : UnitTrace</text><polygon fill="none" points="501.75,786.1211,505.75,790.1211,501.75,794.1211,497.75,790.1211" style="stroke: #B38D22; stroke-width: 1.0;"/><text fill="#000000" font-family="sans-serif" font-size="11" lengthAdjust="spacingAndGlyphs" textLength="76" x="510.75" y="793.4292">pid : PID!vec3</text><ellipse cx="501.75" cy="820.7305" fill="none" rx="3" ry="3" style="stroke: #038048; stroke-width: 1.0;"/><text fill="#000000" font-family="sans-serif" font-size="11" lengthAdjust="spacingAndGlyphs" textLength="142" x="510.75" y="823.0386">target : vec3 { set, get }</text><ellipse cx="501.75" cy="833.5352" fill="none" rx="3" ry="3" style="stroke: #038048; stroke-width: 1.0;"/><text fill="#000000" font-family="sans-serif" font-size="11" lengthAdjust="spacingAndGlyphs" textLength="132" x="510.75" y="835.8433">wayPoint : vec3 { get }</text><ellipse cx="501.75" cy="846.3398" fill="#84BE84" rx="3" ry="3" style="stroke: #038048; stroke-width: 1.0;"/><text fill="#000000" font-family="sans-serif" font-size="11" lengthAdjust="spacingAndGlyphs" textLength="198" x="510.75" y="848.6479">trace : ref const(UnitTrace) { get }</text><line style="stroke: #A80036; stroke-width: 1.0;" x1="491.75" x2="612.25" y1="806.4258" y2="806.4258"/><text fill="#000000" font-family="sans-serif" font-size="11" lengthAdjust="spacingAndGlyphs" textLength="60" x="612.25" y="809.7339">@property</text><line style="stroke: #A80036; stroke-width: 1.0;" x1="672.25" x2="792.75" y1="806.4258" y2="806.4258"/><line style="stroke: #A80036; stroke-width: 1.0;" x1="491.75" x2="792.75" y1="855.2422" y2="855.2422"/><ellipse cx="501.75" cy="867.1445" fill="#84BE84" rx="3" ry="3" style="stroke: #038048; stroke-width: 1.0;"/><text fill="#000000" font-family="sans-serif" font-size="11" lengthAdjust="spacingAndGlyphs" textLength="189" x="510.75" y="869.4526">appendNear( in fRay[] d... ) : void</text><line style="stroke: #A80036; stroke-width: 1.0;" x1="491.75" x2="792.75" y1="876.0469" y2="876.0469"/><polygon fill="#FFFF44" points="501.75,882.9492,505.75,886.9492,501.75,890.9492,497.75,886.9492" style="stroke: #B38D22; stroke-width: 1.0;"/><text fill="#000000" font-family="sans-serif" font-size="11" lengthAdjust="spacingAndGlyphs" textLength="230" x="510.75" y="890.2573">override logic( float time, float dt ) : void</text><polygon fill="#FFFF44" points="501.75,895.7539,505.75,899.7539,501.75,903.7539,497.75,899.7539" style="stroke: #B38D22; stroke-width: 1.0;"/><text fill="#000000" font-family="sans-serif" font-size="11" lengthAdjust="spacingAndGlyphs" textLength="144" x="510.75" y="903.062">override postProc() : void</text><polygon fill="#FFFF44" points="501.75,908.5586,505.75,912.5586,501.75,916.5586,497.75,912.5586" style="stroke: #B38D22; stroke-width: 1.0;"/><text fill="#000000" font-family="sans-serif" font-size="11" lengthAdjust="spacingAndGlyphs" textLength="277" x="510.75" y="915.8667">override controlForce( float time, float dt ) : vec3</text><rect fill="#FEFECE" filter="url(#f1)" height="187.2422" style="stroke: #A80036; stroke-width: 1.5;" width="195" x="696.75" y="1000.5"/><ellipse cx="774.5" cy="1016.5" fill="#ADD1B2" rx="11" ry="11" style="stroke: #A80036; stroke-width: 1.0;"/><path d="M776.8438,1012.1719 L777.0156,1012.25 C777.2344,1011.9375 777.4375,1011.8438 777.7344,1011.8438 C778.0313,1011.8438 778.3125,1011.9844 778.4688,1012.25 C778.5625,1012.4063 778.5781,1012.5313 778.5781,1012.9688 L778.5781,1014.3906 C778.5781,1014.8125 778.5469,1015 778.4375,1015.1563 C778.2656,1015.375 778,1015.5156 777.7344,1015.5156 C777.5156,1015.5156 777.2813,1015.4063 777.1406,1015.2656 C777,1015.1406 776.9688,1015.0156 776.9063,1014.6094 C776.8125,1014.2031 776.6406,1013.9844 776.1563,1013.7031 C775.6875,1013.4531 775.0781,1013.2969 774.5,1013.2969 C772.7656,1013.2969 771.5156,1014.6094 771.5156,1016.3906 L771.5156,1017.4844 C771.5156,1019.1875 772.8125,1020.2813 774.8594,1020.2813 C775.625,1020.2813 776.3125,1020.1563 776.7344,1019.8906 C776.9219,1019.7969 776.9219,1019.7969 777.375,1019.3125 C777.5625,1019.125 777.7656,1019.0469 777.9844,1019.0469 C778.4531,1019.0469 778.8438,1019.4375 778.8438,1019.8906 C778.8438,1020.2813 778.5156,1020.7344 777.9375,1021.1406 C777.1875,1021.6875 776.0313,1021.9844 774.8125,1021.9844 C771.9219,1021.9844 769.8125,1020.0938 769.8125,1017.5156 L769.8125,1016.3906 C769.8125,1013.6719 771.8125,1011.5938 774.4375,1011.5938 C775.3125,1011.5938 775.9063,1011.7344 776.8438,1012.1719 Z "/><text fill="#000000" font-family="sans-serif" font-size="12" lengthAdjust="spacingAndGlyphs" textLength="20" x="795" y="1020.6543">PID</text><rect fill="#FFFFFF" height="15.9688" style="stroke: #000000; stroke-width: 1.0; stroke-dasharray: 2.0,2.0;" width="9" x="885.75" y="997.5"/><text fill="#000000" font-family="sans-serif" font-size="12" font-style="italic" lengthAdjust="spacingAndGlyphs" textLength="7" x="886.75" y="1009.6387">T</text><line style="stroke: #A80036; stroke-width: 1.5;" x1="697.75" x2="890.75" y1="1032.5" y2="1032.5"/><text fill="#000000" font-family="sans-serif" font-size="11" lengthAdjust="spacingAndGlyphs" textLength="158" x="702.75" y="1046.7104">assert( hasBasicMathOp!T )</text><line style="stroke: #A80036; stroke-width: 1.0;" x1="697.75" x2="890.75" y1="1053.3047" y2="1053.3047"/><line style="stroke: #A80036; stroke-width: 1.0;" x1="697.75" x2="890.75" y1="1055.3047" y2="1055.3047"/><polygon fill="none" points="707.75,1060.207,711.75,1064.207,707.75,1068.207,703.75,1064.207" style="stroke: #B38D22; stroke-width: 1.0;"/><text fill="#000000" font-family="sans-serif" font-size="11" lengthAdjust="spacingAndGlyphs" textLength="40" x="716.75" y="1067.5151">ibuf : T</text><polygon fill="none" points="707.75,1073.0117,711.75,1077.0117,707.75,1081.0117,703.75,1077.0117" style="stroke: #B38D22; stroke-width: 1.0;"/><text fill="#000000" font-family="sans-serif" font-size="11" lengthAdjust="spacingAndGlyphs" textLength="44" x="716.75" y="1080.3198">dbuf : T</text><line style="stroke: #A80036; stroke-width: 1.0;" x1="697.75" x2="890.75" y1="1086.9141" y2="1086.9141"/><ellipse cx="707.75" cy="1098.8164" fill="none" rx="3" ry="3" style="stroke: #038048; stroke-width: 1.0;"/><text fill="#000000" font-family="sans-serif" font-size="11" lengthAdjust="spacingAndGlyphs" textLength="26" x="716.75" y="1101.1245">P : T</text><ellipse cx="707.75" cy="1111.6211" fill="none" rx="3" ry="3" style="stroke: #038048; stroke-width: 1.0;"/><text fill="#000000" font-family="sans-serif" font-size="11" lengthAdjust="spacingAndGlyphs" textLength="22" x="716.75" y="1113.9292">I : T</text><ellipse cx="707.75" cy="1124.4258" fill="none" rx="3" ry="3" style="stroke: #038048; stroke-width: 1.0;"/><text fill="#000000" font-family="sans-serif" font-size="11" lengthAdjust="spacingAndGlyphs" textLength="27" x="716.75" y="1126.7339">D : T</text><line style="stroke: #A80036; stroke-width: 1.0;" x1="697.75" x2="890.75" y1="1133.3281" y2="1133.3281"/><ellipse cx="707.75" cy="1145.2305" fill="#84BE84" rx="3" ry="3" style="stroke: #038048; stroke-width: 1.0;"/><text fill="#000000" font-family="sans-serif" font-size="11" lengthAdjust="spacingAndGlyphs" textLength="149" x="716.75" y="1147.5386">opCall( in T v, float dt ) : T</text><line style="stroke: #A80036; stroke-width: 1.0;" x1="697.75" x2="890.75" y1="1154.1328" y2="1154.1328"/><polygon fill="#FFFF44" points="707.75,1161.0352,711.75,1165.0352,707.75,1169.0352,703.75,1165.0352" style="stroke: #B38D22; stroke-width: 1.0;"/><text fill="#000000" font-family="sans-serif" font-size="11" lengthAdjust="spacingAndGlyphs" textLength="109" x="716.75" y="1168.3433">integral( in T v ) : T</text><polygon fill="#FFFF44" points="707.75,1173.8398,711.75,1177.8398,707.75,1181.8398,703.75,1177.8398" style="stroke: #B38D22; stroke-width: 1.0;"/><text fill="#000000" font-family="sans-serif" font-size="11" lengthAdjust="spacingAndGlyphs" textLength="169" x="716.75" y="1181.1479">derivative( in T v, float dt ) : T</text><rect fill="#FEFECE" filter="url(#f1)" height="92.3516" style="stroke: #A80036; stroke-width: 1.5;" width="128" x="829" y="763"/><ellipse cx="853" cy="781.9688" fill="#ADD1B2" rx="11" ry="11" style="stroke: #A80036; stroke-width: 1.0;"/><path d="M855.3438,777.6406 L855.5156,777.7188 C855.7344,777.4063 855.9375,777.3125 856.2344,777.3125 C856.5313,777.3125 856.8125,777.4531 856.9688,777.7188 C857.0625,777.875 857.0781,778 857.0781,778.4375 L857.0781,779.8594 C857.0781,780.2813 857.0469,780.4688 856.9375,780.625 C856.7656,780.8438 856.5,780.9844 856.2344,780.9844 C856.0156,780.9844 855.7813,780.875 855.6406,780.7344 C855.5,780.6094 855.4688,780.4844 855.4063,780.0781 C855.3125,779.6719 855.1406,779.4531 854.6563,779.1719 C854.1875,778.9219 853.5781,778.7656 853,778.7656 C851.2656,778.7656 850.0156,780.0781 850.0156,781.8594 L850.0156,782.9531 C850.0156,784.6563 851.3125,785.75 853.3594,785.75 C854.125,785.75 854.8125,785.625 855.2344,785.3594 C855.4219,785.2656 855.4219,785.2656 855.875,784.7813 C856.0625,784.5938 856.2656,784.5156 856.4844,784.5156 C856.9531,784.5156 857.3438,784.9063 857.3438,785.3594 C857.3438,785.75 857.0156,786.2031 856.4375,786.6094 C855.6875,787.1563 854.5313,787.4531 853.3125,787.4531 C850.4219,787.4531 848.3125,785.5625 848.3125,782.9844 L848.3125,781.8594 C848.3125,779.1406 850.3125,777.0625 852.9375,777.0625 C853.8125,777.0625 854.4063,777.2031 855.3438,777.6406 Z "/><text fill="#000000" font-family="sans-serif" font-size="12" font-style="italic" lengthAdjust="spacingAndGlyphs" textLength="76" x="869" y="779.1387">&lt;&lt;struct&gt;&gt;</text><text fill="#000000" font-family="sans-serif" font-size="12" lengthAdjust="spacingAndGlyphs" textLength="76" x="869" y="793.1074">ModelConfig</text><line style="stroke: #A80036; stroke-width: 1.5;" x1="830" x2="956" y1="800.9375" y2="800.9375"/><ellipse cx="840" cy="812.8398" fill="none" rx="3" ry="3" style="stroke: #038048; stroke-width: 1.0;"/><text fill="#000000" font-family="sans-serif" font-size="11" lengthAdjust="spacingAndGlyphs" textLength="44" x="849" y="815.1479">h : float</text><ellipse cx="840" cy="825.6445" fill="none" rx="3" ry="3" style="stroke: #038048; stroke-width: 1.0;"/><text fill="#000000" font-family="sans-serif" font-size="11" lengthAdjust="spacingAndGlyphs" textLength="102" x="849" y="827.9526">unit_count : size_t</text><ellipse cx="840" cy="838.4492" fill="none" rx="3" ry="3" style="stroke: #038048; stroke-width: 1.0;"/><text fill="#000000" font-family="sans-serif" font-size="11" lengthAdjust="spacingAndGlyphs" textLength="91" x="849" y="840.7573">camres : uivec2</text><line style="stroke: #A80036; stroke-width: 1.5;" x1="830" x2="956" y1="847.3516" y2="847.3516"/><rect fill="#FEFECE" filter="url(#f1)" height="183.2422" style="stroke: #A80036; stroke-width: 1.5;" width="244" x="713" y="450.5"/><ellipse cx="812.25" cy="466.5" fill="#ADD1B2" rx="11" ry="11" style="stroke: #A80036; stroke-width: 1.0;"/><path d="M814.5938,462.1719 L814.7656,462.25 C814.9844,461.9375 815.1875,461.8438 815.4844,461.8438 C815.7813,461.8438 816.0625,461.9844 816.2188,462.25 C816.3125,462.4063 816.3281,462.5313 816.3281,462.9688 L816.3281,464.3906 C816.3281,464.8125 816.2969,465 816.1875,465.1563 C816.0156,465.375 815.75,465.5156 815.4844,465.5156 C815.2656,465.5156 815.0313,465.4063 814.8906,465.2656 C814.75,465.1406 814.7188,465.0156 814.6563,464.6094 C814.5625,464.2031 814.3906,463.9844 813.9063,463.7031 C813.4375,463.4531 812.8281,463.2969 812.25,463.2969 C810.5156,463.2969 809.2656,464.6094 809.2656,466.3906 L809.2656,467.4844 C809.2656,469.1875 810.5625,470.2813 812.6094,470.2813 C813.375,470.2813 814.0625,470.1563 814.4844,469.8906 C814.6719,469.7969 814.6719,469.7969 815.125,469.3125 C815.3125,469.125 815.5156,469.0469 815.7344,469.0469 C816.2031,469.0469 816.5938,469.4375 816.5938,469.8906 C816.5938,470.2813 816.2656,470.7344 815.6875,471.1406 C814.9375,471.6875 813.7813,471.9844 812.5625,471.9844 C809.6719,471.9844 807.5625,470.0938 807.5625,467.5156 L807.5625,466.3906 C807.5625,463.6719 809.5625,461.5938 812.1875,461.5938 C813.0625,461.5938 813.6563,461.7344 814.5938,462.1719 Z "/><text fill="#000000" font-family="sans-serif" font-size="12" lengthAdjust="spacingAndGlyphs" textLength="37" x="832.75" y="470.6543">Model</text><line style="stroke: #A80036; stroke-width: 1.5;" x1="714" x2="956" y1="482.5" y2="482.5"/><polygon fill="none" points="724,489.4023,728,493.4023,724,497.4023,720,493.4023" style="stroke: #B38D22; stroke-width: 1.0;"/><text fill="#000000" font-family="sans-serif" font-size="11" lengthAdjust="spacingAndGlyphs" textLength="86" x="733" y="496.7104">time : float = 0</text><polygon fill="none" points="724,502.207,728,506.207,724,510.207,720,506.207" style="stroke: #B38D22; stroke-width: 1.0;"/><text fill="#000000" font-family="sans-serif" font-size="11" lengthAdjust="spacingAndGlyphs" textLength="149" x="733" y="509.5151">unit_params : UnitParams</text><polygon fill="none" points="724,515.0117,728,519.0117,724,523.0117,720,519.0117" style="stroke: #B38D22; stroke-width: 1.0;"/><text fill="#000000" font-family="sans-serif" font-size="11" lengthAdjust="spacingAndGlyphs" textLength="98" x="733" y="522.3198">cfg : ModelConfig</text><line style="stroke: #A80036; stroke-width: 1.0;" x1="714" x2="956" y1="528.9141" y2="528.9141"/><ellipse cx="724" cy="540.8164" fill="none" rx="3" ry="3" style="stroke: #038048; stroke-width: 1.0;"/><text fill="#000000" font-family="sans-serif" font-size="11" lengthAdjust="spacingAndGlyphs" textLength="70" x="733" y="543.1245">units : Unit[]</text><ellipse cx="724" cy="570.4258" fill="#84BE84" rx="3" ry="3" style="stroke: #038048; stroke-width: 1.0;"/><text fill="#000000" font-family="sans-serif" font-size="11" lengthAdjust="spacingAndGlyphs" textLength="218" x="733" y="572.7339">config : ref const(ModelConfig) { get }</text><line style="stroke: #A80036; stroke-width: 1.0;" x1="714" x2="805" y1="556.1211" y2="556.1211"/><text fill="#000000" font-family="sans-serif" font-size="11" lengthAdjust="spacingAndGlyphs" textLength="60" x="805" y="559.4292">@property</text><line style="stroke: #A80036; stroke-width: 1.0;" x1="865" x2="956" y1="556.1211" y2="556.1211"/><line style="stroke: #A80036; stroke-width: 1.0;" x1="714" x2="956" y1="579.3281" y2="579.3281"/><ellipse cx="724" cy="591.2305" fill="#84BE84" rx="3" ry="3" style="stroke: #038048; stroke-width: 1.0;"/><text fill="#000000" font-family="sans-serif" font-size="11" lengthAdjust="spacingAndGlyphs" textLength="89" x="733" y="593.5386">process() : void</text><line style="stroke: #A80036; stroke-width: 1.0;" x1="714" x2="956" y1="600.1328" y2="600.1328"/><polygon fill="#FFFF44" points="724,607.0352,728,611.0352,724,615.0352,720,611.0352" style="stroke: #B38D22; stroke-width: 1.0;"/><text fill="#000000" font-family="sans-serif" font-size="11" lengthAdjust="spacingAndGlyphs" textLength="117" x="733" y="614.3433">logic( float dt ) : void</text><polygon fill="#FFFF44" points="724,619.8398,728,623.8398,724,627.8398,720,623.8398" style="stroke: #B38D22; stroke-width: 1.0;"/><text fill="#000000" font-family="sans-serif" font-size="11" lengthAdjust="spacingAndGlyphs" textLength="137" x="733" y="627.1479">processDangers() : void</text><path d="M491.244,618.218 C458.653,659.942 418.731,711.049 388.53,749.713 " fill="none" style="stroke: #A80036; stroke-width: 1.0;"/><polygon fill="#A80036" points="499.362,607.826,492.5161,610.0918,491.9746,617.2825,498.8204,615.0167,499.362,607.826" style="stroke: #A80036; stroke-width: 1.0;"/><path d="M134.841,345.787 C172.062,385.03 230.516,446.658 271.774,490.155 " fill="none" style="stroke: #A80036; stroke-width: 1.0;"/><polygon fill="none" points="129.683,350.521,120.998,331.193,139.841,340.886,129.683,350.521" style="stroke: #A80036; stroke-width: 1.0;"/><path d="M325.537,606.793 C329.307,650.229 334.259,707.285 337.926,749.542 " fill="none" style="stroke: #A80036; stroke-width: 1.0;"/><polygon fill="#A80036" points="324.407,593.781,320.9409,600.1045,325.4448,605.736,328.9109,599.4126,324.407,593.781" style="stroke: #A80036; stroke-width: 1.0;"/><path d="M440.111,398.214 C413.854,429.429 385.362,463.3 362.72,490.216 " fill="none" style="stroke: #A80036; stroke-width: 1.0;"/><polygon fill="#A80036" points="448.548,388.185,441.6246,390.2017,440.8233,397.3681,447.7467,395.3514,448.548,388.185" style="stroke: #A80036; stroke-width: 1.0;"/><path d="M529.602,401.215 C533.284,426.445 537.187,453.196 540.583,476.466 " fill="none" style="stroke: #A80036; stroke-width: 1.0;"/><polygon fill="#A80036" points="527.701,388.185,524.6094,394.6997,529.4339,400.0592,532.5255,393.5445,527.701,388.185" style="stroke: #A80036; stroke-width: 1.0;"/><path d="M655.423,307 C674.202,307 692.98,307 711.759,307 " fill="none" style="stroke: #A80036; stroke-width: 1.0;"/><polygon fill="#A80036" points="642.422,307,648.422,311,654.422,307,648.422,303,642.422,307" style="stroke: #A80036; stroke-width: 1.0;"/><path d="M733.415,136.48 C720.918,146.04 707.427,156.39 695,166 C670.033,185.31 643.19,206.22 618.082,225.85 " fill="none" style="stroke: #A80036; stroke-width: 1.0;"/><polygon fill="none" points="729.503,130.66,749.647,124.08,738,141.79,729.503,130.66" style="stroke: #A80036; stroke-width: 1.0;"/><path d="M612.846,935.008 C604.725,969.829 596.289,1006.002 589.542,1034.934 " fill="none" style="stroke: #A80036; stroke-width: 1.0;"/><polygon fill="#A80036" points="615.82,922.256,610.5617,927.1906,613.0942,933.9423,618.3526,929.0077,615.82,922.256" style="stroke: #A80036; stroke-width: 1.0;"/><path d="M708.536,933.879 C720.542,956.234 732.869,979.184 744.292,1000.452 " fill="none" style="stroke: #A80036; stroke-width: 1.0;"/><polygon fill="#A80036" points="702.293,922.256,701.6086,929.4345,707.9717,932.8273,708.6561,925.6488,702.293,922.256" style="stroke: #A80036; stroke-width: 1.0;"/><text fill="#000000" font-family="sans-serif" font-size="13" lengthAdjust="spacingAndGlyphs" textLength="56" x="728" y="965.0669">PID!vec3</text><path d="M630.341,403.855 C641.52,418.141 651.214,433.618 658,450 C690.142,527.597 683.934,622.91 670.886,695.675 " fill="none" style="stroke: #A80036; stroke-width: 1.0;"/><polygon fill="none" points="624.718,408.045,617.164,388.247,635.415,399.014,624.718,408.045" style="stroke: #A80036; stroke-width: 1.0;"/><path d="M760.937,644.693 C748.771,661.397 736.102,678.793 723.761,695.737 " fill="none" style="stroke: #A80036; stroke-width: 1.0;"/><polygon fill="#A80036" points="768.85,633.827,762.0844,636.3224,761.7857,643.5273,768.5513,641.0319,768.85,633.827" style="stroke: #A80036; stroke-width: 1.0;"/><text fill="#000000" font-family="sans-serif" font-size="13" lengthAdjust="spacingAndGlyphs" textLength="7" x="755.2201" y="653.8047">*</text><path d="M699.394,542 C679.748,542 660.101,542 640.454,542 " fill="none" style="stroke: #A80036; stroke-width: 1.0;"/><polygon fill="#A80036" points="712.649,542,706.649,538,700.649,542,706.649,546,712.649,542" style="stroke: #A80036; stroke-width: 1.0;"/><path d="M857.703,646.727 C866.5,686.923 876.11,730.83 883.078,762.667 " fill="none" style="stroke: #A80036; stroke-width: 1.0;"/><polygon fill="#A80036" points="854.879,633.827,852.2538,640.5433,857.4438,645.5497,860.0689,638.8334,854.879,633.827" style="stroke: #A80036; stroke-width: 1.0;"/><path d="M819.175,139.62 C825.244,147.72 830.614,156.66 834,166 C867.52,258.417 861.844,372.279 851.55,450.134 " fill="none" style="stroke: #A80036; stroke-width: 1.0;"/><polygon fill="none" points="813.772,144.07,806.148,124.3,824.437,135,813.772,144.07" style="stroke: #A80036; stroke-width: 1.0;"/></g></svg>