<?xml version="1.0" encoding="UTF-8" standalone="yes"?><svg xmlns="http://www.w3.org/2000/svg" xmlns:xlink="http://www.w3.org/1999/xlink" height="1019pt" style="width:1000px;height:1019px;" version="1.1" viewBox="0 0 1000 1019" width="1000pt"><defs><filter height="300%" id="f1" width="300%" x="-1" y="-1"><feGaussianBlur result="blurOut" stdDeviation="2.0"/><feColorMatrix in="blurOut" result="blurOut2" type="matrix" values="0 0 0 0 0 0 0 0 0 0 0 0 0 0 0 0 0 0 .4 0"/><feOffset dx="4.0" dy="4.0" in="blurOut2" result="blurOut3"/><feBlend in="SourceGraphic" in2="blurOut3" mode="normal"/></filter></defs><g><rect fill="#FFFFFF" filter="url(#f1)" height="988" style="stroke: #000000; stroke-width: 2.0;" width="971" x="22" y="24"/><path d="M112,25 L112,33.2969 L102,43.2969 L22,43.2969 " fill="#FFFFFF" style="stroke: #000000; stroke-width: 2.0;"/><text fill="#000000" font-family="sans-serif" font-size="14" font-weight="bold" lengthAdjust="spacingAndGlyphs" textLength="80" x="25" y="36.9951">sim.model</text><rect fill="#FEFECE" filter="url(#f1)" height="79.5469" style="stroke: #A80036; stroke-width: 1.5;" width="104" x="861" y="128"/><ellipse cx="876" cy="146.9688" fill="#ADD1B2" rx="11" ry="11" style="stroke: #A80036; stroke-width: 1.0;"/><path d="M878.3438,142.6406 L878.5156,142.7188 C878.7344,142.4063 878.9375,142.3125 879.2344,142.3125 C879.5313,142.3125 879.8125,142.4531 879.9688,142.7188 C880.0625,142.875 880.0781,143 880.0781,143.4375 L880.0781,144.8594 C880.0781,145.2813 880.0469,145.4688 879.9375,145.625 C879.7656,145.8438 879.5,145.9844 879.2344,145.9844 C879.0156,145.9844 878.7813,145.875 878.6406,145.7344 C878.5,145.6094 878.4688,145.4844 878.4063,145.0781 C878.3125,144.6719 878.1406,144.4531 877.6563,144.1719 C877.1875,143.9219 876.5781,143.7656 876,143.7656 C874.2656,143.7656 873.0156,145.0781 873.0156,146.8594 L873.0156,147.9531 C873.0156,149.6563 874.3125,150.75 876.3594,150.75 C877.125,150.75 877.8125,150.625 878.2344,150.3594 C878.4219,150.2656 878.4219,150.2656 878.875,149.7813 C879.0625,149.5938 879.2656,149.5156 879.4844,149.5156 C879.9531,149.5156 880.3438,149.9063 880.3438,150.3594 C880.3438,150.75 880.0156,151.2031 879.4375,151.6094 C878.6875,152.1563 877.5313,152.4531 876.3125,152.4531 C873.4219,152.4531 871.3125,150.5625 871.3125,147.9844 L871.3125,146.8594 C871.3125,144.1406 873.3125,142.0625 875.9375,142.0625 C876.8125,142.0625 877.4063,142.2031 878.3438,142.6406 Z "/><text fill="#000000" font-family="sans-serif" font-size="12" font-style="italic" lengthAdjust="spacingAndGlyphs" textLength="76" x="888" y="144.1387">&lt;&lt;struct&gt;&gt;</text><text fill="#000000" font-family="sans-serif" font-size="12" lengthAdjust="spacingAndGlyphs" textLength="59" x="896.5" y="158.1074">UnitState</text><line style="stroke: #A80036; stroke-width: 1.5;" x1="862" x2="964" y1="165.9375" y2="165.9375"/><ellipse cx="872" cy="177.8398" fill="none" rx="3" ry="3" style="stroke: #038048; stroke-width: 1.0;"/><text fill="#000000" font-family="sans-serif" font-size="11" lengthAdjust="spacingAndGlyphs" textLength="59" x="881" y="180.1479">pos : vec3</text><ellipse cx="872" cy="190.6445" fill="none" rx="3" ry="3" style="stroke: #038048; stroke-width: 1.0;"/><text fill="#000000" font-family="sans-serif" font-size="11" lengthAdjust="spacingAndGlyphs" textLength="54" x="881" y="192.9526">vel : vec3</text><line style="stroke: #A80036; stroke-width: 1.5;" x1="862" x2="964" y1="199.5469" y2="199.5469"/><rect fill="#FEFECE" filter="url(#f1)" height="103.2188" style="stroke: #A80036; stroke-width: 1.5;" width="208" x="622" y="390.5"/><ellipse cx="685.25" cy="406.5" fill="#ADD1B2" rx="11" ry="11" style="stroke: #A80036; stroke-width: 1.0;"/><path d="M687.5938,402.1719 L687.7656,402.25 C687.9844,401.9375 688.1875,401.8438 688.4844,401.8438 C688.7813,401.8438 689.0625,401.9844 689.2188,402.25 C689.3125,402.4063 689.3281,402.5313 689.3281,402.9688 L689.3281,404.3906 C689.3281,404.8125 689.2969,405 689.1875,405.1563 C689.0156,405.375 688.75,405.5156 688.4844,405.5156 C688.2656,405.5156 688.0313,405.4063 687.8906,405.2656 C687.75,405.1406 687.7188,405.0156 687.6563,404.6094 C687.5625,404.2031 687.3906,403.9844 686.9063,403.7031 C686.4375,403.4531 685.8281,403.2969 685.25,403.2969 C683.5156,403.2969 682.2656,404.6094 682.2656,406.3906 L682.2656,407.4844 C682.2656,409.1875 683.5625,410.2813 685.6094,410.2813 C686.375,410.2813 687.0625,410.1563 687.4844,409.8906 C687.6719,409.7969 687.6719,409.7969 688.125,409.3125 C688.3125,409.125 688.5156,409.0469 688.7344,409.0469 C689.2031,409.0469 689.5938,409.4375 689.5938,409.8906 C689.5938,410.2813 689.2656,410.7344 688.6875,411.1406 C687.9375,411.6875 686.7813,411.9844 685.5625,411.9844 C682.6719,411.9844 680.5625,410.0938 680.5625,407.5156 L680.5625,406.3906 C680.5625,403.6719 682.5625,401.5938 685.1875,401.5938 C686.0625,401.5938 686.6563,401.7344 687.5938,402.1719 Z "/><text fill="#000000" font-family="sans-serif" font-size="12" lengthAdjust="spacingAndGlyphs" textLength="73" x="705.75" y="410.6543">UnitCamera</text><line style="stroke: #A80036; stroke-width: 1.5;" x1="623" x2="829" y1="422.5" y2="422.5"/><polygon fill="none" points="633,429.4023,637,433.4023,633,437.4023,629,433.4023" style="stroke: #B38D22; stroke-width: 1.0;"/><text fill="#000000" font-family="sans-serif" font-size="11" lengthAdjust="spacingAndGlyphs" textLength="167" x="642" y="436.7104">params : UnitCameraParams</text><ellipse cx="633" cy="464.0117" fill="none" rx="3" ry="3" style="stroke: #038048; stroke-width: 1.0;"/><text fill="#000000" font-family="sans-serif" font-size="11" lengthAdjust="spacingAndGlyphs" textLength="149" x="642" y="466.3198">resolution : uivec2 { get }</text><line style="stroke: #A80036; stroke-width: 1.0;" x1="623" x2="696" y1="449.707" y2="449.707"/><text fill="#000000" font-family="sans-serif" font-size="11" lengthAdjust="spacingAndGlyphs" textLength="60" x="696" y="453.0151">@property</text><line style="stroke: #A80036; stroke-width: 1.0;" x1="756" x2="829" y1="449.707" y2="449.707"/><line style="stroke: #A80036; stroke-width: 1.0;" x1="623" x2="829" y1="472.9141" y2="472.9141"/><ellipse cx="633" cy="484.8164" fill="#84BE84" rx="3" ry="3" style="stroke: #038048; stroke-width: 1.0;"/><text fill="#000000" font-family="sans-serif" font-size="11" lengthAdjust="spacingAndGlyphs" textLength="182" x="642" y="487.1245">maxResultDist( float cell ) : float</text><rect fill="#FEFECE" filter="url(#f1)" height="162.4375" style="stroke: #A80036; stroke-width: 1.5;" width="253" x="482.75" y="87"/><ellipse cx="577" cy="103" fill="#ADD1B2" rx="11" ry="11" style="stroke: #A80036; stroke-width: 1.0;"/><path d="M579.3438,98.6719 L579.5156,98.75 C579.7344,98.4375 579.9375,98.3438 580.2344,98.3438 C580.5313,98.3438 580.8125,98.4844 580.9688,98.75 C581.0625,98.9063 581.0781,99.0313 581.0781,99.4688 L581.0781,100.8906 C581.0781,101.3125 581.0469,101.5 580.9375,101.6563 C580.7656,101.875 580.5,102.0156 580.2344,102.0156 C580.0156,102.0156 579.7813,101.9063 579.6406,101.7656 C579.5,101.6406 579.4688,101.5156 579.4063,101.1094 C579.3125,100.7031 579.1406,100.4844 578.6563,100.2031 C578.1875,99.9531 577.5781,99.7969 577,99.7969 C575.2656,99.7969 574.0156,101.1094 574.0156,102.8906 L574.0156,103.9844 C574.0156,105.6875 575.3125,106.7813 577.3594,106.7813 C578.125,106.7813 578.8125,106.6563 579.2344,106.3906 C579.4219,106.2969 579.4219,106.2969 579.875,105.8125 C580.0625,105.625 580.2656,105.5469 580.4844,105.5469 C580.9531,105.5469 581.3438,105.9375 581.3438,106.3906 C581.3438,106.7813 581.0156,107.2344 580.4375,107.6406 C579.6875,108.1875 578.5313,108.4844 577.3125,108.4844 C574.4219,108.4844 572.3125,106.5938 572.3125,104.0156 L572.3125,102.8906 C572.3125,100.1719 574.3125,98.0938 576.9375,98.0938 C577.8125,98.0938 578.4063,98.2344 579.3438,98.6719 Z "/><text fill="#000000" font-family="sans-serif" font-size="12" lengthAdjust="spacingAndGlyphs" textLength="56" x="597.5" y="107.1543">BaseUnit</text><line style="stroke: #A80036; stroke-width: 1.5;" x1="483.75" x2="734.75" y1="119" y2="119"/><ellipse cx="493.75" cy="147.707" fill="none" rx="3" ry="3" style="stroke: #038048; stroke-width: 1.0;"/><text fill="#000000" font-family="sans-serif" font-size="11" lengthAdjust="spacingAndGlyphs" textLength="97" x="502.75" y="150.0151">state  : UnitState</text><ellipse cx="493.75" cy="160.5117" fill="none" rx="3" ry="3" style="stroke: #038048; stroke-width: 1.0;"/><text fill="#000000" font-family="sans-serif" font-size="11" lengthAdjust="spacingAndGlyphs" textLength="122" x="502.75" y="162.8198">params : UnitParams</text><ellipse cx="493.75" cy="173.3164" fill="none" rx="3" ry="3" style="stroke: #038048; stroke-width: 1.0;"/><text fill="#000000" font-family="sans-serif" font-size="11" lengthAdjust="spacingAndGlyphs" textLength="122" x="502.75" y="175.6245">camera : UnitCamera</text><line style="stroke: #A80036; stroke-width: 1.0;" x1="483.75" x2="579.25" y1="133.4023" y2="133.4023"/><text fill="#000000" font-family="sans-serif" font-size="11" lengthAdjust="spacingAndGlyphs" textLength="60" x="579.25" y="136.7104">@property</text><line style="stroke: #A80036; stroke-width: 1.0;" x1="639.25" x2="734.75" y1="133.4023" y2="133.4023"/><line style="stroke: #A80036; stroke-width: 1.0;" x1="483.75" x2="734.75" y1="182.2188" y2="182.2188"/><ellipse cx="493.75" cy="194.1211" fill="#84BE84" rx="3" ry="3" style="stroke: #038048; stroke-width: 1.0;"/><text fill="#000000" font-family="sans-serif" font-size="11" lengthAdjust="spacingAndGlyphs" textLength="227" x="502.75" y="196.4292">final process( float time, float dt ) : void</text><line style="stroke: #A80036; stroke-width: 1.0;" x1="483.75" x2="734.75" y1="203.0234" y2="203.0234"/><polygon fill="#FFFF44" points="493.75,209.9258,497.75,213.9258,493.75,217.9258,489.75,213.9258" style="stroke: #B38D22; stroke-width: 1.0;"/><text fill="#000000" font-family="sans-serif" font-size="11" font-style="italic" lengthAdjust="spacingAndGlyphs" textLength="180" x="502.75" y="217.2339">logic( float time, float dt ) : void</text><polygon fill="#FFFF44" points="493.75,222.7305,497.75,226.7305,493.75,230.7305,489.75,226.7305" style="stroke: #B38D22; stroke-width: 1.0;"/><text fill="#000000" font-family="sans-serif" font-size="11" font-style="italic" lengthAdjust="spacingAndGlyphs" textLength="227" x="502.75" y="230.0386">controlForce( float time, float dt ) : vec3</text><polygon fill="#FFFF44" points="493.75,235.5352,497.75,239.5352,493.75,243.5352,489.75,239.5352" style="stroke: #B38D22; stroke-width: 1.0;"/><text fill="#000000" font-family="sans-serif" font-size="11" lengthAdjust="spacingAndGlyphs" textLength="93" x="502.75" y="242.8433">postProc() : void</text><rect fill="#FEFECE" filter="url(#f1)" height="117.9609" style="stroke: #A80036; stroke-width: 1.5;" width="170" x="576" y="675"/><ellipse cx="620.75" cy="693.9688" fill="#ADD1B2" rx="11" ry="11" style="stroke: #A80036; stroke-width: 1.0;"/><path d="M623.0938,689.6406 L623.2656,689.7188 C623.4844,689.4063 623.6875,689.3125 623.9844,689.3125 C624.2813,689.3125 624.5625,689.4531 624.7188,689.7188 C624.8125,689.875 624.8281,690 624.8281,690.4375 L624.8281,691.8594 C624.8281,692.2813 624.7969,692.4688 624.6875,692.625 C624.5156,692.8438 624.25,692.9844 623.9844,692.9844 C623.7656,692.9844 623.5313,692.875 623.3906,692.7344 C623.25,692.6094 623.2188,692.4844 623.1563,692.0781 C623.0625,691.6719 622.8906,691.4531 622.4063,691.1719 C621.9375,690.9219 621.3281,690.7656 620.75,690.7656 C619.0156,690.7656 617.7656,692.0781 617.7656,693.8594 L617.7656,694.9531 C617.7656,696.6563 619.0625,697.75 621.1094,697.75 C621.875,697.75 622.5625,697.625 622.9844,697.3594 C623.1719,697.2656 623.1719,697.2656 623.625,696.7813 C623.8125,696.5938 624.0156,696.5156 624.2344,696.5156 C624.7031,696.5156 625.0938,696.9063 625.0938,697.3594 C625.0938,697.75 624.7656,698.2031 624.1875,698.6094 C623.4375,699.1563 622.2813,699.4531 621.0625,699.4531 C618.1719,699.4531 616.0625,697.5625 616.0625,694.9844 L616.0625,693.8594 C616.0625,691.1406 618.0625,689.0625 620.6875,689.0625 C621.5625,689.0625 622.1563,689.2031 623.0938,689.6406 Z "/><text fill="#000000" font-family="sans-serif" font-size="12" font-style="italic" lengthAdjust="spacingAndGlyphs" textLength="76" x="639.25" y="691.1387">&lt;&lt;struct&gt;&gt;</text><text fill="#000000" font-family="sans-serif" font-size="12" lengthAdjust="spacingAndGlyphs" textLength="60" x="647.25" y="705.1074">UnitTrace</text><line style="stroke: #A80036; stroke-width: 1.5;" x1="577" x2="745" y1="712.9375" y2="712.9375"/><ellipse cx="587" cy="724.8398" fill="none" rx="3" ry="3" style="stroke: #038048; stroke-width: 1.0;"/><text fill="#000000" font-family="sans-serif" font-size="11" lengthAdjust="spacingAndGlyphs" textLength="71" x="596" y="727.1479">data : vec3[]</text><ellipse cx="587" cy="737.6445" fill="none" rx="3" ry="3" style="stroke: #038048; stroke-width: 1.0;"/><text fill="#000000" font-family="sans-serif" font-size="11" lengthAdjust="spacingAndGlyphs" textLength="85" x="596" y="739.9526">min_dist : float</text><ellipse cx="587" cy="750.4492" fill="none" rx="3" ry="3" style="stroke: #038048; stroke-width: 1.0;"/><text fill="#000000" font-family="sans-serif" font-size="11" lengthAdjust="spacingAndGlyphs" textLength="98" x="596" y="752.7573">max_count : float</text><line style="stroke: #A80036; stroke-width: 1.0;" x1="577" x2="745" y1="759.3516" y2="759.3516"/><ellipse cx="587" cy="771.2539" fill="#84BE84" rx="3" ry="3" style="stroke: #038048; stroke-width: 1.0;"/><text fill="#000000" font-family="sans-serif" font-size="11" lengthAdjust="spacingAndGlyphs" textLength="144" x="596" y="773.562">append( in vec3 p ) : void</text><ellipse cx="587" cy="784.0586" fill="#84BE84" rx="3" ry="3" style="stroke: #038048; stroke-width: 1.0;"/><text fill="#000000" font-family="sans-serif" font-size="11" lengthAdjust="spacingAndGlyphs" textLength="73" x="596" y="786.3667">reset() : void</text><rect fill="#FEFECE" filter="url(#f1)" height="105.1563" style="stroke: #A80036; stroke-width: 1.5;" width="153" x="45.75" y="890.5"/><ellipse cx="82.8" cy="909.4688" fill="#ADD1B2" rx="11" ry="11" style="stroke: #A80036; stroke-width: 1.0;"/><path d="M85.1438,905.1406 L85.3156,905.2188 C85.5344,904.9063 85.7375,904.8125 86.0344,904.8125 C86.3313,904.8125 86.6125,904.9531 86.7688,905.2188 C86.8625,905.375 86.8781,905.5 86.8781,905.9375 L86.8781,907.3594 C86.8781,907.7813 86.8469,907.9688 86.7375,908.125 C86.5656,908.3438 86.3,908.4844 86.0344,908.4844 C85.8156,908.4844 85.5813,908.375 85.4406,908.2344 C85.3,908.1094 85.2688,907.9844 85.2063,907.5781 C85.1125,907.1719 84.9406,906.9531 84.4563,906.6719 C83.9875,906.4219 83.3781,906.2656 82.8,906.2656 C81.0656,906.2656 79.8156,907.5781 79.8156,909.3594 L79.8156,910.4531 C79.8156,912.1563 81.1125,913.25 83.1594,913.25 C83.925,913.25 84.6125,913.125 85.0344,912.8594 C85.2219,912.7656 85.2219,912.7656 85.675,912.2813 C85.8625,912.0938 86.0656,912.0156 86.2844,912.0156 C86.7531,912.0156 87.1438,912.4063 87.1438,912.8594 C87.1438,913.25 86.8156,913.7031 86.2375,914.1094 C85.4875,914.6563 84.3313,914.9531 83.1125,914.9531 C80.2219,914.9531 78.1125,913.0625 78.1125,910.4844 L78.1125,909.3594 C78.1125,906.6406 80.1125,904.5625 82.7375,904.5625 C83.6125,904.5625 84.2063,904.7031 85.1438,905.1406 Z "/><text fill="#000000" font-family="sans-serif" font-size="12" font-style="italic" lengthAdjust="spacingAndGlyphs" textLength="76" x="99.7" y="906.6387">&lt;&lt;struct&gt;&gt;</text><text fill="#000000" font-family="sans-serif" font-size="12" lengthAdjust="spacingAndGlyphs" textLength="69" x="103.2" y="920.6074">MapRegion</text><line style="stroke: #A80036; stroke-width: 1.5;" x1="46.75" x2="197.75" y1="928.4375" y2="928.4375"/><text fill="#000000" font-family="sans-serif" font-size="11" lengthAdjust="spacingAndGlyphs" textLength="76" x="51.75" y="942.6479">fRegion3 reg;</text><text fill="#000000" font-family="sans-serif" font-size="11" lengthAdjust="spacingAndGlyphs" textLength="71" x="51.75" y="955.4526">Image3 img;</text><line style="stroke: #A80036; stroke-width: 1.0;" x1="46.75" x2="197.75" y1="962.0469" y2="962.0469"/><text fill="#000000" font-family="sans-serif" font-size="11" lengthAdjust="spacingAndGlyphs" textLength="139" x="51.75" y="976.2573">vec3 toWorld( ivec3 crd )</text><text fill="#000000" font-family="sans-serif" font-size="11" lengthAdjust="spacingAndGlyphs" textLength="141" x="51.75" y="989.062">vec3 toWorld( size_t ind )</text><rect fill="#FEFECE" filter="url(#f1)" height="60.8047" style="stroke: #A80036; stroke-width: 1.5;" width="212" x="38" y="703.5"/><ellipse cx="105.75" cy="719.5" fill="#B4A7E5" rx="11" ry="11" style="stroke: #A80036; stroke-width: 1.0;"/><path d="M106.7031,716.2813 L106.7031,722.7969 L108.4219,722.7969 C108.875,722.7969 109.0156,722.8281 109.1875,722.9531 C109.4219,723.125 109.5313,723.375 109.5313,723.6563 C109.5313,724.2188 109.1719,724.5 108.4219,724.5 L103.2813,724.5 C102.875,724.5 102.6719,724.4531 102.5156,724.3281 C102.2969,724.1719 102.1563,723.9063 102.1563,723.6563 C102.1563,723.3594 102.3125,723.0781 102.5625,722.9219 C102.7188,722.8125 102.8438,722.7969 103.2813,722.7969 L105,722.7969 L105,716.2813 L103.2813,716.2813 C102.8594,716.2813 102.6719,716.25 102.5156,716.1406 C102.2969,715.9688 102.1563,715.7188 102.1563,715.4375 C102.1563,715.1563 102.3125,714.8594 102.5625,714.7031 C102.7188,714.6094 102.8438,714.5938 103.2813,714.5938 L108.4219,714.5938 C108.875,714.5938 109.0156,714.625 109.1875,714.7344 C109.4219,714.9063 109.5313,715.1719 109.5313,715.4375 C109.5313,715.7344 109.3906,716.0156 109.125,716.1719 C109,716.25 108.8125,716.2813 108.4219,716.2813 Z "/><text fill="#000000" font-family="sans-serif" font-size="12" font-style="italic" lengthAdjust="spacingAndGlyphs" textLength="68" x="126.25" y="723.6543">MapAccess</text><line style="stroke: #A80036; stroke-width: 1.5;" x1="39" x2="249" y1="735.5" y2="735.5"/><line style="stroke: #A80036; stroke-width: 1.5;" x1="39" x2="249" y1="743.5" y2="743.5"/><text fill="#000000" font-family="sans-serif" font-size="11" lengthAdjust="spacingAndGlyphs" textLength="200" x="44" y="757.7104">MapRegion getRegion( in fRegion3 )</text><rect fill="#FEFECE" filter="url(#f1)" height="239.2656" style="stroke: #A80036; stroke-width: 1.5;" width="303" x="283.75" y="322.5"/><ellipse cx="418.5" cy="338.5" fill="#ADD1B2" rx="11" ry="11" style="stroke: #A80036; stroke-width: 1.0;"/><path d="M420.8438,334.1719 L421.0156,334.25 C421.2344,333.9375 421.4375,333.8438 421.7344,333.8438 C422.0313,333.8438 422.3125,333.9844 422.4688,334.25 C422.5625,334.4063 422.5781,334.5313 422.5781,334.9688 L422.5781,336.3906 C422.5781,336.8125 422.5469,337 422.4375,337.1563 C422.2656,337.375 422,337.5156 421.7344,337.5156 C421.5156,337.5156 421.2813,337.4063 421.1406,337.2656 C421,337.1406 420.9688,337.0156 420.9063,336.6094 C420.8125,336.2031 420.6406,335.9844 420.1563,335.7031 C419.6875,335.4531 419.0781,335.2969 418.5,335.2969 C416.7656,335.2969 415.5156,336.6094 415.5156,338.3906 L415.5156,339.4844 C415.5156,341.1875 416.8125,342.2813 418.8594,342.2813 C419.625,342.2813 420.3125,342.1563 420.7344,341.8906 C420.9219,341.7969 420.9219,341.7969 421.375,341.3125 C421.5625,341.125 421.7656,341.0469 421.9844,341.0469 C422.4531,341.0469 422.8438,341.4375 422.8438,341.8906 C422.8438,342.2813 422.5156,342.7344 421.9375,343.1406 C421.1875,343.6875 420.0313,343.9844 418.8125,343.9844 C415.9219,343.9844 413.8125,342.0938 413.8125,339.5156 L413.8125,338.3906 C413.8125,335.6719 415.8125,333.5938 418.4375,333.5938 C419.3125,333.5938 419.9063,333.7344 420.8438,334.1719 Z "/><text fill="#000000" font-family="sans-serif" font-size="12" lengthAdjust="spacingAndGlyphs" textLength="25" x="439" y="342.6543">Unit</text><line style="stroke: #A80036; stroke-width: 1.5;" x1="284.75" x2="585.75" y1="354.5" y2="354.5"/><polygon fill="none" points="294.75,361.4023,298.75,365.4023,294.75,369.4023,290.75,365.4023" style="stroke: #B38D22; stroke-width: 1.0;"/><text fill="#000000" font-family="sans-serif" font-size="11" lengthAdjust="spacingAndGlyphs" textLength="88" x="303.75" y="368.7104">trg_point : vec3</text><polygon fill="none" points="294.75,374.207,298.75,378.207,294.75,382.207,290.75,378.207" style="stroke: #B38D22; stroke-width: 1.0;"/><text fill="#000000" font-family="sans-serif" font-size="11" lengthAdjust="spacingAndGlyphs" textLength="94" x="303.75" y="381.5151">way_point : vec3</text><polygon fill="none" points="294.75,387.0117,298.75,391.0117,294.75,395.0117,290.75,391.0117" style="stroke: #B38D22; stroke-width: 1.0;"/><text fill="#000000" font-family="sans-serif" font-size="11" lengthAdjust="spacingAndGlyphs" textLength="70" x="303.75" y="394.3198">near : fRay[]</text><polygon fill="none" points="294.75,399.8164,298.75,403.8164,294.75,407.8164,290.75,403.8164" style="stroke: #B38D22; stroke-width: 1.0;"/><text fill="#000000" font-family="sans-serif" font-size="11" lengthAdjust="spacingAndGlyphs" textLength="87" x="303.75" y="407.1245">hist : UnitTrace</text><polygon fill="none" points="294.75,412.6211,298.75,416.6211,294.75,420.6211,290.75,416.6211" style="stroke: #B38D22; stroke-width: 1.0;"/><text fill="#000000" font-family="sans-serif" font-size="11" lengthAdjust="spacingAndGlyphs" textLength="76" x="303.75" y="419.9292">pid : PID!vec3</text><polygon fill="none" points="294.75,425.4258,298.75,429.4258,294.75,433.4258,290.75,429.4258" style="stroke: #B38D22; stroke-width: 1.0;"/><text fill="#000000" font-family="sans-serif" font-size="11" lengthAdjust="spacingAndGlyphs" textLength="100" x="303.75" y="432.7339">map : MapAccess</text><ellipse cx="294.75" cy="460.0352" fill="none" rx="3" ry="3" style="stroke: #038048; stroke-width: 1.0;"/><text fill="#000000" font-family="sans-serif" font-size="11" lengthAdjust="spacingAndGlyphs" textLength="142" x="303.75" y="462.3433">target : vec3 { set, get }</text><ellipse cx="294.75" cy="472.8398" fill="none" rx="3" ry="3" style="stroke: #038048; stroke-width: 1.0;"/><text fill="#000000" font-family="sans-serif" font-size="11" lengthAdjust="spacingAndGlyphs" textLength="132" x="303.75" y="475.1479">wayPoint : vec3 { get }</text><ellipse cx="294.75" cy="485.6445" fill="#84BE84" rx="3" ry="3" style="stroke: #038048; stroke-width: 1.0;"/><text fill="#000000" font-family="sans-serif" font-size="11" lengthAdjust="spacingAndGlyphs" textLength="198" x="303.75" y="487.9526">trace : ref const(UnitTrace) { get }</text><line style="stroke: #A80036; stroke-width: 1.0;" x1="284.75" x2="405.25" y1="445.7305" y2="445.7305"/><text fill="#000000" font-family="sans-serif" font-size="11" lengthAdjust="spacingAndGlyphs" textLength="60" x="405.25" y="449.0386">@property</text><line style="stroke: #A80036; stroke-width: 1.0;" x1="465.25" x2="585.75" y1="445.7305" y2="445.7305"/><line style="stroke: #A80036; stroke-width: 1.0;" x1="284.75" x2="585.75" y1="494.5469" y2="494.5469"/><ellipse cx="294.75" cy="506.4492" fill="#84BE84" rx="3" ry="3" style="stroke: #038048; stroke-width: 1.0;"/><text fill="#000000" font-family="sans-serif" font-size="11" lengthAdjust="spacingAndGlyphs" textLength="189" x="303.75" y="508.7573">appendNear( in fRay[] d... ) : void</text><line style="stroke: #A80036; stroke-width: 1.0;" x1="284.75" x2="585.75" y1="515.3516" y2="515.3516"/><polygon fill="#FFFF44" points="294.75,522.2539,298.75,526.2539,294.75,530.2539,290.75,526.2539" style="stroke: #B38D22; stroke-width: 1.0;"/><text fill="#000000" font-family="sans-serif" font-size="11" lengthAdjust="spacingAndGlyphs" textLength="230" x="303.75" y="529.562">override logic( float time, float dt ) : void</text><polygon fill="#FFFF44" points="294.75,535.0586,298.75,539.0586,294.75,543.0586,290.75,539.0586" style="stroke: #B38D22; stroke-width: 1.0;"/><text fill="#000000" font-family="sans-serif" font-size="11" lengthAdjust="spacingAndGlyphs" textLength="144" x="303.75" y="542.3667">override postProc() : void</text><polygon fill="#FFFF44" points="294.75,547.8633,298.75,551.8633,294.75,555.8633,290.75,551.8633" style="stroke: #B38D22; stroke-width: 1.0;"/><text fill="#000000" font-family="sans-serif" font-size="11" lengthAdjust="spacingAndGlyphs" textLength="277" x="303.75" y="555.1714">override controlForce( float time, float dt ) : vec3</text><rect fill="#FEFECE" filter="url(#f1)" height="99.2188" style="stroke: #A80036; stroke-width: 1.5;" width="256" x="285" y="684.5"/><ellipse cx="361.25" cy="700.5" fill="#ADD1B2" rx="11" ry="11" style="stroke: #A80036; stroke-width: 1.0;"/><path d="M363.5938,696.1719 L363.7656,696.25 C363.9844,695.9375 364.1875,695.8438 364.4844,695.8438 C364.7813,695.8438 365.0625,695.9844 365.2188,696.25 C365.3125,696.4063 365.3281,696.5313 365.3281,696.9688 L365.3281,698.3906 C365.3281,698.8125 365.2969,699 365.1875,699.1563 C365.0156,699.375 364.75,699.5156 364.4844,699.5156 C364.2656,699.5156 364.0313,699.4063 363.8906,699.2656 C363.75,699.1406 363.7188,699.0156 363.6563,698.6094 C363.5625,698.2031 363.3906,697.9844 362.9063,697.7031 C362.4375,697.4531 361.8281,697.2969 361.25,697.2969 C359.5156,697.2969 358.2656,698.6094 358.2656,700.3906 L358.2656,701.4844 C358.2656,703.1875 359.5625,704.2813 361.6094,704.2813 C362.375,704.2813 363.0625,704.1563 363.4844,703.8906 C363.6719,703.7969 363.6719,703.7969 364.125,703.3125 C364.3125,703.125 364.5156,703.0469 364.7344,703.0469 C365.2031,703.0469 365.5938,703.4375 365.5938,703.8906 C365.5938,704.2813 365.2656,704.7344 364.6875,705.1406 C363.9375,705.6875 362.7813,705.9844 361.5625,705.9844 C358.6719,705.9844 356.5625,704.0938 356.5625,701.5156 L356.5625,700.3906 C356.5625,697.6719 358.5625,695.5938 361.1875,695.5938 C362.0625,695.5938 362.6563,695.7344 363.5938,696.1719 Z "/><text fill="#000000" font-family="sans-serif" font-size="12" lengthAdjust="spacingAndGlyphs" textLength="95" x="381.75" y="704.6543">AutoTargetUnit</text><line style="stroke: #A80036; stroke-width: 1.5;" x1="286" x2="540" y1="716.5" y2="716.5"/><line style="stroke: #A80036; stroke-width: 1.5;" x1="286" x2="540" y1="724.5" y2="724.5"/><polygon fill="#FFFF44" points="296,731.4023,300,735.4023,296,739.4023,292,735.4023" style="stroke: #B38D22; stroke-width: 1.0;"/><text fill="#000000" font-family="sans-serif" font-size="11" lengthAdjust="spacingAndGlyphs" textLength="230" x="305" y="738.7104">override logic( float time, float dt ) : void</text><polygon fill="#FFFF44" points="296,744.207,300,748.207,296,752.207,292,748.207" style="stroke: #B38D22; stroke-width: 1.0;"/><text fill="#000000" font-family="sans-serif" font-size="11" lengthAdjust="spacingAndGlyphs" textLength="118" x="305" y="751.5151">retargetLogic() : void</text><polygon fill="#FFFF44" points="296,757.0117,300,761.0117,296,765.0117,292,761.0117" style="stroke: #B38D22; stroke-width: 1.0;"/><text fill="#000000" font-family="sans-serif" font-size="11" lengthAdjust="spacingAndGlyphs" textLength="133" x="305" y="764.3198">needNewTarget() : bool</text><polygon fill="#FFFF44" points="296,769.8164,300,773.8164,296,777.8164,292,773.8164" style="stroke: #B38D22; stroke-width: 1.0;"/><text fill="#000000" font-family="sans-serif" font-size="11" font-style="italic" lengthAdjust="spacingAndGlyphs" textLength="117" x="305" y="777.1245">choiseTarget() : void</text><rect fill="#FEFECE" filter="url(#f1)" height="60.8047" style="stroke: #A80036; stroke-width: 1.5;" width="194" x="692" y="912.5"/><ellipse cx="739.75" cy="928.5" fill="#ADD1B2" rx="11" ry="11" style="stroke: #A80036; stroke-width: 1.0;"/><path d="M742.0938,924.1719 L742.2656,924.25 C742.4844,923.9375 742.6875,923.8438 742.9844,923.8438 C743.2813,923.8438 743.5625,923.9844 743.7188,924.25 C743.8125,924.4063 743.8281,924.5313 743.8281,924.9688 L743.8281,926.3906 C743.8281,926.8125 743.7969,927 743.6875,927.1563 C743.5156,927.375 743.25,927.5156 742.9844,927.5156 C742.7656,927.5156 742.5313,927.4063 742.3906,927.2656 C742.25,927.1406 742.2188,927.0156 742.1563,926.6094 C742.0625,926.2031 741.8906,925.9844 741.4063,925.7031 C740.9375,925.4531 740.3281,925.2969 739.75,925.2969 C738.0156,925.2969 736.7656,926.6094 736.7656,928.3906 L736.7656,929.4844 C736.7656,931.1875 738.0625,932.2813 740.1094,932.2813 C740.875,932.2813 741.5625,932.1563 741.9844,931.8906 C742.1719,931.7969 742.1719,931.7969 742.625,931.3125 C742.8125,931.125 743.0156,931.0469 743.2344,931.0469 C743.7031,931.0469 744.0938,931.4375 744.0938,931.8906 C744.0938,932.2813 743.7656,932.7344 743.1875,933.1406 C742.4375,933.6875 741.2813,933.9844 740.0625,933.9844 C737.1719,933.9844 735.0625,932.0938 735.0625,929.5156 L735.0625,928.3906 C735.0625,925.6719 737.0625,923.5938 739.6875,923.5938 C740.5625,923.5938 741.1563,923.7344 742.0938,924.1719 Z "/><text fill="#000000" font-family="sans-serif" font-size="12" lengthAdjust="spacingAndGlyphs" textLength="90" x="760.25" y="932.6543">RndTargetUnit</text><line style="stroke: #A80036; stroke-width: 1.5;" x1="693" x2="885" y1="944.5" y2="944.5"/><line style="stroke: #A80036; stroke-width: 1.5;" x1="693" x2="885" y1="952.5" y2="952.5"/><polygon fill="#FFFF44" points="703,959.4023,707,963.4023,703,967.4023,699,963.4023" style="stroke: #B38D22; stroke-width: 1.0;"/><text fill="#000000" font-family="sans-serif" font-size="11" lengthAdjust="spacingAndGlyphs" textLength="168" x="712" y="966.7104">override choiseTarget() : void</text><rect fill="#FEFECE" filter="url(#f1)" height="60.8047" style="stroke: #A80036; stroke-width: 1.5;" width="194" x="234" y="912.5"/><ellipse cx="280.75" cy="928.5" fill="#ADD1B2" rx="11" ry="11" style="stroke: #A80036; stroke-width: 1.0;"/><path d="M283.0938,924.1719 L283.2656,924.25 C283.4844,923.9375 283.6875,923.8438 283.9844,923.8438 C284.2813,923.8438 284.5625,923.9844 284.7188,924.25 C284.8125,924.4063 284.8281,924.5313 284.8281,924.9688 L284.8281,926.3906 C284.8281,926.8125 284.7969,927 284.6875,927.1563 C284.5156,927.375 284.25,927.5156 283.9844,927.5156 C283.7656,927.5156 283.5313,927.4063 283.3906,927.2656 C283.25,927.1406 283.2188,927.0156 283.1563,926.6094 C283.0625,926.2031 282.8906,925.9844 282.4063,925.7031 C281.9375,925.4531 281.3281,925.2969 280.75,925.2969 C279.0156,925.2969 277.7656,926.6094 277.7656,928.3906 L277.7656,929.4844 C277.7656,931.1875 279.0625,932.2813 281.1094,932.2813 C281.875,932.2813 282.5625,932.1563 282.9844,931.8906 C283.1719,931.7969 283.1719,931.7969 283.625,931.3125 C283.8125,931.125 284.0156,931.0469 284.2344,931.0469 C284.7031,931.0469 285.0938,931.4375 285.0938,931.8906 C285.0938,932.2813 284.7656,932.7344 284.1875,933.1406 C283.4375,933.6875 282.2813,933.9844 281.0625,933.9844 C278.1719,933.9844 276.0625,932.0938 276.0625,929.5156 L276.0625,928.3906 C276.0625,925.6719 278.0625,923.5938 280.6875,923.5938 C281.5625,923.5938 282.1563,923.7344 283.0938,924.1719 Z "/><text fill="#000000" font-family="sans-serif" font-size="12" lengthAdjust="spacingAndGlyphs" textLength="92" x="301.25" y="932.6543">FindTargetUnit</text><line style="stroke: #A80036; stroke-width: 1.5;" x1="235" x2="427" y1="944.5" y2="944.5"/><line style="stroke: #A80036; stroke-width: 1.5;" x1="235" x2="427" y1="952.5" y2="952.5"/><polygon fill="#FFFF44" points="245,959.4023,249,963.4023,245,967.4023,241,963.4023" style="stroke: #B38D22; stroke-width: 1.0;"/><text fill="#000000" font-family="sans-serif" font-size="11" lengthAdjust="spacingAndGlyphs" textLength="168" x="254" y="966.7104">override choiseTarget() : void</text><rect fill="#FEFECE" filter="url(#f1)" height="60.8047" style="stroke: #A80036; stroke-width: 1.5;" width="194" x="463" y="912.5"/><ellipse cx="505.45" cy="928.5" fill="#ADD1B2" rx="11" ry="11" style="stroke: #A80036; stroke-width: 1.0;"/><path d="M507.7938,924.1719 L507.9656,924.25 C508.1844,923.9375 508.3875,923.8438 508.6844,923.8438 C508.9813,923.8438 509.2625,923.9844 509.4188,924.25 C509.5125,924.4063 509.5281,924.5313 509.5281,924.9688 L509.5281,926.3906 C509.5281,926.8125 509.4969,927 509.3875,927.1563 C509.2156,927.375 508.95,927.5156 508.6844,927.5156 C508.4656,927.5156 508.2313,927.4063 508.0906,927.2656 C507.95,927.1406 507.9188,927.0156 507.8563,926.6094 C507.7625,926.2031 507.5906,925.9844 507.1063,925.7031 C506.6375,925.4531 506.0281,925.2969 505.45,925.2969 C503.7156,925.2969 502.4656,926.6094 502.4656,928.3906 L502.4656,929.4844 C502.4656,931.1875 503.7625,932.2813 505.8094,932.2813 C506.575,932.2813 507.2625,932.1563 507.6844,931.8906 C507.8719,931.7969 507.8719,931.7969 508.325,931.3125 C508.5125,931.125 508.7156,931.0469 508.9344,931.0469 C509.4031,931.0469 509.7938,931.4375 509.7938,931.8906 C509.7938,932.2813 509.4656,932.7344 508.8875,933.1406 C508.1375,933.6875 506.9813,933.9844 505.7625,933.9844 C502.8719,933.9844 500.7625,932.0938 500.7625,929.5156 L500.7625,928.3906 C500.7625,925.6719 502.7625,923.5938 505.3875,923.5938 C506.2625,923.5938 506.8563,923.7344 507.7938,924.1719 Z "/><text fill="#000000" font-family="sans-serif" font-size="12" lengthAdjust="spacingAndGlyphs" textLength="101" x="525.55" y="932.6543">SerialTargetUnit</text><line style="stroke: #A80036; stroke-width: 1.5;" x1="464" x2="656" y1="944.5" y2="944.5"/><line style="stroke: #A80036; stroke-width: 1.5;" x1="464" x2="656" y1="952.5" y2="952.5"/><polygon fill="#FFFF44" points="474,959.4023,478,963.4023,474,967.4023,470,963.4023" style="stroke: #B38D22; stroke-width: 1.0;"/><text fill="#000000" font-family="sans-serif" font-size="11" lengthAdjust="spacingAndGlyphs" textLength="168" x="483" y="966.7104">override choiseTarget() : void</text><rect fill="#FEFECE" filter="url(#f1)" height="187.2422" style="stroke: #A80036; stroke-width: 1.5;" width="195" x="781.75" y="640.5"/><ellipse cx="859.5" cy="656.5" fill="#ADD1B2" rx="11" ry="11" style="stroke: #A80036; stroke-width: 1.0;"/><path d="M861.8438,652.1719 L862.0156,652.25 C862.2344,651.9375 862.4375,651.8438 862.7344,651.8438 C863.0313,651.8438 863.3125,651.9844 863.4688,652.25 C863.5625,652.4063 863.5781,652.5313 863.5781,652.9688 L863.5781,654.3906 C863.5781,654.8125 863.5469,655 863.4375,655.1563 C863.2656,655.375 863,655.5156 862.7344,655.5156 C862.5156,655.5156 862.2813,655.4063 862.1406,655.2656 C862,655.1406 861.9688,655.0156 861.9063,654.6094 C861.8125,654.2031 861.6406,653.9844 861.1563,653.7031 C860.6875,653.4531 860.0781,653.2969 859.5,653.2969 C857.7656,653.2969 856.5156,654.6094 856.5156,656.3906 L856.5156,657.4844 C856.5156,659.1875 857.8125,660.2813 859.8594,660.2813 C860.625,660.2813 861.3125,660.1563 861.7344,659.8906 C861.9219,659.7969 861.9219,659.7969 862.375,659.3125 C862.5625,659.125 862.7656,659.0469 862.9844,659.0469 C863.4531,659.0469 863.8438,659.4375 863.8438,659.8906 C863.8438,660.2813 863.5156,660.7344 862.9375,661.1406 C862.1875,661.6875 861.0313,661.9844 859.8125,661.9844 C856.9219,661.9844 854.8125,660.0938 854.8125,657.5156 L854.8125,656.3906 C854.8125,653.6719 856.8125,651.5938 859.4375,651.5938 C860.3125,651.5938 860.9063,651.7344 861.8438,652.1719 Z "/><text fill="#000000" font-family="sans-serif" font-size="12" lengthAdjust="spacingAndGlyphs" textLength="20" x="880" y="660.6543">PID</text><rect fill="#FFFFFF" height="15.9688" style="stroke: #000000; stroke-width: 1.0; stroke-dasharray: 2.0,2.0;" width="9" x="970.75" y="637.5"/><text fill="#000000" font-family="sans-serif" font-size="12" font-style="italic" lengthAdjust="spacingAndGlyphs" textLength="7" x="971.75" y="649.6387">T</text><line style="stroke: #A80036; stroke-width: 1.5;" x1="782.75" x2="975.75" y1="672.5" y2="672.5"/><text fill="#000000" font-family="sans-serif" font-size="11" lengthAdjust="spacingAndGlyphs" textLength="158" x="787.75" y="686.7104">assert( hasBasicMathOp!T )</text><line style="stroke: #A80036; stroke-width: 1.0;" x1="782.75" x2="975.75" y1="693.3047" y2="693.3047"/><line style="stroke: #A80036; stroke-width: 1.0;" x1="782.75" x2="975.75" y1="695.3047" y2="695.3047"/><polygon fill="none" points="792.75,700.207,796.75,704.207,792.75,708.207,788.75,704.207" style="stroke: #B38D22; stroke-width: 1.0;"/><text fill="#000000" font-family="sans-serif" font-size="11" lengthAdjust="spacingAndGlyphs" textLength="40" x="801.75" y="707.5151">ibuf : T</text><polygon fill="none" points="792.75,713.0117,796.75,717.0117,792.75,721.0117,788.75,717.0117" style="stroke: #B38D22; stroke-width: 1.0;"/><text fill="#000000" font-family="sans-serif" font-size="11" lengthAdjust="spacingAndGlyphs" textLength="44" x="801.75" y="720.3198">dbuf : T</text><line style="stroke: #A80036; stroke-width: 1.0;" x1="782.75" x2="975.75" y1="726.9141" y2="726.9141"/><ellipse cx="792.75" cy="738.8164" fill="none" rx="3" ry="3" style="stroke: #038048; stroke-width: 1.0;"/><text fill="#000000" font-family="sans-serif" font-size="11" lengthAdjust="spacingAndGlyphs" textLength="26" x="801.75" y="741.1245">P : T</text><ellipse cx="792.75" cy="751.6211" fill="none" rx="3" ry="3" style="stroke: #038048; stroke-width: 1.0;"/><text fill="#000000" font-family="sans-serif" font-size="11" lengthAdjust="spacingAndGlyphs" textLength="22" x="801.75" y="753.9292">I : T</text><ellipse cx="792.75" cy="764.4258" fill="none" rx="3" ry="3" style="stroke: #038048; stroke-width: 1.0;"/><text fill="#000000" font-family="sans-serif" font-size="11" lengthAdjust="spacingAndGlyphs" textLength="27" x="801.75" y="766.7339">D : T</text><line style="stroke: #A80036; stroke-width: 1.0;" x1="782.75" x2="975.75" y1="773.3281" y2="773.3281"/><ellipse cx="792.75" cy="785.2305" fill="#84BE84" rx="3" ry="3" style="stroke: #038048; stroke-width: 1.0;"/><text fill="#000000" font-family="sans-serif" font-size="11" lengthAdjust="spacingAndGlyphs" textLength="149" x="801.75" y="787.5386">opCall( in T v, float dt ) : T</text><line style="stroke: #A80036; stroke-width: 1.0;" x1="782.75" x2="975.75" y1="794.1328" y2="794.1328"/><polygon fill="#FFFF44" points="792.75,801.0352,796.75,805.0352,792.75,809.0352,788.75,805.0352" style="stroke: #B38D22; stroke-width: 1.0;"/><text fill="#000000" font-family="sans-serif" font-size="11" lengthAdjust="spacingAndGlyphs" textLength="109" x="801.75" y="808.3433">integral( in T v ) : T</text><polygon fill="#FFFF44" points="792.75,813.8398,796.75,817.8398,792.75,821.8398,788.75,817.8398" style="stroke: #B38D22; stroke-width: 1.0;"/><text fill="#000000" font-family="sans-serif" font-size="11" lengthAdjust="spacingAndGlyphs" textLength="169" x="801.75" y="821.1479">derivative( in T v, float dt ) : T</text><rect fill="#FEFECE" filter="url(#f1)" height="92.3516" style="stroke: #A80036; stroke-width: 1.5;" width="128" x="120" y="396"/><ellipse cx="144" cy="414.9688" fill="#ADD1B2" rx="11" ry="11" style="stroke: #A80036; stroke-width: 1.0;"/><path d="M146.3438,410.6406 L146.5156,410.7188 C146.7344,410.4063 146.9375,410.3125 147.2344,410.3125 C147.5313,410.3125 147.8125,410.4531 147.9688,410.7188 C148.0625,410.875 148.0781,411 148.0781,411.4375 L148.0781,412.8594 C148.0781,413.2813 148.0469,413.4688 147.9375,413.625 C147.7656,413.8438 147.5,413.9844 147.2344,413.9844 C147.0156,413.9844 146.7813,413.875 146.6406,413.7344 C146.5,413.6094 146.4688,413.4844 146.4063,413.0781 C146.3125,412.6719 146.1406,412.4531 145.6563,412.1719 C145.1875,411.9219 144.5781,411.7656 144,411.7656 C142.2656,411.7656 141.0156,413.0781 141.0156,414.8594 L141.0156,415.9531 C141.0156,417.6563 142.3125,418.75 144.3594,418.75 C145.125,418.75 145.8125,418.625 146.2344,418.3594 C146.4219,418.2656 146.4219,418.2656 146.875,417.7813 C147.0625,417.5938 147.2656,417.5156 147.4844,417.5156 C147.9531,417.5156 148.3438,417.9063 148.3438,418.3594 C148.3438,418.75 148.0156,419.2031 147.4375,419.6094 C146.6875,420.1563 145.5313,420.4531 144.3125,420.4531 C141.4219,420.4531 139.3125,418.5625 139.3125,415.9844 L139.3125,414.8594 C139.3125,412.1406 141.3125,410.0625 143.9375,410.0625 C144.8125,410.0625 145.4063,410.2031 146.3438,410.6406 Z "/><text fill="#000000" font-family="sans-serif" font-size="12" font-style="italic" lengthAdjust="spacingAndGlyphs" textLength="76" x="160" y="412.1387">&lt;&lt;struct&gt;&gt;</text><text fill="#000000" font-family="sans-serif" font-size="12" lengthAdjust="spacingAndGlyphs" textLength="76" x="160" y="426.1074">ModelConfig</text><line style="stroke: #A80036; stroke-width: 1.5;" x1="121" x2="247" y1="433.9375" y2="433.9375"/><ellipse cx="131" cy="445.8398" fill="none" rx="3" ry="3" style="stroke: #038048; stroke-width: 1.0;"/><text fill="#000000" font-family="sans-serif" font-size="11" lengthAdjust="spacingAndGlyphs" textLength="44" x="140" y="448.1479">h : float</text><ellipse cx="131" cy="458.6445" fill="none" rx="3" ry="3" style="stroke: #038048; stroke-width: 1.0;"/><text fill="#000000" font-family="sans-serif" font-size="11" lengthAdjust="spacingAndGlyphs" textLength="102" x="140" y="460.9526">unit_count : size_t</text><ellipse cx="131" cy="471.4492" fill="none" rx="3" ry="3" style="stroke: #038048; stroke-width: 1.0;"/><text fill="#000000" font-family="sans-serif" font-size="11" lengthAdjust="spacingAndGlyphs" textLength="91" x="140" y="473.7573">camres : uivec2</text><line style="stroke: #A80036; stroke-width: 1.5;" x1="121" x2="247" y1="480.3516" y2="480.3516"/><rect fill="#FEFECE" filter="url(#f1)" height="183.2422" style="stroke: #A80036; stroke-width: 1.5;" width="244" x="91" y="76.5"/><ellipse cx="190.25" cy="92.5" fill="#ADD1B2" rx="11" ry="11" style="stroke: #A80036; stroke-width: 1.0;"/><path d="M192.5938,88.1719 L192.7656,88.25 C192.9844,87.9375 193.1875,87.8438 193.4844,87.8438 C193.7813,87.8438 194.0625,87.9844 194.2188,88.25 C194.3125,88.4063 194.3281,88.5313 194.3281,88.9688 L194.3281,90.3906 C194.3281,90.8125 194.2969,91 194.1875,91.1563 C194.0156,91.375 193.75,91.5156 193.4844,91.5156 C193.2656,91.5156 193.0313,91.4063 192.8906,91.2656 C192.75,91.1406 192.7188,91.0156 192.6563,90.6094 C192.5625,90.2031 192.3906,89.9844 191.9063,89.7031 C191.4375,89.4531 190.8281,89.2969 190.25,89.2969 C188.5156,89.2969 187.2656,90.6094 187.2656,92.3906 L187.2656,93.4844 C187.2656,95.1875 188.5625,96.2813 190.6094,96.2813 C191.375,96.2813 192.0625,96.1563 192.4844,95.8906 C192.6719,95.7969 192.6719,95.7969 193.125,95.3125 C193.3125,95.125 193.5156,95.0469 193.7344,95.0469 C194.2031,95.0469 194.5938,95.4375 194.5938,95.8906 C194.5938,96.2813 194.2656,96.7344 193.6875,97.1406 C192.9375,97.6875 191.7813,97.9844 190.5625,97.9844 C187.6719,97.9844 185.5625,96.0938 185.5625,93.5156 L185.5625,92.3906 C185.5625,89.6719 187.5625,87.5938 190.1875,87.5938 C191.0625,87.5938 191.6563,87.7344 192.5938,88.1719 Z "/><text fill="#000000" font-family="sans-serif" font-size="12" lengthAdjust="spacingAndGlyphs" textLength="37" x="210.75" y="96.6543">Model</text><line style="stroke: #A80036; stroke-width: 1.5;" x1="92" x2="334" y1="108.5" y2="108.5"/><polygon fill="none" points="102,115.4023,106,119.4023,102,123.4023,98,119.4023" style="stroke: #B38D22; stroke-width: 1.0;"/><text fill="#000000" font-family="sans-serif" font-size="11" lengthAdjust="spacingAndGlyphs" textLength="86" x="111" y="122.7104">time : float = 0</text><polygon fill="none" points="102,128.207,106,132.207,102,136.207,98,132.207" style="stroke: #B38D22; stroke-width: 1.0;"/><text fill="#000000" font-family="sans-serif" font-size="11" lengthAdjust="spacingAndGlyphs" textLength="149" x="111" y="135.5151">unit_params : UnitParams</text><polygon fill="none" points="102,141.0117,106,145.0117,102,149.0117,98,145.0117" style="stroke: #B38D22; stroke-width: 1.0;"/><text fill="#000000" font-family="sans-serif" font-size="11" lengthAdjust="spacingAndGlyphs" textLength="98" x="111" y="148.3198">cfg : ModelConfig</text><line style="stroke: #A80036; stroke-width: 1.0;" x1="92" x2="334" y1="154.9141" y2="154.9141"/><ellipse cx="102" cy="166.8164" fill="none" rx="3" ry="3" style="stroke: #038048; stroke-width: 1.0;"/><text fill="#000000" font-family="sans-serif" font-size="11" lengthAdjust="spacingAndGlyphs" textLength="70" x="111" y="169.1245">units : Unit[]</text><ellipse cx="102" cy="196.4258" fill="#84BE84" rx="3" ry="3" style="stroke: #038048; stroke-width: 1.0;"/><text fill="#000000" font-family="sans-serif" font-size="11" lengthAdjust="spacingAndGlyphs" textLength="218" x="111" y="198.7339">config : ref const(ModelConfig) { get }</text><line style="stroke: #A80036; stroke-width: 1.0;" x1="92" x2="183" y1="182.1211" y2="182.1211"/><text fill="#000000" font-family="sans-serif" font-size="11" lengthAdjust="spacingAndGlyphs" textLength="60" x="183" y="185.4292">@property</text><line style="stroke: #A80036; stroke-width: 1.0;" x1="243" x2="334" y1="182.1211" y2="182.1211"/><line style="stroke: #A80036; stroke-width: 1.0;" x1="92" x2="334" y1="205.3281" y2="205.3281"/><ellipse cx="102" cy="217.2305" fill="#84BE84" rx="3" ry="3" style="stroke: #038048; stroke-width: 1.0;"/><text fill="#000000" font-family="sans-serif" font-size="11" lengthAdjust="spacingAndGlyphs" textLength="89" x="111" y="219.5386">process() : void</text><line style="stroke: #A80036; stroke-width: 1.0;" x1="92" x2="334" y1="226.1328" y2="226.1328"/><polygon fill="#FFFF44" points="102,233.0352,106,237.0352,102,241.0352,98,237.0352" style="stroke: #B38D22; stroke-width: 1.0;"/><text fill="#000000" font-family="sans-serif" font-size="11" lengthAdjust="spacingAndGlyphs" textLength="117" x="111" y="240.3433">logic( float dt ) : void</text><polygon fill="#FFFF44" points="102,245.8398,106,249.8398,102,253.8398,98,249.8398" style="stroke: #B38D22; stroke-width: 1.0;"/><text fill="#000000" font-family="sans-serif" font-size="11" lengthAdjust="spacingAndGlyphs" textLength="137" x="111" y="253.1479">processDangers() : void</text><path d="M648.618,261.102 C667.156,304.201 688.529,353.888 704.109,390.108 " fill="none" style="stroke: #A80036; stroke-width: 1.0;"/><polygon fill="#A80036" points="643.471,249.138,642.1673,256.2303,648.2127,260.1615,649.5163,253.0692,643.471,249.138" style="stroke: #A80036; stroke-width: 1.0;"/><path d="M748.707,168 C786.134,168 823.562,168 860.989,168 " fill="none" style="stroke: #A80036; stroke-width: 1.0;"/><polygon fill="#A80036" points="735.469,168,741.469,172,747.469,168,741.469,164,735.469,168" style="stroke: #A80036; stroke-width: 1.0;"/><path d="M140.301,769.803 C136.795,802.795 131.483,852.769 127.484,890.397 " fill="none" style="stroke: #A80036; stroke-width: 1.0; stroke-dasharray: 7.0,7.0;"/><polygon fill="#A80036" points="140.848,764.658,135.9191,773.1848,140.3195,769.63,143.8743,774.0304,140.848,764.658" style="stroke: #A80036; stroke-width: 1.0;"/><path d="M306.318,571.24 C257.079,620.31 205.235,671.975 173.752,703.35 " fill="none" style="stroke: #A80036; stroke-width: 1.0;"/><polygon fill="#A80036" points="315.8,561.791,308.7265,563.1931,307.3002,570.2618,314.3737,568.8596,315.8,561.791" style="stroke: #A80036; stroke-width: 1.0;"/><text fill="#000000" font-family="sans-serif" font-size="13" lengthAdjust="spacingAndGlyphs" textLength="8" x="298.8274" y="582.0082">1</text><path d="M424.47,581.798 C421.682,618.554 418.853,655.842 416.703,684.192 " fill="none" style="stroke: #A80036; stroke-width: 1.0;"/><polygon fill="none" points="417.495,581.204,425.988,561.791,431.455,582.263,417.495,581.204" style="stroke: #A80036; stroke-width: 1.0;"/><path d="M503.129,794.524 C521.406,805.993 540.652,817.649 559,828 C613.729,858.877 677.943,890.324 724.592,912.347 " fill="none" style="stroke: #A80036; stroke-width: 1.0;"/><polygon fill="none" points="499.101,800.259,485.963,783.633,506.601,788.437,499.101,800.259" style="stroke: #A80036; stroke-width: 1.0;"/><path d="M386.38,802.2 C371.653,839.377 354.091,883.709 342.753,912.33 " fill="none" style="stroke: #A80036; stroke-width: 1.0;"/><polygon fill="none" points="379.901,799.548,393.775,783.532,392.917,804.705,379.901,799.548" style="stroke: #A80036; stroke-width: 1.0;"/><path d="M459.094,799.907 C485.818,837.54 518.185,883.118 538.93,912.33 " fill="none" style="stroke: #A80036; stroke-width: 1.0;"/><polygon fill="none" points="453.338,803.892,447.465,783.532,464.752,795.786,453.338,803.892" style="stroke: #A80036; stroke-width: 1.0;"/><path d="M535.799,572.343 C563.69,608.133 592.585,645.211 615.579,674.716 " fill="none" style="stroke: #A80036; stroke-width: 1.0;"/><polygon fill="#A80036" points="527.575,561.791,528.1082,568.9824,534.9514,571.2561,534.4182,564.0648,527.575,561.791" style="stroke: #A80036; stroke-width: 1.0;"/><path d="M597.884,557.75 C600.264,559.187 602.637,560.605 605,562 C672.777,602.022 697.65,597.654 764,640 C769.844,643.73 775.734,647.707 781.597,651.839 " fill="none" style="stroke: #A80036; stroke-width: 1.0;"/><polygon fill="#A80036" points="586.703,550.888,589.7245,557.4356,596.9305,557.1648,593.909,550.6172,586.703,550.888" style="stroke: #A80036; stroke-width: 1.0;"/><text fill="#000000" font-family="sans-serif" font-size="13" lengthAdjust="spacingAndGlyphs" textLength="56" x="708" y="605.0669">PID!vec3</text><path d="M546.806,266.222 C535.169,284.414 522.885,303.617 510.888,322.371 " fill="none" style="stroke: #A80036; stroke-width: 1.0;"/><polygon fill="none" points="541.061,262.213,557.735,249.138,552.854,269.758,541.061,262.213" style="stroke: #A80036; stroke-width: 1.0;"/><path d="M295.477,270.053 C309.362,287.066 323.886,304.861 338.097,322.272 " fill="none" style="stroke: #A80036; stroke-width: 1.0;"/><polygon fill="#A80036" points="286.923,259.572,287.6179,266.7495,294.5106,268.8686,293.8157,261.6911,286.923,259.572" style="stroke: #A80036; stroke-width: 1.0;"/><text fill="#000000" font-family="sans-serif" font-size="13" lengthAdjust="spacingAndGlyphs" textLength="7" x="284.6721" y="279.8388">*</text><path d="M201.952,272.622 C197.412,315.201 192.393,362.275 188.819,395.799 " fill="none" style="stroke: #A80036; stroke-width: 1.0;"/><polygon fill="#A80036" points="203.343,259.572,198.7292,265.114,202.0704,271.5043,206.6841,265.9624,203.343,259.572" style="stroke: #A80036; stroke-width: 1.0;"/></g></svg>